<svg width="15" height="15" viewBox="0 0 15 15" fill="none" xmlns="http://www.w3.org/2000/svg">
<path d="M15 7.5C15 9.48912 14.2098 11.3968 12.8033 12.8033C11.3968 14.2098 9.48912 15 7.5 15C5.51088 15 3.60322 14.2098 2.1967 12.8033C0.790176 11.3968 0 9.48912 0 7.5C0 5.51088 0.790176 3.60322 2.1967 2.1967C3.60322 0.790176 5.51088 0 7.5 0C9.48912 0 11.3968 0.790176 12.8033 2.1967C14.2098 3.60322 15 5.51088 15 7.5V7.5ZM11.2781 4.65937C11.2112 4.59264 11.1314 4.5401 11.0437 4.50489C10.9559 4.46968 10.862 4.45252 10.7675 4.45445C10.673 4.45637 10.5798 4.47734 10.4936 4.5161C10.4073 4.55485 10.3298 4.6106 10.2656 4.68L7.00969 8.82844L5.0475 6.86531C4.91421 6.74111 4.73792 6.6735 4.55576 6.67671C4.3736 6.67993 4.1998 6.75372 4.07098 6.88254C3.94215 7.01137 3.86836 7.18517 3.86515 7.36732C3.86193 7.54948 3.92955 7.72577 4.05375 7.85906L6.53437 10.3406C6.6012 10.4073 6.68078 10.4599 6.76836 10.4952C6.85594 10.5305 6.94973 10.5477 7.04414 10.546C7.13854 10.5442 7.23163 10.5235 7.31784 10.485C7.40405 10.4465 7.48163 10.391 7.54594 10.3219L11.2884 5.64375C11.416 5.51109 11.4865 5.3337 11.4848 5.14965C11.483 4.9656 11.4092 4.78958 11.2791 4.65937H11.2781Z" fill="#F99746"/>
</svg>
