<?xml version="1.0" encoding="utf-8"?>
<!-- Generator: Adobe Illustrator 25.4.1, SVG Export Plug-In . SVG Version: 6.00 Build 0)  -->
<svg version="1.1" id="Layer_1" xmlns="http://www.w3.org/2000/svg" xmlns:xlink="http://www.w3.org/1999/xlink" x="0px" y="0px"
	 viewBox="0 0 16 16" style="enable-background:new 0 0 16 16;" xml:space="preserve">
<style type="text/css">
	.st0{fill:#FFFFFF;}
</style>
<path class="st0" d="M4,10.8c0.1,1.7,1.5,2.9,3.6,3V15h1v-1.2c2.3-0.2,3.7-1.4,3.7-3.3c0-1.6-0.9-2.5-3-3L8.6,7.3V3.5
	c1.1,0.1,1.9,0.7,2.1,1.6h1.5C12,3.5,10.6,2.3,8.6,2.2V1h-1v1.2C5.7,2.5,4.3,3.7,4.3,5.4c0,1.5,1,2.5,2.7,2.9l0.6,0.2v4
	c-1.1-0.2-1.9-0.8-2.1-1.7C5.5,10.8,4,10.8,4,10.8z M7.4,6.9c-1-0.3-1.6-0.8-1.6-1.6c0-0.9,0.7-1.6,1.8-1.8V7L7.4,6.9L7.4,6.9z
	 M9,8.8c1.3,0.3,1.9,0.9,1.9,1.8c0,1.1-0.8,1.8-2.2,1.9V8.7L9,8.8L9,8.8z"/>
</svg>
