<?xml version="1.0" encoding="utf-8"?>
<!-- Generator: Adobe Illustrator 25.4.1, SVG Export Plug-In . SVG Version: 6.00 Build 0)  -->
<svg version="1.1" id="Layer_1" xmlns="http://www.w3.org/2000/svg" xmlns:xlink="http://www.w3.org/1999/xlink" x="0px" y="0px"
	 viewBox="0 0 2600 2000" style="enable-background:new 0 0 2600 2000;" xml:space="preserve">
<style type="text/css">
	.st0{fill:#CFDDF9;}
	.st1{fill:#D4E8FF;}
	.st2{fill:#EEF7FF;}
	.st3{fill:#DCE6FF;}
	.st4{fill:#23659B;}
	.st5{fill:#1D3F70;}
	.st6{fill:#3A72AA;}
	.st7{fill:#F99370;}
	.st8{fill:#E57D61;}
	.st9{fill:#EB5648;}
	.st10{fill:#CE3932;}
	.st11{fill:#103663;}
	.st12{fill:#8E4A35;}
	.st13{fill:#C16256;}
	.st14{fill:#C92828;}
	.st15{fill:#9358E0;}
	.st16{fill:#395B96;}
	.st17{fill:#E8C0A6;}
	.st18{fill:#D1A68F;}
	.st19{fill:#7640CC;}
	.st20{fill:#F9F8F3;}
	.st21{fill:#F4D4BE;}
	.st22{fill:#662948;}
	.st23{fill:#163356;}
</style>
<path class="st0" d="M123.2,1578.9c0,0-14.8,74,53.6,93.3c93.5,26.3,642.6,95.5,509.2,148c-75.3,29.7,38.4,69.9,405.2,84.8
	s996-43.3,784.4-129.2s652.9-18,600.4-196.8L123.2,1578.9z"/>
<path class="st1" d="M538.4,1574.8c0,0-277-679.4-77.7-830.7c133.2-101.2,274.5,121.8,443,3.8c150.1-105-59.2-369.4,191.3-438.6
	c263.2-72.7,478.8,516.2,699.6,434.8c268-98.8,534.5,101.8,304.2,832L538.4,1574.8z"/>
<path class="st2" d="M2350.8,1273.1c-94.4-13.3-85.8,186-220.4,186c-123,0-188.8-445.2-323.8-354.6
	c-542.6,364-120.4-255.4-485.3-267.5c-165-5.5-274.9,161.3-315.5,456.5c-58.8,266.9-195-203.6-335.3-159.8
	c-89.1,27.8-78.9,325.5-201.9,325.5c-134.5,0-125.7-167.6-220-154.3c-101.6,14.2-125.5,274-125.5,274h2352.7
	C2475.9,1578.9,2452.4,1287.4,2350.8,1273.1z"/>
<path class="st3" d="M2260.3,1482.3c-86.8-5.7-72.6,45.5-196.4,45.5c-113.2,0-110-114.6-185.8-139
	c-139.4-44.9-254.4,182.2-308.5,68.2c-102.7-302.4-402.2-454-540.3,0c-54.1,114-180.5-89.4-308.5-68.2c-78.8,13-72.6,139-185.8,139
	c-123.8,0-109.6-51.2-196.4-45.5c-93.5,6.1-121.4,96.6-121.4,96.6h2164.5C2381.8,1578.9,2353.8,1488.4,2260.3,1482.3z"/>
<polygon class="st4" points="1482.9,1100.8 1476.4,1186.6 1006.9,1186.6 1006.5,1424.9 432.9,1425.3 431.2,1642.8 458.6,1670.2 
	2125.1,1670.2 2125.1,1120 2099.4,1094.3 "/>
<polygon class="st5" points="407.2,1399.6 458.6,1451 458.6,1670.2 407.2,1618.8 "/>
<polygon class="st5" points="981.1,1160.8 1032.6,1212.3 1032.6,1451 981.1,1399.6 "/>
<polygon class="st5" points="1450.7,1068.5 1502.2,1120 1502.2,1212.3 1450.7,1160.8 "/>
<polygon class="st6" points="2073.7,1068.5 2125.1,1120 1502.2,1120 1450.7,1068.5 "/>
<polygon class="st6" points="981.1,1160.8 1032.6,1212.3 1502.2,1212.3 1450.7,1160.8 "/>
<polygon class="st6" points="407.2,1399.6 458.6,1451 1032.6,1451 981.1,1399.6 "/>
<path class="st7" d="M1562,632.6c2.2,3.4-4.4,7.5-6.1,10.4c4-0.1,8-0.5,11.9-1.3c6.9-3.5,13.7-7.4,20.3-11.6
	c11.6-0.1,8.1,26.4-15.3,33.9c-8.4,2.7-16.6,6-30.3,3.9c-4.5-0.7-5.8-13.4-3-16.9C1544.3,647.2,1558.7,629.4,1562,632.6z"/>
<path class="st8" d="M1041.1,767.2c1.5,3.8,8.9,0.2,12.4,1.3c-2.4,3.2-5.2,6.2-8.4,8.7c-6.9,3.6-13.9,6.9-21.2,9.8
	c-6.8,9.4,16.8,21.9,36.4,7.1c7.1-5.3,14.5-10,20.7-22.5c2-4.1-4.3-13-8.8-13C1065.3,758.6,1040.4,762.6,1041.1,767.2z"/>
<path class="st7" d="M1349.3,635.4c32.4,15.1,66,32.4,102.1,34.7c21.1-0.3,42.3-5.4,62.7-11.5c8.4-2.5,16.9-5.4,25.2-8.4
	c11.4-4.5,19.9,12.4,9.7,18.9c-28.3,19.3-60.6,34.1-94.8,38.9c-25,2.5-49.4-3.2-72.9-10.3c-18.2-5.7-35.9-12.8-53-21.3
	C1301.2,662.2,1322,621.6,1349.3,635.4z"/>
<path class="st6" d="M1546.3,670.9c0,0-2.6,2.2-7.2,5.7c-16.5,12.4-59.1,40.6-104.8,40.1c-19.3-0.2-38.5-2.1-57.4-5.5
	c-2.3-0.4-4.6-0.9-6.8-1.3c-4.3-0.9-8.3-1.8-12-2.7c-3.2-0.8-6.1-1.6-8.7-2.3c-9.2-2.6-14.2-4.6-14.2-4.6c9.5-42.6,3-68-2.7-80.5
	c-3-6.5-5.8-9.6-6-9.8l0,0h0.1l0.1,0.1c0.7,0.3,3.1,1.2,6.8,2.8c10.8,4.6,32.9,14.4,57,27.4c25.4,13.7,64.1,32.5,137.8,13.3
	c2.7-0.7,5.4-1.4,8.2-2.2C1540.6,650,1535,662.7,1546.3,670.9z"/>
<path class="st7" d="M1550.9,1091.7l-65.2,2.3c-2.9,0.1-5.3-2.1-5.4-5c0-0.1,0-0.2,0-0.3c0-1.7,0.2-3.4,0.4-5.1
	c0.7-5.5,0.9-11,0.6-16.5c-0.1-2.6-0.4-5.3-0.8-7.9l-6.3-45.5c-0.4-2.8,1.6-5.5,4.4-5.8c0.2,0,0.4,0,0.6,0l28.8-1
	c2.9-0.1,5.3,2.1,5.4,5c0,0.2,0,0.4,0,0.6l-3.7,41.8c-0.8,9.2,5.4,17.5,14.4,19.3c6.4,1.3,12.9,2.1,17.6,3.1l1.8,0.4l0,0
	c5,1.2,9.1,2.9,11.5,6.3c1.7,2.3,1.2,5.6-1.1,7.2C1552.9,1091.4,1551.9,1091.7,1550.9,1091.7z"/>
<path class="st9" d="M1478.4,1087.6c0.3,3.2,2,6.8,5.7,6.6l67.6-2.4c2.8-0.1,4.9-2.4,4.9-5.1c0-0.6-0.1-1.2-0.4-1.8
	c-2.9-7.3-12.6-17.9-44.6-18.6c-10,1.7-20.1,2-30.2,1C1478.3,1073.5,1477.2,1080.7,1478.4,1087.6z"/>
<path class="st10" d="M1556.2,1084.8l-77.8,2.8c0.3,2.4,1.1,4.6,2.4,6.7l70.9-2.6c2.8-0.1,4.9-2.4,4.9-5.1c0-0.6-0.1-1.1-0.3-1.7
	L1556.2,1084.8z"/>
<path class="st5" d="M1534.8,1036c0.3,8.8,0.4,14,0.4,14s-32.4,14.2-65.8,5.2c-2.5-0.7-5-1.5-7.5-2.4c-0.9-3.8-1.8-8-2.7-12.6
	c-7.4-39.4-13.5-106.1-36.6-123.7c-23.9-17.2-68.1-14.8-95.4-16.1c-0.8,0-1.5-0.1-2.3-0.1c-40.9-2.4-73-31.8-98.4-76.9
	c-3.8-6.6,43.9-12.9,43.9-12.9l110.3-9.2c28.4,7.1,78.5,17.2,110.8,52.2C1526.1,890.9,1533.3,997.5,1534.8,1036z"/>
<path class="st11" d="M1469.3,1055.2L1469.3,1055.2c-2.5-0.7-5-1.5-7.5-2.4c-8.9-35.6-13.5-116.7-39.2-136.3
	c-23.9-17.2-68.1-14.8-95.4-16.1l8.9-19.3c0,0,75,0.9,99.9,34.2S1469.3,1055.2,1469.3,1055.2z"/>
<path class="st7" d="M1317.9,1203.7l-64.8-7.3c-2.9-0.3-4.9-2.9-4.6-5.8c0-0.1,0-0.2,0-0.2c0.3-1.7,0.7-3.4,1.1-5
	c1.5-5.3,2.6-10.7,3.1-16.2c0.2-2.6,0.8-29,0.8-31.7c0,0,33.4-3.3,32.7-0.3l-2.4,35.6c3,8,1.4,5.9,10.1,9.1
	c6.1,2.3,12.5,3.9,16.9,5.6c0.6,0.2,1.2,0.4,1.7,0.7l0,0c4.7,1.9,8.5,4.2,10.5,7.9c1.4,2.5,0.4,5.7-2.1,7
	C1320,1203.6,1318.9,1203.8,1317.9,1203.7z"/>
<path class="st9" d="M1246.8,1189c-0.2,3.2,1,7,4.7,7.3l67.2,7.5c2.7,0.3,5.2-1.6,5.6-4.4c0.1-0.6,0-1.2-0.1-1.8
	c-1.8-7.6-9.8-19.6-41.4-24.9c-10.1,0.2-20.2-1-30-3.4C1248.7,1175.1,1246.6,1182,1246.8,1189z"/>
<path class="st10" d="M1324.2,1197.6l-77.3-8.7c0,2.4,0.5,4.8,1.4,7l70.5,7.9c2.7,0.3,5.2-1.6,5.6-4.4c0.1-0.6,0-1.1-0.1-1.7
	L1324.2,1197.6z"/>
<path class="st7" d="M1326.5,609.8c3-13.7,3-34,1.9-42.4c-1.8-16.6-28.3-13-25.7,3.4c0.9-0.4,0.5,29.3-2.2,37.3
	c-16.2,3.1,26.6,30,38.9,24.4C1347.2,628.9,1326.5,609.8,1326.5,609.8z"/>
<path class="st8" d="M1302.7,569.4c0,0.2,0,0.4,0,0.6s0,0.5,0.1,0.8c0.6-0.3,0.6,16.1-0.6,27.9c10.6,6.2,23.2,5.3,25.5,5
	c1.8-12.4,1.5-28.1,1.1-34c-0.2-1.4-0.3-2.2-0.3-2.4c-0.1-0.4-0.1-0.7-0.2-1.1c-0.8-3.7-3.3-6.9-6.7-8.7l0,0
	c-4.8-2.5-10.7-1.7-14.7,1.9c-0.1,0.1-0.2,0.2-0.2,0.2C1304,562.2,1302.5,565.8,1302.7,569.4z"/>
<path class="st12" d="M1285.3,546.8c0,0,0.2-14,4.6-23.6l8,3.9L1285.3,546.8z"/>
<path class="st5" d="M1336.5,801.4c2.7,69.6-5,167.2-10.6,212.7c-5.5,44.4-14.9,103.6-19.3,130l0,0c-1.4,8.6-2.3,13.7-2.3,13.7
	s-33.7,16.1-65.7-4c0,0,0.2-5.1,0.4-13.6c0.7-27.3,1.9-90.1-0.7-136.9c-2.5-45.7-33.3-124.4-11.8-179.9L1336.5,801.4z"/>
<path class="st7" d="M1285.1,587.7c12.5,12.2,32,14,46.1,5.9l0,0c1.1-0.6,2.1-1.4,3-2.2l0,0c44.6-44.9-16-118.4-43.6-54.2
	C1281.2,555.3,1265,565,1285.1,587.7z"/>
<path class="st8" d="M1292.6,532.8c9.7-5.1,27.3-0.5,35.9-0.5c0,0-1.8,14.8,13.1,25.3c1.3,13.6,3.5,19.5-10.4,36.1l0,0
	c1.1-0.6,2.1-1.4,3-2.2l0,0C1377.1,548.6,1321.2,475.6,1292.6,532.8z"/>
<path class="st12" d="M1285.3,503.4c5.6-11,22.1-17,36.3-3.4c11,10.4,22.8,10.4,22.6,21.4c22,10,11.1,34.2,11.1,34.2l-11-1.3
	c-12.6-10.2-12.2-25.2-12.2-25.2l0,0c-2.8,0.2-5.6,0-8.4-0.7c-8.1-2.1-20.2-3.1-29.3,0.3S1279.1,515.6,1285.3,503.4z"/>
<path class="st7" d="M1356.9,564.5c-1.2,5.7-5.8,9.5-10.4,8.5s-7.3-6.3-6.1-12s5.9-9.5,10.4-8.5S1358.1,558.8,1356.9,564.5z"/>
<path class="st13" d="M1346.1,557c0.2-0.1,4.4-1.7,6.7,0.5c0.6,0.6,1,1.4,1.2,2.2l0,0c0,0.1,0,0.2,0.1,0.2l0,0
	c0.3,2.3,0,4.6-0.8,6.8c-0.1,0.3-0.4,0.5-0.7,0.5h-0.1c-0.4-0.1-0.6-0.5-0.5-0.8c0,0,0,0,0,0c0.6-1.8,0.9-3.7,0.8-5.6
	c-3.9,0.7-5.8,5.1-5.9,5.1c-0.1,0.3-0.4,0.4-0.7,0.4c-0.1,0-0.1,0-0.2,0c-0.3-0.1-0.5-0.5-0.4-0.9c0.1-0.2,2.2-5.1,6.8-6
	c-0.1-0.4-0.4-0.7-0.6-1c-1.7-1.6-5.3-0.2-5.3-0.2c-0.3,0.1-0.7,0-0.9-0.4S1345.7,557.1,1346.1,557L1346.1,557z"/>
<path class="st6" d="M1380.7,801.2c0,0-42.4,40.8-154.2,22.1c0,0,1.5-40.9,3.3-80.5c0.2-3.4,0.3-6.8,0.5-10.2l0,0
	c1.4-30.9,3-58.7,4-62.6c10.6-39.8,43.9-54.9,58.9-59.8c2.4-0.8,4.9-1.5,7.4-2c0,9.9,17.1,16.3,23,12.1c4.9-3.6,3.1-9.9,3-10.3l0,0
	h0.1l0.1,0.1c2.3,1,4.6,2.2,6.8,3.5c15.1,9.3,25,26,30.5,50c2.1,9.3,3.4,18.7,4.2,28.2c0.2,1.8,0.3,3.6,0.4,5.5
	c0.2,3.9,0.8,8.1,1.5,12.6c0,0,0,0,0,0.1C1374.8,738.2,1387.1,777.2,1380.7,801.2z"/>
<path class="st8" d="M1224.7,664.3c-25.3,25.5-50.7,40.9-73.7,54.9c-18.1,10.9-36.2,22.6-55.8,30.7c-8.1,3.4-16.5,6.5-24.8,9.4
	c-11.7,3.8-7.6,22.2,4.5,20.8c34.1-2.9,70.2-10.2,99.5-28.4c23.5-14.6,52.3-30,69.4-47.6c16.1-16.5,31.7-42.9,39.5-60.3
	C1295.4,615.7,1249.5,626.8,1224.7,664.3z"/>
<path class="st6" d="M1300.5,608.1c0,0-0.9,3.8-3,10.5c-5.1,15.8-17.2,47.8-41.7,85.8c-7,10.7-15.7,20.2-25.6,28.2
	c-38.8,31.8-97,46.4-140,46.9c-2.7,0-5.5,0-8.2-0.1c0,0,3-13.8-5.9-22.1c0,0,2.5-1.2,6.6-3.3c14.7-7.6,50.2-26.6,65.1-41.3
	c18.4-18.2,68.1-99.6,144.9-104.3l1.4-0.1C1296.2,608.1,1298.4,608.1,1300.5,608.1z"/>
<path class="st11" d="M1534.8,1036c0.3,8.8,0.4,14,0.4,14s-32.4,14.2-65.8,5.2c-2.5-0.7-5-1.5-7.5-2.4c-0.9-3.8-1.8-8-2.7-12.6
	C1459.1,1040.1,1497.4,1050.5,1534.8,1036L1534.8,1036z"/>
<path class="st11" d="M1306.6,1144c-1.4,8.6-2.3,13.7-2.3,13.7s-33.7,16.1-65.7-4c0,0,0.2-5.1,0.4-13.6
	C1239,1140.1,1262.5,1157.3,1306.6,1144z"/>
<path class="st4" d="M1082.7,754c-4.1,2.1-6.6,3.3-6.6,3.3c8.9,8.3,5.9,22.1,5.9,22.1c2.7,0.1,5.5,0.2,8.2,0.1
	C1090.2,779.2,1092.3,762,1082.7,754z"/>
<path class="st4" d="M1546.3,670.9c0,0-2.6,2.2-7.2,5.7l0,0c-13.2-9.8-10.8-22.9-10.8-22.9v-0.3c2.7-0.7,5.4-1.4,8.2-2.2
	C1536.5,651.2,1535,662.7,1546.3,670.9z"/>
<path class="st13" d="M1293.8,571.6c-1.1,0-2.1-0.1-3.2-0.3c-0.3-0.1-0.6-0.4-0.5-0.8c0,0,0,0,0,0c0.1-0.3,0.4-0.5,0.8-0.5
	c0.3,0.1,8.4,2.2,12.5-5.2c0.2-0.3,0.6-0.4,0.9-0.3l0,0c0.3,0.2,0.4,0.6,0.2,0.9C1302.5,569.3,1298.3,571.8,1293.8,571.6z"/>
<path class="st4" d="M1271.7,677.7c-0.6,1.4-18,42.1-42,65.1c0.2-3.4,0.3-6.8,0.5-10.2l0,0C1230.1,732.6,1255.2,706.4,1271.7,677.7z
	"/>
<path class="st4" d="M1376.9,711.2c-2.3-0.4-4.6-0.9-6.8-1.3c0,0,0,0,0-0.1c0-0.7-0.6-7.6-1.9-18.1l0,0c-1-7.8-2.3-17.6-4.2-28.2
	l0,0v-0.2C1364,663.4,1370.2,683.7,1376.9,711.2z"/>
<path class="st4" d="M1333.6,612.8c0,0.2,0,0.5,0,0.7c0,2.1-0.3,4.2-1,6.2c-1.7,4.7-5.8,8.7-15.1,8.3c-10.2-0.4-16.3-4.9-19.9-9.5
	c-2-2.5-3.5-5.4-4.4-8.4c-0.2-0.6-0.4-1.2-0.5-1.8l0,0l1.4-0.1c2.2-0.1,4.3-0.2,6.5-0.1c0,9.9,17.1,16.3,23,12.1
	c4.9-3.6,3.1-9.9,3-10.3l0,0h0.1C1327.1,610.1,1329.6,611.1,1333.6,612.8z"/>
<path class="st7" d="M1053.9,767.9c0,0-18.1-1.1-29.2,8.1s-18.3,24.4-18.3,24.4s12.5,2.7,13.6,8.8c0,0,14.6-12.1,19.6-20.3
	S1053.9,767.9,1053.9,767.9z"/>
<path class="st14" d="M816.3,758.3c0,0-27.2-27.3-64.7,15.2s-14.1,42.4-73,64c-49.1,18-63.5,73,1.4,89.1
	c62,15.3,101.5-34.4,138.6-31.8s41.6-77,29.8-97S816.3,758.3,816.3,758.3z"/>
<path class="st7" d="M831.2,924.8c39.3,4.3,81.3-0.7,115.7-21.7c37.5-25.2,68.6-61.9,82.6-105.2c1.9-5.6-3.9-11.4-9.5-9.5
	c-0.2,0.2-7.8,2.1-7.7,2.6c-2.4,3.5-5,6.9-7.7,10.3c-34.6,42.3-84.5,77.2-141.4,72.8c-8.5-0.2-17-0.8-25.4-1.9
	C803.3,868.4,796.8,919.8,831.2,924.8z"/>
<path class="st15" d="M943,904.8c-0.3,2.8-1.1,5.5-2.5,8l0,0c-8.6,13.4-41.8,21.1-72.6,20.8c-3.2,0-6.5-0.1-9.6-0.3
	c-4.1-0.3-8.1-0.7-11.9-1.3c-1.9-15-13.6-51.2-15.5-66c10.5-1.2,28.5,2.8,46,4c17.9,2.6,32.5-10.6,44.5-4.6
	C921.5,865.3,920.3,893.7,943,904.8z"/>
<path class="st7" d="M578.5,1248.1c0,0,20.7-3.1,37.5-7.9l6.1,36.8l-39.2-2C582.9,1275,570.4,1265.1,578.5,1248.1z"/>
<path class="st7" d="M793.1,1399l3.2-24.1l32.3,0.3c0,0-4.3,10.5-8.3,24.1C820.4,1399.3,806.5,1411.1,793.1,1399z"/>
<path class="st14" d="M816.4,758.7c35.8-10.6,34.8,48.4,31.3,60L816.4,758.7z"/>
<path class="st5" d="M559.4,1247.7c-2.1,0.6-4.1,1.6-5.9,3l10.5,65c0.4,2.5,2.8,4.3,5.3,3.9c0.5-0.1,1-0.2,1.5-0.5l0.1-0.1
	c6.4-3.5,15.2-13.8,11.9-44c0,0-4.7-9.7-4.4-27C578.5,1248.1,568.1,1245.2,559.4,1247.7z"/>
<path class="st16" d="M571,1319l-11.6-71.3c-2.1,0.6-4.1,1.6-5.9,3l10.5,65c0.4,2.5,2.8,4.3,5.3,3.9c0.5-0.1,1-0.2,1.5-0.5L571,1319
	z"/>
<path class="st5" d="M789.5,1417.7c0.2,2.2,0.9,4.3,1.9,6.3l65.8,0.7c2.6,0,4.7-2,4.8-4.6c0-0.5-0.1-1-0.2-1.5v-0.1
	c-2.4-6.9-11-17.3-41.3-19.2c0,0-10.3,3-27.3-0.3C793.1,1399,788.5,1408.8,789.5,1417.7z"/>
<path class="st16" d="M861.7,1418.5l-72.2-0.8c0.2,2.2,0.9,4.3,1.9,6.3l65.8,0.7c2.6,0,4.7-2,4.8-4.6c0-0.5-0.1-1-0.2-1.5
	L861.7,1418.5z"/>
<path class="st17" d="M598.9,1280.5c3,0.6,6.4,1.2,10.1,1.7l0,0c46.8,6,142.7-1.4,177.1-38.3l0,0c4.6-4.9,9-10,13-15.3
	c30.3-40.2,41.7-91.3,45.5-142.4c1.3-17.7,1.7-35.4,1.7-52.6c-6.7-39.1-42.6-50.5-70.9-41c-22.2,7.5-39.7,27.8-34.9,57.9v-0.1
	c8.5,24.3,10.2,47,6.4,67.6c-11,59.8-68.5,102.6-141.7,119.8c-4,0.9-8,1.8-12,2.6C587.2,1241.4,588.4,1263.1,598.9,1280.5z"/>
<path class="st18" d="M789.5,1022.6l51.5,83.8l1.8-1c0.8-6.9,1.4-14,1.9-21.2c0.4-4.8,0.6-9.6,0.8-14.5c0.5-10.5,0.7-21.3,0.7-32.5
	l-17.7-5L789.5,1022.6z"/>
<path class="st18" d="M779.2,1250.2c0,0,13.3-11.2,19.9-21.7c18.9-29.9,19.8-32.2,30.3-66.7l-12.1-66.9l-70.7-4.5
	c0.6,14.4,3.1,20.7-3,40.8C743.7,1131.2,780.8,1162.9,779.2,1250.2z"/>
<path class="st17" d="M727.6,1096.1c6.5,7.7,13.5,14.4,19.4,21.7c29,35.7,45.2,72.5,52.2,110.7c8.1,44.3,3.8,90.4-7.1,138.5
	c-0.9,3.8-1.8,7.6-2.7,11.3c0,0,26.8,9,41.8,2.3c1.6-3.4,3.1-6.7,4.7-10l0,0c44.7-97.6,57.9-173.7,8.8-284.5
	c-10.8-24-22.9-47.3-36.4-69.9c-10.3-12.6-21.6-20.2-32.8-23.8C728.7,977.7,681.6,1042.2,727.6,1096.1z"/>
<path class="st15" d="M845.8,1027.5c0.5,6.8,0.5,10,0.5,10c-87,17.5-134.4-6.9-134.4-6.9c-0.5,0.2-0.5-2.9,0.1-8.3
	c1.1-10.8,4-30.7,8-51.8c0.7-3.8,1.5-7.5,2.2-11.3c5.4-26.5,12.2-52.8,18.6-63.2c13-36.7,57.6-42.9,85.9-31.2
	c4.4,1.6,26,39.5,30.5,54.2c7.7,24.8-18.5,43.7-15.2,75C844.2,1009.3,845.3,1020.3,845.8,1027.5z"/>
<path class="st19" d="M794.4,865.6c1.2,1.1,2,2.1,1,3.8c-1.8,3.1-0.2,10.9,4.2,12.5c1.1,0.4,2.3,0.4,3.3-0.1c6.8-2.3,7,0.6,12.2,6.2
	s10.5,2.6,12.5-2.1s6.5-1.7,7.7-7.2c0.3-1.3,0.3-2.6,0-3.9c-0.7-3.2-4.4-8.8-4.4-8.8c-1.4-0.5-2.8-0.8-4.2-1.1
	c-10.4-5.9-22.9-7-34.8-5.2l0,0C791.3,862.8,793,864.3,794.4,865.6z"/>
<path class="st7" d="M829.3,846l-2.6,18.8c0,0,5.6,13.8-6.7,12.7c-17.5-1.5-20.8-18.7-20.8-18.7l2.8-15.2L829.3,846z"/>
<path class="st8" d="M802,843.7l-1.2,6.8c11,6.7,24.7,6.2,27.1,6l1.4-10.5L802,843.7z"/>
<path class="st7" d="M849.8,839c-9.2,10.4-24.2,14-36.3,12c-5-0.7-9.8-2.6-13.9-5.6l0,0c-16.6-13.8-22.8-42.8-14.4-62
	c12.2-28,47.1-25.4,56.4,3.8c2,4.8,5.1,9.1,8.9,12.7C860.8,809.5,861.6,825.1,849.8,839z"/>
<path class="st20" d="M841.3,823.5l-16.3-7.3c0,0-0.5,8.7,5.9,10.8C837,828.9,841.3,823.5,841.3,823.5z"/>
<path class="st8" d="M790.4,823.8c0,0,1.5,11.8,12,23.5c-1-0.6-1.9-1.2-2.8-1.9l0,0c-16.6-13.8-22.9-42.8-14.4-62
	c6.2-16.4,26.7-26.3,43.2-14.7c0,0,8.4,24.8-36.5,46.4L790.4,823.8z"/>
<path class="st14" d="M823.5,765.7c0,0,7.2,26.1-33.4,45.4l-10.1,6.2c-5.4-12.1-6.1-25.7-2-38.3C785,758.3,817.8,750.1,823.5,765.7z
	"/>
<path class="st13" d="M841.4,824.2c-0.1,0-0.3,0-0.4,0l-16.3-7.3c-0.4-0.1-0.6-0.5-0.4-0.9c0.1-0.4,0.5-0.6,0.9-0.4
	c0,0,0.1,0,0.1,0.1l16.3,7.3c0.3,0.2,0.5,0.6,0.3,0.9C841.9,824.1,841.7,824.2,841.4,824.2z"/>
<path class="st7" d="M774.8,819c1.5,5.8,6.5,9.5,11.2,8.2s7.2-6.9,5.6-12.7s-6.5-9.4-11.2-8.2S773.3,813.2,774.8,819z"/>
<path class="st13" d="M785.5,810.7c-15.9-4.8-2.8,23-6.7,4.2c4.1,0.5,6.3,5,6.3,5c3.5,1.7-0.9-5.9-6-6.4
	C780,809.5,787.9,813.8,785.5,810.7z"/>
<path class="st21" d="M782.7,825c0,0.9,0.8,1.5,1.6,1.5c0.9,0,1.5-0.8,1.5-1.6c0-0.9-0.8-1.5-1.6-1.5
	C783.3,823.4,782.7,824.1,782.7,825C782.7,825,782.7,825,782.7,825z"/>
<path class="st7" d="M653.2,1090.9c-3.9,0.4-3.4-8.8-5.7-11.5c-2.1,3.7-3.8,7.6-5,11.7c-0.6,7.7-0.9,15.4-0.8,23.1
	c-5.8,10.2-5.7-19.3-6.2-22.2h-0.1c-2.4,7.7-4.2,15.6-5.5,23.6c-8.2,9.2-1-23-0.6-26h0c-3.4,6.9-6,14.2-7.8,21.8
	c-9.1,8.5,0.8-23.6,2.2-26.3l-0.1-0.1c-3.4,5.1-6.4,10.5-8.9,16.1c-9.7,6.7,2.9-19.8,4.4-22.2c0.2-2.2,6.1-14.6,13-24.7
	c2.5-3.7,17.6-3.1,19.2,1.1c1.5,3.9,3,16.9,3.2,18.9C655.8,1078,657.2,1088.4,653.2,1090.9z"/>
<path class="st19" d="M913.7,871.2c2.1,7.1-4.5,7.4-0.8,14.6s10.9,3.8,13.4,16.9c2.5,13,14,10.2,14.3,10.1l0,0
	c1.4-2.6,2.5-5.2,3.3-8c-22.7-11.1-22.4-39.8-22.4-39.8c-2.8-2.2-6.3-2-10.5-1C911.9,866.1,913,868.7,913.7,871.2z"/>
<path class="st18" d="M792,1367c-0.9,3.8-1.8,7.6-2.7,11.3c0,0,26.3,9.5,41.8,2.3c1.6-3.4,3.1-6.7,4.7-10
	C835.8,1370.7,822.5,1378,792,1367z"/>
<path class="st18" d="M598.9,1280.5c3,0.6,6.4,1.2,10.1,1.7c0,0-9.2-15-3.7-44.5c-4,0.9-8,1.8-12,2.6
	C587.2,1241.4,588.4,1263.1,598.9,1280.5z"/>
<path class="st7" d="M773.8,916.4c-51.3,24.1-73.3,51.3-99.1,100.4c-8.1,15.1-15.8,30.6-22.5,46.4c-4.8,12-23.9,5.6-20.5-6.8
	c9.4-37.6,23.8-73.8,42.9-107.6c18.6-31.3,47-55.8,78.6-73.3C780.7,861.5,801.5,902.7,773.8,916.4z"/>
<path class="st15" d="M768.2,925.5c-17.5,4.4-32.4,27.5-43.7,35.4c-3.3,2.3-6.8,4.2-10.6,5.6c-3,1.2-6.3,1.9-9.5,2
	c-6.6-18.4-27.8-22.9-27.8-22.9c-3.3-3.1-5.1-7.5-5.1-12c-0.3-16.9,22.1-36.6,49.4-57.4c33.4-25.5,68.3-16.1,68.3-16.1
	C804.9,889.9,785.8,921.1,768.2,925.5z"/>
<path class="st19" d="M784.2,906.7c-1.7,2.8-28.1,47.6-64.8,67c0.7-3.8,1.3-7,2.1-10.8C721.5,962.9,761,940.5,784.2,906.7z"/>
<path class="st19" d="M868,933.5c-3.2,0-6.5-0.1-9.6-0.3c-0.4-11.7-3.7-23.2-9.5-33.4C859.1,911,865,924.9,868,933.5z"/>
<path class="st19" d="M714,966.5c-3,1.2-6.3,1.9-9.5,2c-6.6-18.4-27.8-22.9-27.8-22.9c-3.3-3.1-5.1-7.5-5.1-12
	c6.5-0.5,8,8.7,13.9,9.4s9-2,13.6,1.1s2.2,10.1,5.9,14.3S713.9,959.5,714,966.5z"/>
<path class="st19" d="M846.3,1037.6c-87,17.5-134.4-6.9-134.4-6.9c-0.5,0.2-0.5-2.9,0.1-8.3c4.6-0.9,9.3,0.2,13,2.9
	c10.3,7.2,5.4,9.9,18,9.4s7.8-5.5,15.7-2.2s9,9.2,16.4,7.4s6.4-4.8,12-3.9s9.7,6.3,17.2,4.2s8.4-7.5,13.6-7.2s9.8,4.9,14.4,4
	c4-0.8,6.8-8.1,13.5-9.6C846.3,1034.3,846.3,1037.6,846.3,1037.6z"/>
<path class="st8" d="M1555.2,643.5c0,0,9.6-15.4,23.5-19.1s32.9-0.4,32.9-0.4s-5.4,4.6-3.4,19.6c0,0-18,1.1-27.6,0.5
	S1555.2,643.5,1555.2,643.5z"/>
<path class="st22" d="M1747.5,418c0,0-13.7-0.3-21.2,14.3c-8.9,17.3,2.4,30.4-1,42.1s-9.2,19.9-4.7,31.6s-3,19,0.9,28.6
	s9.8,9.3,9.6,22.2s11,23.9,21.4,16.2s16.2,9.1,32.8-1.3s17.3-22.8,36.6-26.2s11.6-30.2,28-40.2s14.9-25.6,1.3-36.3
	s-22.6-13.3-32.5-39.1C1807.6,400.8,1765.8,388.2,1747.5,418z"/>
<path class="st8" d="M1804.2,554.2c-13.9,37.7-36.6,79-77.4,92.1c-39,9.5-79.2,5.2-117.8-2.6c-14.2-0.5-15.1-19.9-0.5-19.8
	c34.8,1.6,71.3,1.6,104.6-8.9c29.5-10.9,42.7-45.1,53.1-72.7C1774.1,516.7,1812.2,528.6,1804.2,554.2z"/>
<path class="st9" d="M1795.3,607.4c-1.9,4.5-4.2,8.8-6.7,13c-3.9,6.3-8.6,12.2-13.9,17.4c-1,1-2,1.9-3,2.8
	c-21.2,19.2-49.2,27.5-72.5,27.9c-25.9,0.5-62-8-78.6-16.6c-5.2-2.7-8.5-5.4-9-7.8c-2.3-10.3,2.9-20,2.9-20c1.7-2,5.4-3.7,10.3-5
	c17.4-4.8,50.1-6.1,63.3-9c16.9-3.8,43.2-13.7,58.7-47.6c9.3-20.3,19-30.3,25.3-35.1c2.1-1.7,4.6-3.1,7.2-4
	c7.4,9.5,13.1,20.1,16.9,31.5c0.5,1.4,0.9,2.9,1.3,4.3C1801.6,573.4,1802.7,590.2,1795.3,607.4z"/>
<path class="st10" d="M1788.6,620.4c-4.7,7.5-10.3,14.3-16.9,20.2c-5-6.3-14.5-20.4-15.8-36.7c-1.8-22.2,14.5-48.4,14.5-48.4
	L1788.6,620.4z"/>
<path class="st7" d="M2027.7,1077.6l51.9-42.7c-1.4-3.5-14.3-14-17.6-19c-1.6-2-18-21.1-19.4-23.2l-19.4-18.5l-22.9,18.8l36.4,34.5
	c4.3,4.1,5.1,10.7,1.9,15.7c-6.6,11.5-18.9,18.7-19,31.2c0.3,2.7,2.7,4.6,5.4,4.3C2026,1078.6,2027,1078.2,2027.7,1077.6z"/>
<path class="st5" d="M2077.1,1028.6c1.3,1.9,2.1,4.1,2.5,6.3l-52.5,43.1c-2,1.7-5.1,1.4-6.8-0.6c-0.3-0.4-0.6-0.9-0.8-1.4
	c-2.6-7.3-2.4-21.1,20.7-42.2c0,0,10.2-4.3,21.8-17.9C2062.1,1015.9,2072.1,1020.8,2077.1,1028.6z"/>
<path class="st16" d="M2019.6,1075.9l57.6-47.3c1.3,1.9,2.1,4.1,2.5,6.3l-52.5,43.1c-2,1.7-5.1,1.4-6.8-0.6
	C2020,1076.9,2019.8,1076.4,2019.6,1075.9z"/>
<path class="st7" d="M1774.6,511.5l4.7,12c0,0,6.3,70.9,18.4,70.9c21.4,0,7.3-76.3,8.4-80.5c0,0-3.9-8-5.2-11.8L1774.6,511.5z"/>
<path class="st7" d="M1769.5,1093.6l67.2,0.1c1.2-3.6-2.1-19.8-1.5-25.8c0-2.5,0.9-16.3,1.1-18.9l-4.6-38h-29.6l6.2,49.7
	c0.7,5.9-2.8,11.5-8.5,13.3c-12.4,4.7-26.5,2.4-34.5,12c-1.5,2.3-0.8,5.3,1.5,6.8C1767.7,1093.4,1768.6,1093.6,1769.5,1093.6z"/>
<path class="st5" d="M1838.8,1087.3c-0.2,2.3-0.9,4.5-2.1,6.5l-67.9-0.1c-2.7,0-4.8-2.1-4.8-4.8c0-0.5,0.1-1.1,0.3-1.6
	c2.6-7.3,11.6-17.8,42.8-19.4c0,0,10.6,3.2,28.2,0C1835.3,1067.9,1839.9,1078.1,1838.8,1087.3z"/>
<path class="st16" d="M1764.3,1087.2l74.5,0.1c-0.2,2.3-0.9,4.5-2.1,6.5l-67.9-0.1c-2.7,0-4.8-2.2-4.8-4.8
	C1764,1088.2,1764.1,1087.7,1764.3,1087.2z"/>
<path class="st8" d="M1793.2,474.1c0.1,0.5,0.2,1,0.3,1.5c-0.8-0.2,3.8,17,8.4,28.9c-9.3,9.4-22.6,12.2-25,12.5
	c-6-15-10-29.6-11.1-39.1C1764.7,461.6,1789.7,458.1,1793.2,474.1z"/>
<path class="st7" d="M1803.8,455.1c3.4,12.2,5.5,26.8,0,38.5l0,0c-15.1,33.6-80.3,22.3-68.2-17.1c4.3-10.5,0.2-23.5,3.1-33.2
	C1749.7,406.1,1796.5,423.3,1803.8,455.1z"/>
<path class="st20" d="M1757.3,490.7l8.6-7.2C1768.1,489.1,1762.8,494.3,1757.3,490.7z"/>
<path class="st13" d="M1757.3,491.1c0.3,0,8.6-7.2,8.8-7.3c0.2-0.1,0.2-0.4,0.1-0.6c0,0,0,0,0,0c-0.2-1.1-8.9,7.2-9.2,7.2
	c-0.2,0.1-0.2,0.4-0.1,0.6C1757,491.1,1757.2,491.1,1757.3,491.1z"/>
<path class="st5" d="M1778.9,1031.2c1.1,7.9,1.8,12.2,1.8,12.2c28.3,9.4,66.2,11.5,91.5,1.9c-20.8-72-12.3-267.6,2.4-291.7
	c0,0,51.6,172.9,103.4,269.5c2.2,4.1,4.4,8,6.6,11.8c3.3,5.7,58.9,0.7,89.3-51.7c0,0-3.2-3.8-8.3-10.7
	c-15.2-20.6-47.3-62.7-60-120.1c-28.3-127.8-61.3-186-85.4-208.4c-33.4-30.9-102.5,6-124.8,50.3
	C1764.1,792.5,1766.7,950.6,1778.9,1031.2z"/>
<path class="st8" d="M1803.8,455.1c3.4,12.2,5.5,26.8,0,38.5l0,0c2.1-8.5-1.1-23.8-1.1-23.8l-5.2-5.1c-45.5,5.5-56.5-27.7-56.5-27.7
	C1756.2,406.4,1797,426.7,1803.8,455.1z"/>
<path class="st22" d="M1743.7,432.2c0,0,11.2,32.8,52.6,29.3l9.5-12.9C1806.9,418.6,1768,393.4,1743.7,432.2z"/>
<path class="st7" d="M1813.7,457.5c3.4,14-14.4,18.1-17.5,4C1792.9,447.5,1810.7,443.4,1813.7,457.5z"/>
<path class="st13" d="M1810.8,462.1c1.4-4-2.3-9.2-4.1-9.5c-3.5-0.9-7.6,2.4-6.7,3.5c1.4,0.9,2.8-3,6.2-2.1
	C1809.6,454.7,1808.7,461.8,1810.8,462.1z"/>
<path class="st13" d="M1804.2,464c1.3-0.7-0.4-5.8,4.4-8.6c0.4-0.2,0.5-0.6,0.3-1c0,0,0,0,0,0C1804.1,453.4,1801.9,465.4,1804.2,464
	z"/>
<path class="st21" d="M1809.3,466.8c0.4,0.8,0,1.8-0.8,2.1c-0.8,0.4-1.8,0-2.1-0.8l0,0c-0.4-0.8,0-1.8,0.8-2.1
	C1808,465.6,1808.9,466,1809.3,466.8z"/>
<path class="st9" d="M1920.1,644c-31.4,26.1-79.6,53.7-124.8,50.3c0,0-6.2-3.3-5.8-12.6c1-21.3-6.9-33-14.8-43.9
	c-10.7-14.8-21.5-28.2-10.3-62.4c2.8-8.3,6.8-22.6,10.2-34.9c1.8-6.8,3.7-12.9,4.8-17.1c6.6,26.3,12.4,34.8,16.9,31.5
	c4.9-3.5,8.1-21,8.1-44.9c2.9-0.5,5.8-0.7,8.7-0.6c35.3,0.9,67.6,41.6,92.9,89.6c2.3,4.4,4.6,8.9,6.8,13.5c1.4,2.2,2.9,4.5,4.2,6.8
	c2,3.4,3.6,7,4.6,10.8C1922.9,634.8,1922.4,639.7,1920.1,644z"/>
<path class="st23" d="M1978,1023c2.2,4.1,4.4,8,6.6,11.8c3.3,5.7,58.9,0.7,89.3-51.7c0,0-3.2-3.8-8.3-10.7
	C2065.5,972.5,2038.9,1016.7,1978,1023z"/>
<path class="st10" d="M1921.3,641.1c0,0-66.7,52.2-128.1,51.5c0,0-0.5,1.7,1,5.1c0,0,60.9,6.4,128.6-51.2c1.1-1.8,0.6-4.2-1.2-5.3
	C1921.5,641.2,1921.4,641.2,1921.3,641.1z"/>
<path class="st23" d="M1858.5,1049.1c4.7-0.9,9.2-2.1,13.7-3.8c-10.6-58-12.6-107.5-12.3-150.5c0.6-86.9,14.7-141.2,14.7-141.2
	s-9.2-4.8-12.8-13.2C1861.7,740.3,1821.7,906.8,1858.5,1049.1z"/>
<path class="st23" d="M1778.9,1031.2c1.1,7.9,1.8,12.2,1.8,12.2c28.3,9.4,66.2,11.5,91.5,1.8c-0.7-3.6-1.3-7.1-1.9-10.7
	C1869.4,1029.3,1822.8,1045.1,1778.9,1031.2z"/>
<path class="st10" d="M1921.7,630.1c-7.1-8.9-22-23.9-47.2-34.1c-37.7-15.3-48.2-47.8-48.2-47.8L1906,599c2.3,4.4,4.6,8.9,6.8,13.5
	C1916.4,617.9,1920.2,623.9,1921.7,630.1z"/>
<path class="st7" d="M1858.3,515.7c28.2,19,56.1,38.7,80.6,62.5c18,19.2,31.1,42.3,42.2,65.9c3,10.5,18.8,28.8,4.2,36
	c-10,3.6-13.6-8.1-18.1-14.5c-6.4-10.1-13.3-20.1-20.4-29.6c-9.8-12.8-20.5-25.5-32.8-35.4c-8.1-6.1-17.8-12.9-26.3-18.6
	c-16.3-10.9-34.4-22.4-51-32.9C1814.5,534.8,1835.8,501.6,1858.3,515.7z"/>
<path class="st7" d="M1970.8,699.5c3.3,1,3.3-8.8,5.3-11.3c2.1,3.6,3.8,7.3,5.1,11.3c0.8,7.5,1.1,15,1.1,22.5c0,2.4,3.7,2.7,4,0.2
	c0.9-7.3,1.5-14.6,1.7-22h0.1c2.5,7.5,4.4,15.1,5.8,22.9c8.1,9.3,0.6-22.7,0.1-25.3l0,0c3.5,6.7,6.1,13.8,8,21.1
	c9,8.5-1.2-23.1-2.6-25.6l0.1-0.1c3.4,4.9,6.4,10.1,8.9,15.5c9.4,6.5-3-18.9-4.4-21.1c-0.8-2.8-5.3-11.8-14.7-22.4
	c-2.9-3.3-13.9,2.3-15.3,6.3c-1.3,3.8-1.7,9.3-1.9,11.3C1971.1,686.2,1966.9,697.9,1970.8,699.5z"/>
<path class="st9" d="M1987.3,657.4c0,0-8.2,12.7-18.1,11c-1-0.2-4.2-1.5-8.4-4.1c-8.6-5.3-16.3-12-22.5-20c-5.5-7-11.5-15.7-21.2-25
	c-9.9-9.5-21.2-24.3-42.1-33.6c-29.5-13.2-42.2-22.3-52.7-45.2c-4.2-9.1-16.9-16-17.9-30.4c2.8-1,5.7-1.9,8.7-2.5
	c13.7-3.1,42-6.2,74.4,9.3c39.1,18.8,94.8,87,101.1,124.8C1989.5,647.9,1989.2,653.2,1987.3,657.4z"/>
<path class="st10" d="M1812.2,544.8c-0.7,9.4-0.8,16.2-4.3,18.1c-4.5,2.4-8.6-1.7-10.3-3.6c-0.3-0.3-0.6-0.6-0.8-1
	c0,0-2.2,13.8-10.4,8.5c-6.3-4.1-9.7-16.9-11.8-26.3c-1-4.3-1.8-8.7-2.4-13.2c4.2-3.4,7.2-4,7.2-4c6.6,26.3,12.4,34.8,16.9,31.5
	c4.9-3.5,8.1-21,8.1-44.9c2.8-1,5.7-1.9,8.7-2.5l0,0c0,0,0,0.7,0,1.9C1813.2,515,1813.2,531.5,1812.2,544.8z"/>
<path class="st10" d="M1620.6,651.9c-5.2-2.7-8.5-5.4-9-7.8c-2.3-10.3,2.9-20,2.9-20c1.7-2,5.4-3.7,10.3-5
	C1624.8,619.1,1615.1,636,1620.6,651.9z"/>
<path class="st10" d="M1987.3,657.4c0,0-8.2,12.7-18.1,11c-1-0.2-4.2-1.5-8.4-4.1c1.2-1.2,16.8-4.2,27.7-22.6
	C1989.5,647.9,1989.2,653.2,1987.3,657.4z"/>
</svg>
