<svg width="725" height="417" viewBox="0 0 725 417" fill="none" xmlns="http://www.w3.org/2000/svg">
<path d="M47.02 416.006C47.02 416.006 -36.6336 317.104 32.8711 210.022C94.5424 115.034 166.444 121.519 219.198 160.071C241.667 176.492 306.448 162.096 361.583 65.4243C436.772 -66.4124 697.404 13.5631 649.884 216.368C626.886 314.522 719.872 318.09 672.492 416.206L47.02 416.006Z" fill="#EBF3FA"/>
<path d="M172.875 281.982L107.67 341.986L167.692 407.171L232.898 347.167L172.875 281.982Z" fill="#DFEBFD"/>
<path d="M172.878 281.985L107.672 341.989L119.761 355.117L184.966 295.113L172.878 281.985Z" fill="#BED7FB"/>
<path d="M247.056 25.2237L291.772 31.5999L262.098 11.3795L260.591 17.8621L249.716 19.8301L247.056 25.2237Z" fill="#9EC3F6"/>
<path d="M291.772 31.5999L254.562 12.4194L218.093 10.5879L291.772 31.5999Z" fill="#CDE0FB"/>
<path d="M262.098 11.3795L291.772 31.5999L268.801 0L262.098 11.3795Z" fill="#CDE0FB"/>
<path d="M497.097 113.41L485.851 121.478L474.544 113.497C475.817 111.695 477.503 110.223 479.461 109.204C481.418 108.186 483.591 107.65 485.798 107.641C488.005 107.633 490.182 108.152 492.148 109.155C494.113 110.159 495.81 111.617 497.097 113.41Z" fill="white"/>
<path d="M485.851 87.9813C480.483 87.9815 475.194 89.2742 470.431 91.75C465.669 94.2258 461.573 97.8119 458.49 102.205L465.63 107.216C467.903 103.989 470.916 101.352 474.417 99.5279C477.919 97.7035 481.806 96.7441 485.755 96.7299C489.703 96.7157 493.598 97.6473 497.112 99.4465C500.626 101.246 503.658 103.86 505.955 107.072L513.054 101.973C509.959 97.6463 505.877 94.12 501.146 91.6867C496.415 89.2533 491.171 87.983 485.851 87.9813Z" fill="white"/>
<path d="M485.851 50.6166C461.93 50.6166 440.775 62.501 427.953 80.677L435.093 85.6884C440.8 77.5843 448.365 70.9644 457.156 66.3827C465.947 61.801 475.708 59.3907 485.622 59.3535C495.536 59.3164 505.314 61.6535 514.139 66.1692C522.964 70.6849 530.579 77.2479 536.347 85.309L543.426 80.2103C536.88 71.0512 528.24 63.5874 518.225 58.4401C508.211 53.2927 497.111 50.6105 485.851 50.6166Z" fill="white"/>
<path d="M485.851 71.0554C477.765 71.0529 469.796 72.9877 462.613 76.6977C455.429 80.4077 449.239 85.7848 444.562 92.3786L451.702 97.39C455.564 91.9703 460.661 87.5473 466.572 84.4869C472.482 81.4264 479.037 79.8162 485.693 79.7896C492.35 79.7629 498.917 81.3205 504.852 84.3335C510.787 87.3465 515.919 91.7284 519.825 97.117L526.905 92.0483C522.216 85.5468 516.048 80.2527 508.91 76.6027C501.772 72.9527 493.868 71.0513 485.851 71.0554Z" fill="white"/>
<path d="M370.366 162.367L360.056 162.129C363.368 166.423 364.111 170.378 362.049 173.722C359.988 177.136 355.052 179.942 347.682 182.071C356.597 158.156 358.449 132.183 353.019 107.245C347.589 82.3072 335.105 59.4544 317.053 41.4071C292.367 16.7294 258.999 2.40473 222.898 2.40473C202.934 2.36116 183.218 6.83273 165.227 15.4847H165.21C159.477 13.7378 153.904 12.3048 148.519 11.2157C121.344 5.71021 102.062 9.52064 94.2366 21.9564C86.7854 33.7781 90.8428 51.5719 105.633 72.3274C102.137 78.8324 99.1852 85.6158 96.8086 92.6078C69.0188 94.2619 54.1436 99.1587 48.7347 108.008C42.4548 118.315 51.0337 132.151 78.5178 145.602C82.3048 147.461 86.3622 149.284 90.6216 151.11C93.9144 180.043 107.094 208.065 128.721 229.688C140.864 241.827 155.233 251.511 171.042 258.212C219.613 278.683 277.528 269.105 317.058 229.688C328.895 217.877 338.391 203.934 345.045 188.595C358.601 185.789 367.527 181.394 371.076 175.58C373.555 171.56 373.241 167.1 370.366 162.367ZM338.555 184.168C329.528 185.789 318.268 186.736 305.118 186.87C284.711 187.118 261.274 185.505 236.585 182.254C238.664 177.732 240.698 173.092 242.688 168.333C249.957 170.794 257.371 172.809 264.886 174.366C273.012 176.003 280.427 176.822 287.048 176.822C302.565 176.822 313.681 172.346 319.171 163.633C320.075 162.199 320.816 160.668 321.38 159.069H313.462C313.331 159.31 313.189 159.547 313.044 159.779C308.968 166.251 299.854 169.605 287.057 169.592C280.938 169.592 273.97 168.828 266.306 167.272C259.235 165.809 252.26 163.923 245.415 161.624C247.318 156.86 249.165 152.011 250.958 147.076C255.78 133.786 259.908 120.613 263.245 107.962C290.303 111.949 318.574 112.056 345.73 110.022C347.456 118.415 348.323 126.962 348.316 135.53C348.354 152.232 345.035 168.772 338.555 184.168ZM173.765 250.165C169.918 248.77 167.963 243.251 167.001 238.865C165.483 231.934 165.21 222.215 166.21 210.718C166.715 204.909 167.526 198.735 168.621 192.274C184.515 196.519 200.084 201.901 215.206 208.379C211.783 214.283 208.32 219.758 204.856 224.72C198.259 234.175 191.807 241.469 186.199 245.814C182.649 248.574 177.612 251.56 173.765 250.165ZM218.69 202.21C202.861 195.384 186.549 189.736 169.887 185.314C170.47 182.317 171.107 179.269 171.799 176.17C176.395 177.213 181.053 178.222 185.773 179.197C199.583 182.022 213.35 184.419 226.843 186.359C224.176 191.881 221.451 197.193 218.69 202.21ZM188.82 174.197C183.485 173.105 178.231 171.959 173.057 170.76C175.49 160.642 178.48 150.092 181.967 139.34C200.105 150.485 218.554 159.553 236.012 165.986C233.828 171.216 231.582 176.304 229.273 181.25C216.012 179.347 202.436 176.994 188.82 174.197ZM144.525 37.594C154.606 58.2402 174.032 75.2616 194.939 86.5373C189.874 97.5647 185.049 109.345 180.615 121.585C179.789 123.863 178.982 126.138 178.196 128.408C151.711 111.169 129.27 91.385 114.556 72.24C122.344 58.9579 132.502 47.2152 144.525 37.594ZM257.814 18.4872C261.661 19.882 263.614 25.4011 264.575 29.7875C266.095 36.7178 266.368 46.4377 265.369 57.9345C264.277 70.504 261.757 84.7822 257.997 99.9858C239.57 96.8168 221.159 91.5897 204.208 83.3656C211.436 68.3013 219.075 54.8692 226.715 43.921C233.312 34.4659 239.764 27.1726 245.372 22.8272C248.299 20.5589 252.239 18.1323 255.687 18.1323C256.411 18.126 257.131 18.2461 257.814 18.4872ZM256.258 106.845C253.006 119.076 248.998 131.818 244.332 144.682C242.533 149.641 240.674 154.516 238.753 159.307C221.222 152.873 202.611 143.669 184.318 132.301C185.262 129.537 186.239 126.765 187.247 123.987C191.583 112.034 196.29 100.529 201.224 89.7582C218.491 98.1106 237.197 103.515 256.258 106.845ZM311.576 46.8471C327.181 62.3985 338.4 81.796 344.094 103.076C315.18 105.191 288.684 104.528 265.001 101.099C268.758 85.7485 271.28 71.3065 272.397 58.5514C273.623 44.4642 273.489 27.7785 267.756 18.3917C284.208 24.6769 299.143 34.3749 311.576 46.8471ZM222.898 10.1102C231.495 10.1017 240.069 10.9761 248.487 12.7197C238.633 17.0078 228.572 28.9413 220.935 39.8868C213.12 51.0779 205.314 64.7966 197.945 80.1393C178.049 69.333 159.255 52.7647 150.272 33.2485C171.482 18.1667 196.87 10.0779 222.898 10.1102ZM100.347 25.8051C104.424 19.3333 113.538 15.9787 126.335 15.9787C132.454 15.9787 139.422 16.743 147.086 18.2961C149.998 18.8857 152.964 19.5781 155.982 20.3733C137.715 30.9639 121.622 46.2493 109.641 65.4025C98.3322 48.6295 94.9274 34.3977 100.347 25.8051ZM110.791 79.1594C126.289 98.5118 149.117 118.309 175.812 135.473C172.028 146.983 168.801 158.297 166.193 169.141C144.077 163.789 118.354 156.22 98.0455 147.633C95.7117 124.062 100.132 100.313 110.791 79.1594ZM84.6584 141.617C60.6883 129.921 49.7313 118.634 54.646 110.623C58.6023 104.135 73.0051 99.7401 95.0557 98.1188C90.5916 113.123 89.0489 128.701 89.9663 144.117C88.1397 143.306 86.3813 142.46 84.6584 141.617ZM164.932 174.57C164.249 177.618 163.619 180.621 163.04 183.578C161.502 183.205 159.963 182.841 158.423 182.486C132.402 176.566 112.877 175.362 103.815 175.157C101.573 168.412 99.9218 161.485 98.881 154.454C116.626 161.275 136.571 167.815 164.932 174.57ZM106.447 182.317C116.102 182.704 133.997 184.168 156.858 189.37C158.496 189.741 160.135 190.132 161.773 190.53C160.596 197.389 159.728 203.946 159.193 210.106C158.177 221.781 158.1 235.24 161.361 244.853C136.504 230.822 117.144 208.775 106.447 182.317ZM184.858 255.086C194.142 250.222 203.463 239.056 210.641 228.765C214.346 223.459 218.046 217.574 221.702 211.245C242.914 220.87 263.126 232.561 282.044 246.15C267.26 254.045 251.045 258.903 234.354 260.438C217.664 261.972 200.835 260.153 184.858 255.086ZM311.576 224.215C304.703 231.114 297.045 237.182 288.758 242.296C268.883 227.756 247.574 215.284 225.164 205.073C228.222 199.469 231.237 193.552 234.174 187.372C254.54 190.072 274.12 191.69 291.996 192.108C296.659 192.244 301.189 192.244 305.585 192.209C316.979 192.075 327.122 191.39 335.81 190.181C329.706 202.808 321.512 214.315 311.576 224.215Z" fill="#ADCBF9"/>
<path d="M307.163 183.144L288.747 402.053C288.747 402.053 286.816 415.321 296.689 415.346C312.924 415.384 377.49 415.346 377.49 415.346C377.49 415.346 365.271 412.584 365.422 406.368C365.596 399.042 386.945 181.078 386.945 181.078L307.163 183.144Z" fill="#D86713"/>
<path d="M382.729 411.369C379.538 411.369 317.866 411.571 302.057 411.369C295.169 411.282 293.962 405.244 293.904 401.335C293.879 400.249 293.945 399.162 294.101 398.087L294.582 392.399L295.802 377.897L296.878 365.087L298.265 348.622L299.431 334.726L312.528 179.178L392.31 177.109C392.31 177.109 383.319 268.325 376.96 334.723C376.247 342.121 375.573 349.215 374.948 355.836C374.746 357.953 374.55 360.017 374.361 362.03C373.771 368.308 373.233 374.081 372.764 379.174C372.518 381.86 372.288 384.36 372.084 386.639C371.265 395.595 370.795 401.313 370.789 402.4C370.783 402.994 370.835 403.587 370.945 404.171C372.253 411.14 381.531 411.369 382.729 411.369Z" fill="#F99746"/>
<path d="M113.407 64.0241L158.264 244.155L164.405 268.824L185.298 352.722H573.452L496.445 64.0241H113.407Z" fill="#F99746"/>
<path d="M113.404 64.0241L107.187 66.0958L177.033 358.989L185.301 352.722L113.404 64.0241Z" fill="#EE9849"/>
<path d="M177.033 358.989H562.799L573.453 352.722H185.301L177.033 358.989Z" fill="#D86713"/>
<path d="M312.504 415.422H396.026V411.454H312.504V415.422Z" fill="#F1A34F"/>
<path d="M554.648 299.526L491.666 67.84H112.784V64.0241H496.445L559.216 299.01L554.648 299.526Z" fill="#F1A34F"/>
<path d="M374.795 358.986L374.364 362.022L295.813 377.886L296.892 365.073L297.405 358.986H374.795Z" fill="#D86713"/>
<path opacity="0.4" d="M382.729 411.369C379.538 411.369 317.866 411.571 302.057 411.369C295.169 411.282 293.962 405.244 293.904 401.335L372.084 386.623C371.265 395.579 370.795 401.297 370.789 402.383C370.783 402.977 370.835 403.571 370.945 404.155C372.253 411.14 381.531 411.369 382.729 411.369Z" fill="#D86713"/>
<path opacity="0.4" d="M355.808 294.28L185.301 352.722L164.405 268.824L355.808 294.28Z" fill="#D86713"/>
<path d="M113.404 64.0241H496.445L558.594 296.046H169.213L113.404 64.0241Z" fill="#699DEE"/>
<path d="M389.665 325.378C388.572 319.689 383.046 315.076 377.356 315.076C371.666 315.076 367.947 319.689 369.053 325.378C370.159 331.066 375.669 335.682 381.362 335.682C387.054 335.682 390.77 331.069 389.665 325.378Z" fill="#D86713"/>
<path d="M540.53 285.993H181.888L141.27 124.243L138.16 111.84L135.501 101.26L133.377 92.7907L129.273 76.4517H482.744L482.992 77.3497L487.246 92.7907L489.583 101.26L492.502 111.84L495.923 124.243L540.53 285.993Z" fill="#E9F3FE"/>
<path d="M540.53 286.544H181.888L141.27 124.797L138.16 112.394L135.501 101.815L133.377 93.3421L129.273 77.0058H482.744L482.992 77.9038L487.246 93.3421L489.583 101.815L492.502 112.394L495.923 124.797L540.53 286.544Z" fill="#E9F3FE"/>
<path d="M487.246 92.7907H133.377L129.273 76.4517H482.61L482.992 77.3497L487.246 92.7907Z" fill="#AFCDFB"/>
<path d="M139.105 84.6212C138.676 82.9098 139.719 81.5204 141.434 81.5204C143.149 81.5204 144.883 82.9098 145.309 84.6212C145.734 86.3326 144.694 87.7383 142.98 87.7383C141.265 87.7383 139.531 86.3354 139.105 84.6212Z" fill="#E9F3FE"/>
<path d="M155.147 86.9491C156.149 85.8158 155.781 83.8559 154.326 82.5716C152.872 81.2873 150.881 81.1649 149.88 82.2982C148.878 83.4315 149.246 85.3914 150.701 86.6757C152.155 87.96 154.146 88.0824 155.147 86.9491Z" fill="#E9F3FE"/>
<path d="M160.511 84.6212C160.083 82.9098 161.126 81.5204 162.84 81.5204C164.555 81.5204 166.289 82.9098 166.715 84.6212C167.141 86.3326 166.1 87.7383 164.386 87.7383C162.671 87.7383 160.937 86.3354 160.511 84.6212Z" fill="#E9F3FE"/>
<path d="M293.607 286.547H258.145C257.806 283.777 257.506 280.848 257.235 277.791C256.76 272.313 256.397 266.417 256.127 260.286C256.061 258.87 256.007 257.445 255.955 256.006C255.887 254.177 255.826 252.327 255.775 250.468C255.687 247.31 255.619 244.116 255.57 240.915C255.51 236.82 255.477 232.693 255.469 228.585C255.469 227.559 255.469 226.533 255.469 225.512C255.469 224.548 255.469 223.601 255.469 222.635C255.499 213.791 255.633 205.117 255.821 197.051C256.228 179.202 256.891 164.332 257.244 157.183C257.386 154.249 257.478 152.617 257.478 152.617C257.56 152.617 258.095 152.726 258.945 152.931C259.564 153.081 260.353 153.288 261.249 153.564C262.068 153.807 262.953 154.11 263.892 154.467C265.606 155.114 267.259 155.912 268.831 156.85L268.905 156.888C271.554 158.526 273.945 160.71 275.035 163.587C275.971 166.043 278.161 179.162 280.81 196.614C280.886 197.111 280.96 197.611 281.036 198.118C282.437 207.38 283.949 217.771 285.47 228.383C287.081 239.626 288.689 251.112 290.169 261.755C291.453 270.847 292.624 279.352 293.607 286.547Z" fill="#2B478B"/>
<path d="M283.676 286.547H242.398C241.607 283.143 240.864 279.86 240.214 276.778C238.401 268.289 237.211 261.332 237.273 257.595C237.268 256.809 237.427 256.031 237.743 255.312C238.058 254.592 238.521 253.947 239.103 253.419C239.968 252.653 240.972 252.06 242.06 251.672C245.541 250.351 250.546 250.135 255.783 250.468C257.563 250.58 259.368 250.741 261.148 250.968C267.522 251.784 273.839 252.993 280.064 254.587C280.064 254.587 280.673 257.044 281.394 261.351C281.94 264.58 282.538 268.849 282.986 273.89C283.259 276.819 283.455 280.01 283.573 283.411C283.6 284.434 283.635 285.479 283.676 286.547Z" fill="#233862"/>
<path d="M264.613 257.644L264.201 260.625L262.202 275.091L261.863 277.548L260.624 286.523H217.606C217.271 280.591 216.962 274.81 216.905 269.771C216.905 269.225 216.905 268.68 216.905 268.134C216.905 260.548 217.574 254.923 219.75 253.501C222.207 251.893 230.398 252.332 239.106 253.4C239.974 253.503 240.848 253.618 241.721 253.735C246.8 254.418 251.881 255.261 255.966 255.987C258.084 256.364 259.936 256.711 261.375 256.986C263.398 257.393 264.613 257.644 264.613 257.644Z" fill="#C65447"/>
<path d="M216.897 160.049C216.897 160.049 240.528 144.764 257.478 152.587C260.179 153.831 263.261 157.306 265.467 159.735C271.594 166.486 283.567 273.699 283.567 273.699C283.567 273.699 249.579 285.207 216.897 269.796V160.049Z" fill="white"/>
<path d="M258.824 152.199C258.824 152.199 282.748 162.001 285.989 169.532C289.23 177.063 299.761 223.304 299.761 228.735C299.761 234.167 281.424 229.947 278.464 221.202C276.007 213.939 267.745 191.625 263.387 177.51L258.824 152.199Z" fill="#2B478B"/>
<path d="M253.855 159.667C248.632 160.691 240.959 159.599 235.343 155.898C237.877 149.844 238.917 145.061 239.288 141.977C239.31 141.813 239.327 141.652 239.343 141.499C239.484 140.441 239.505 139.371 239.406 138.309H252.91C252.91 138.309 256.602 139.995 256.602 141.161C256.602 141.786 256.602 142.381 256.618 142.951C256.643 144.505 256.706 145.858 256.788 147.021C257.044 150.81 257.478 152.595 257.478 152.595C257.478 152.595 259.127 158.633 253.855 159.667Z" fill="#FFB27D"/>
<path d="M256.788 147.013C246.557 148.989 240.618 143.402 239.288 141.969C239.1 141.764 239.015 141.641 239.015 141.641C239.122 141.587 239.237 141.54 239.357 141.491C243.163 139.949 251.805 141.175 256.632 142.943C256.643 144.496 256.695 145.85 256.788 147.013Z" fill="#E2915A"/>
<path d="M235.944 136.081C237.77 145.908 250.467 145.594 255.952 144.974C257.497 144.802 258.467 144.606 258.467 144.606C260.209 144.142 261.181 141.401 261.631 137.809C262.527 130.712 261.396 120.274 260.195 117.61C258.388 113.598 254.983 109.255 242.199 112.389C229.415 115.522 233.601 123.479 235.944 136.081Z" fill="#FFB27D"/>
<path d="M260.673 112.119C258.925 109.7 255.212 106.747 251.856 104.926C244.626 101.018 235.376 105.049 235.338 105.065C224.894 109.657 222.169 117.643 227.693 130.084C233.547 143.238 239.122 141.759 239.122 141.759C239.122 141.759 237.94 141.022 238.046 136.922C238.046 136.69 238.046 136.496 238.071 136.327C238.105 135.911 238.044 135.494 237.893 135.105C237.742 134.717 237.505 134.367 237.2 134.083C235.903 132.926 235.272 129.427 236.359 128.452C237.667 127.276 239.51 128.706 240.097 129.817C240.208 130.006 240.358 130.171 240.536 130.3C240.714 130.429 240.917 130.52 241.132 130.568C241.347 130.615 241.569 130.618 241.785 130.575C242.001 130.533 242.206 130.447 242.387 130.322C245.639 128.269 243.529 124.161 246.633 121.647C249.738 119.133 256.039 121.243 260.7 119.24C266.797 116.944 261.989 113.942 260.673 112.119Z" fill="#233862"/>
<path d="M262.349 286.547H210.895C211.261 275.88 211.733 263.144 212.233 250.244C212.359 246.901 212.492 243.543 212.621 240.213C212.681 238.802 212.733 237.399 212.787 235.996C213.926 207.36 215.054 181.501 215.291 180.106C215.837 176.956 216.342 174.273 216.894 171.942C218.51 165.159 220.52 161.439 224.902 158.24C225.328 157.915 228.831 156.152 231.919 154.612C234.442 153.362 236.684 152.267 236.752 152.237C237.263 152.483 237.825 153.195 238.418 154.246C239.128 155.568 239.749 156.935 240.274 158.341C242.628 164.381 245.167 173.626 246.931 180.526C246.931 180.534 246.931 180.541 246.931 180.548C246.932 180.55 246.932 180.553 246.932 180.555C246.932 180.557 246.932 180.56 246.931 180.562C248.067 185.019 248.883 188.477 249.115 189.485C249.511 191.166 250.03 194.42 250.644 198.825C251.463 204.83 252.468 212.986 253.517 222.239C253.626 223.192 253.735 224.15 253.841 225.122C253.967 226.23 254.093 227.351 254.218 228.484C254.259 228.85 254.3 229.216 254.336 229.576C254.742 233.242 255.155 237.02 255.553 240.866C255.9 244.035 260.708 246.325 261.042 249.559C261.066 249.794 261.091 250.269 261.123 250.924C261.183 252.289 261.26 254.456 261.347 256.962C261.386 258.075 261.426 259.26 261.47 260.466C261.659 265.835 261.888 271.718 262.153 274.548C262.153 274.682 262.177 274.851 262.186 275.058C262.216 275.623 262.24 276.453 262.262 277.499C262.322 279.759 262.344 282.933 262.349 286.547Z" fill="#2B478B"/>
<path d="M227.25 191.657C227.234 191.723 226.431 220.612 248.17 224.123C269.91 227.633 255.463 228.561 255.463 228.561C255.463 228.561 214.562 226.822 213.888 225.744C213.213 224.666 227.25 191.657 227.25 191.657Z" fill="#233862"/>
<path d="M245.618 236.526C245.618 236.526 245.208 236.815 244.427 237.32L244.386 237.344C241.069 239.46 231.226 245.23 216.894 249.098C215.389 249.505 213.836 249.892 212.233 250.247C212.359 246.906 212.492 243.549 212.621 240.219C210.811 240.088 209.011 239.839 207.234 239.473C207.291 239.034 207.351 238.595 207.408 238.152C209.23 237.404 211.043 236.684 212.79 236.001C214.213 235.456 215.589 234.91 216.886 234.424C222.772 232.188 227.138 230.676 227.138 230.676L244.564 236.193L245.618 236.526Z" fill="#233862"/>
<path d="M250.229 236.042C250.229 236.042 247.99 236.602 244.427 237.32C244.414 237.317 244.401 237.317 244.389 237.32C237.814 238.638 226.764 240.492 216.894 240.391C215.439 240.374 214.008 240.32 212.621 240.21C210.811 240.08 209.011 239.831 207.234 239.465C203.627 238.704 200.604 237.415 198.628 235.401C183.946 220.451 206.641 166.791 211.411 161.57C216.984 155.475 227.152 153.337 232.766 152.603L233.443 152.516C235.417 152.281 236.684 152.243 236.755 152.229C236.755 152.229 236.315 153.646 235.575 156.051C235.302 156.979 234.958 158.057 234.592 159.258C231.144 170.547 224.49 192.736 221.557 205.25C220.484 209.828 219.919 213.112 220.17 214.091C221.314 218.363 233.178 220.56 240.695 221.535C243.829 221.939 246.207 222.13 246.74 222.171C246.777 222.168 246.814 222.168 246.852 222.171L247.286 223.953L248.326 228.225L249.35 232.426L250.229 236.042Z" fill="#2B478B"/>
<path d="M291.182 261.763L240.755 259.637L250.985 196.813L301.413 198.937L291.182 261.763Z" fill="#F99746"/>
<path d="M246.865 222.182C246.865 222.182 256.695 221.497 257.173 223.784C258.322 229.118 248.736 233.496 245.628 233.196C242.521 232.895 244.594 221.827 246.865 222.182Z" fill="#FFB27D"/>
<path d="M298.655 211.698C298.655 211.698 289.263 208.761 288.255 210.879C285.904 215.792 294.218 222.277 297.309 222.703C300.4 223.129 300.927 211.872 298.655 211.698Z" fill="#FFB27D"/>
<path d="M237.776 149.085C237.776 149.085 233.645 151.05 231.575 154.02C231.575 154.02 247.013 180.813 246.942 180.562C246.871 180.311 241.724 152.516 237.776 149.085Z" fill="#233862"/>
<path d="M257.001 149.461C258.366 149.975 260.968 152.644 261.555 154.121L263.392 177.51C263.392 177.51 259.474 160.344 257.478 152.587C257.194 151.568 257.034 150.519 257.001 149.461Z" fill="#233862"/>
<path d="M267.701 197.52C267.701 197.52 268.1 195.776 270.396 195.978C272.692 196.18 285.585 196.816 285.585 196.816C285.585 196.816 288.072 196.775 287.843 198.367L267.701 197.52Z" fill="#C65447"/>
<path d="M252.91 138.3C253.52 138.78 254.226 139.123 254.98 139.304C255.734 139.485 256.518 139.501 257.279 139.351C258.879 139.078 259.777 136.99 259.777 136.99C259.777 136.99 256.695 136.436 252.91 138.3Z" fill="white"/>
<path d="M491.855 157.849L454.607 157.986L442.528 111.758L479.776 111.619L491.855 157.849Z" fill="white"/>
<path d="M470.539 117.695L454.921 117.752L454.741 117.067L470.359 117.01L470.539 117.695Z" fill="#ADCBF9"/>
<path d="M473.032 119.595L453.425 119.668L453.244 118.983L472.854 118.91L473.032 119.595Z" fill="#ADCBF9"/>
<path d="M478.424 129.004L452.955 129.096L452.775 128.414L478.247 128.318L478.424 129.004Z" fill="#ADCBF9"/>
<path d="M479.014 131.258L453.542 131.351L453.365 130.666L478.834 130.573L479.014 131.258Z" fill="#ADCBF9"/>
<path d="M479.601 133.51L454.132 133.606L453.954 132.92L479.423 132.828L479.601 133.51Z" fill="#ADCBF9"/>
<path d="M480.191 135.765L454.722 135.86L454.541 135.175L480.013 135.079L480.191 135.765Z" fill="#ADCBF9"/>
<path d="M480.78 138.019L455.309 138.112L455.131 137.43L480.6 137.334L480.78 138.019Z" fill="#ADCBF9"/>
<path d="M482.214 143.506L456.742 143.598L456.565 142.913L482.034 142.82L482.214 143.506Z" fill="#ADCBF9"/>
<path d="M482.801 145.757L457.332 145.853L457.154 145.168L482.623 145.075L482.801 145.757Z" fill="#ADCBF9"/>
<path d="M483.391 148.012L457.922 148.108L457.741 147.422L483.213 147.327L483.391 148.012Z" fill="#ADCBF9"/>
<path d="M483.98 150.267L458.509 150.359L458.331 149.677L483.8 149.582L483.98 150.267Z" fill="#ADCBF9"/>
<path d="M484.567 152.521L459.098 152.614L458.921 151.929L484.39 151.836L484.567 152.521Z" fill="#ADCBF9"/>
<path d="M506.864 215.292L469.616 215.432L457.537 169.201L494.787 169.065L506.864 215.292Z" fill="white"/>
<path d="M485.548 175.138L469.93 175.196L469.75 174.513L485.37 174.456L485.548 175.138Z" fill="#ADCBF9"/>
<path d="M488.04 177.038L468.434 177.112L468.253 176.427L487.863 176.356L488.04 177.038Z" fill="#ADCBF9"/>
<path d="M493.433 186.447L467.964 186.542L467.784 185.857L493.256 185.764L493.433 186.447Z" fill="#ADCBF9"/>
<path d="M494.023 188.701L468.554 188.794L468.374 188.112L493.843 188.016L494.023 188.701Z" fill="#ADCBF9"/>
<path d="M494.613 190.956L469.141 191.049L468.963 190.366L494.432 190.271L494.613 190.956Z" fill="#ADCBF9"/>
<path d="M495.2 193.21L469.731 193.303L469.55 192.618L495.022 192.525L495.2 193.21Z" fill="#ADCBF9"/>
<path d="M495.789 195.462L470.32 195.558L470.14 194.873L495.609 194.78L495.789 195.462Z" fill="#ADCBF9"/>
<path d="M497.223 200.949L471.751 201.042L471.574 200.359L497.043 200.264L497.223 200.949Z" fill="#ADCBF9"/>
<path d="M497.81 203.203L472.341 203.296L472.163 202.611L497.632 202.518L497.81 203.203Z" fill="#ADCBF9"/>
<path d="M498.4 205.458L472.931 205.551L472.75 204.866L498.222 204.773L498.4 205.458Z" fill="#ADCBF9"/>
<path d="M498.989 207.71L473.52 207.805L473.34 207.12L498.809 207.027L498.989 207.71Z" fill="#ADCBF9"/>
<path d="M499.579 209.964L474.107 210.06L473.93 209.375L499.399 209.282L499.579 209.964Z" fill="#ADCBF9"/>
<path d="M521.977 273.123L484.729 273.262L472.649 227.032L509.897 226.896L521.977 273.123Z" fill="white"/>
<path d="M500.658 232.969L485.04 233.026L484.862 232.344L500.48 232.287L500.658 232.969Z" fill="#ADCBF9"/>
<path d="M503.153 234.869L483.544 234.942L483.363 234.257L502.973 234.186L503.153 234.869Z" fill="#ADCBF9"/>
<path d="M508.543 244.277L483.074 244.373L482.894 243.688L508.366 243.595L508.543 244.277Z" fill="#ADCBF9"/>
<path d="M509.133 246.532L483.664 246.625L483.484 245.942L508.953 245.85L509.133 246.532Z" fill="#ADCBF9"/>
<path d="M509.723 248.787L484.251 248.879L484.073 248.197L509.542 248.102L509.723 248.787Z" fill="#ADCBF9"/>
<path d="M510.31 251.041L484.841 251.134L484.663 250.449L510.132 250.356L510.31 251.041Z" fill="#ADCBF9"/>
<path d="M510.899 253.293L485.43 253.389L485.25 252.704L510.722 252.611L510.899 253.293Z" fill="#ADCBF9"/>
<path d="M512.333 258.78L486.864 258.872L486.684 258.19L512.155 258.094L512.333 258.78Z" fill="#ADCBF9"/>
<path d="M512.922 261.034L487.451 261.127L487.273 260.445L512.742 260.349L512.922 261.034Z" fill="#ADCBF9"/>
<path d="M513.51 263.289L488.04 263.382L487.863 262.696L513.332 262.604L513.51 263.289Z" fill="#ADCBF9"/>
<path d="M514.099 265.541L488.63 265.636L488.45 264.951L513.922 264.858L514.099 265.541Z" fill="#ADCBF9"/>
<path d="M514.689 267.795L489.217 267.891L489.04 267.206L514.509 267.113L514.689 267.795Z" fill="#ADCBF9"/>
<path d="M472.999 273.514L342.721 273.994L305.227 130.497L322.199 112.225L430.752 111.827L472.999 273.514Z" fill="white"/>
<path d="M394.866 136.076L348.952 136.245L348.425 134.236L394.339 134.067L394.866 136.076Z" fill="#ADCBF9"/>
<path d="M402.197 141.663L344.55 141.876L344.026 139.864L401.67 139.651L402.197 141.663Z" fill="#ADCBF9"/>
<path d="M418.047 169.322L343.172 169.597L342.645 167.586L417.52 167.31L418.047 169.322Z" fill="#ADCBF9"/>
<path d="M419.778 175.946L344.903 176.225L344.378 174.213L419.251 173.937L419.778 175.946Z" fill="#ADCBF9"/>
<path d="M421.509 182.573L346.634 182.849L346.109 180.837L420.982 180.562L421.509 182.573Z" fill="#ADCBF9"/>
<path d="M423.24 189.198L348.365 189.476L347.841 187.465L422.713 187.189L423.24 189.198Z" fill="#ADCBF9"/>
<path d="M424.971 195.825L350.096 196.101L349.572 194.092L424.447 193.814L424.971 195.825Z" fill="#ADCBF9"/>
<path d="M429.184 211.949L354.309 212.227L353.785 210.216L428.66 209.94L429.184 211.949Z" fill="#ADCBF9"/>
<path d="M430.915 218.576L356.04 218.852L355.516 216.843L430.391 216.564L430.915 218.576Z" fill="#ADCBF9"/>
<path d="M432.646 225.203L357.774 225.479L357.247 223.467L432.122 223.192L432.646 225.203Z" fill="#ADCBF9"/>
<path d="M434.377 231.828L359.505 232.106L358.978 230.095L433.853 229.819L434.377 231.828Z" fill="#ADCBF9"/>
<path d="M436.109 238.455L361.236 238.731L360.709 236.719L435.584 236.444L436.109 238.455Z" fill="#ADCBF9"/>
<path d="M305.227 130.497L326.95 130.415L322.199 112.225L305.227 130.497Z" fill="#ADCBF9"/>
<path d="M396.709 348.609H503.107C507.079 348.609 510.889 350.186 513.698 352.994C516.508 355.803 518.086 359.611 518.086 363.583V370.745C518.086 374.806 516.472 378.701 513.599 381.573C510.727 384.445 506.831 386.058 502.768 386.058H396.709V348.609Z" fill="#FCECDB"/>
<path d="M608.609 364.017V369.651C608.609 371.805 608.185 373.939 607.36 375.93C606.536 377.921 605.327 379.73 603.803 381.253C602.279 382.777 600.469 383.985 598.478 384.81C596.486 385.634 594.352 386.058 592.197 386.058H393.457C392.826 386.057 392.221 385.806 391.774 385.36C391.328 384.914 391.077 384.309 391.076 383.678V382.834C391.078 382.204 391.329 381.599 391.775 381.154C392.222 380.708 392.826 380.458 393.457 380.457H514.607C515.258 379.664 515.828 378.808 516.308 377.902C517.477 375.698 518.087 373.24 518.083 370.745V363.583C518.089 360.174 516.925 356.866 514.785 354.212H393.457C392.826 354.212 392.22 353.962 391.774 353.515C391.327 353.069 391.076 352.463 391.076 351.832V350.992C391.076 350.36 391.327 349.755 391.774 349.309C392.22 348.862 392.826 348.611 393.457 348.611H593.196C595.22 348.609 597.226 349.006 599.097 349.779C600.968 350.552 602.668 351.687 604.099 353.118C605.531 354.549 606.666 356.248 607.44 358.118C608.214 359.989 608.611 361.993 608.609 364.017Z" fill="#699DEE"/>
<path d="M608.016 359.772H517.594C517.058 357.743 516.101 355.848 514.785 354.212H393.457C392.826 354.212 392.22 353.962 391.774 353.515C391.327 353.069 391.076 352.463 391.076 351.832V350.992C391.076 350.36 391.327 349.755 391.774 349.309C392.22 348.862 392.826 348.611 393.457 348.611H593.196C596.543 348.611 599.8 349.7 602.474 351.714C605.147 353.727 607.093 356.556 608.016 359.772Z" fill="#548EE2"/>
<path d="M396.709 367.333L411.426 367.964L396.709 368.34V367.333Z" fill="#F4D2B8"/>
<path d="M396.709 373.207L431.718 373.838L396.709 374.217V373.207Z" fill="#F4D2B8"/>
<path d="M534.905 415.106H422.003C418.021 415.106 414.201 413.524 411.385 410.709C408.568 407.893 406.986 404.075 406.986 400.093C406.986 396.352 408.473 392.764 411.119 390.119C413.765 387.473 417.354 385.987 421.097 385.987H534.905V415.106Z" fill="#2B478B"/>
<path d="M656.918 415.106H528.426C524.535 415.106 520.803 413.561 518.052 410.81C515.301 408.06 513.755 404.33 513.755 400.44V400.323C513.755 396.519 515.267 392.871 517.957 390.182C520.647 387.492 524.296 385.982 528.101 385.982H656.92V415.106H656.918Z" fill="#FCECDB"/>
<path d="M505.16 415.106H661.368C661.948 415.106 662.503 414.876 662.913 414.466C663.322 414.057 663.553 413.501 663.553 412.922C663.553 412.343 663.322 411.787 662.913 411.378C662.503 410.968 661.948 410.738 661.368 410.738H505.16C504.581 410.738 504.025 410.968 503.616 411.378C503.206 411.787 502.976 412.343 502.976 412.922C502.976 413.501 503.206 414.057 503.616 414.466C504.025 414.876 504.581 415.106 505.16 415.106Z" fill="#2B478B"/>
<path d="M505.16 390.335H661.368C661.948 390.335 662.503 390.105 662.913 389.696C663.322 389.286 663.553 388.731 663.553 388.151C663.553 387.572 663.322 387.017 662.913 386.607C662.503 386.198 661.948 385.968 661.368 385.968H505.16C504.581 385.968 504.025 386.198 503.616 386.607C503.206 387.017 502.976 387.572 502.976 388.151C502.976 388.731 503.206 389.286 503.616 389.696C504.025 390.105 504.581 390.335 505.16 390.335Z" fill="#2B478B"/>
<path d="M656.918 400.541L639.561 401.029L656.918 401.327V400.541Z" fill="#F4D2B8"/>
<path d="M656.918 393.837L615.623 394.328L656.918 394.623V393.837Z" fill="#F4D2B8"/>
<path d="M616.047 394.23C616.047 394.23 617.818 395.483 618.403 397.541C618.512 397.915 618.574 398.301 618.586 398.69C618.684 401.42 618.586 407.61 618.586 407.61L623.812 404.518L629.021 407.61V399.225C629.021 397.639 628.576 396.097 627.746 395.09C627.342 394.599 626.856 394.23 626.302 394.23H616.047Z" fill="#699DEE"/>
<path d="M616.047 394.23C616.047 394.23 617.818 395.483 618.403 397.541L628.874 397.661C628.874 397.661 628.462 394.716 626.302 394.23H616.047Z" fill="#568CDB"/>
<path d="M630.638 348.688H515.284C510.748 348.688 506.397 346.886 503.189 343.679C499.981 340.472 498.178 336.123 498.178 331.587V322.615C498.178 318.181 499.941 313.927 503.077 310.792C506.214 307.656 510.469 305.894 514.905 305.894H630.638V348.688Z" fill="#FCECDB"/>
<path d="M500.892 322.501V331.71C500.909 333.579 501.417 335.41 502.366 337.02C503.315 338.63 504.672 339.961 506.299 340.881C507.924 341.805 509.762 342.289 511.631 342.287H636.901C637.607 342.287 638.283 342.567 638.782 343.066C639.28 343.564 639.561 344.241 639.561 344.946V346.037C639.561 346.743 639.28 347.419 638.782 347.917C638.283 348.416 637.607 348.696 636.901 348.696H420.493C415.632 348.696 410.97 346.765 407.533 343.329C404.095 339.893 402.164 335.232 402.164 330.373V323.107C402.164 318.546 403.977 314.172 407.203 310.947C410.428 307.722 414.804 305.91 419.366 305.91H636.901C637.25 305.91 637.596 305.979 637.919 306.112C638.241 306.245 638.535 306.441 638.782 306.687C639.029 306.934 639.224 307.227 639.358 307.549C639.492 307.872 639.561 308.217 639.561 308.566V309.658C639.56 310.363 639.279 311.038 638.781 311.536C638.282 312.034 637.606 312.314 636.901 312.314H511.246C509.816 312.313 508.401 312.608 507.09 313.18C505.779 313.752 504.6 314.589 503.628 315.639C501.888 317.502 500.912 319.951 500.892 322.501Z" fill="#B5453C"/>
<path d="M630.638 327.291L614.578 328.012L630.638 328.443V327.291Z" fill="#F4D2B8"/>
<path d="M630.638 317.443L592.432 318.163L630.638 318.595V317.443Z" fill="#F4D2B8"/>
<path d="M592.825 318.021C592.825 318.021 595.345 319.386 596.18 321.608C596.337 322.007 596.429 322.428 596.453 322.855C596.593 325.82 596.453 332.526 596.453 332.526L603.896 329.174L611.323 332.526V323.437C611.323 321.717 610.684 320.044 609.502 318.949C608.958 318.391 608.224 318.06 607.446 318.021H592.825Z" fill="#F99746"/>
<path d="M592.825 318.021C592.825 318.021 595.345 319.386 596.18 321.608L611.099 321.742C611.099 321.742 610.515 318.548 607.435 318.021H592.825Z" fill="#ED7D2B"/>
<path d="M517.288 290.03C523.893 301.516 532.196 305.951 532.196 305.951H566.747C566.747 305.951 512.259 281.263 517.288 290.03Z" fill="#233862"/>
<path d="M543.825 378.915C544.723 379.946 544.838 381.098 544.393 382.329C544.395 382.335 544.395 382.34 544.393 382.346C543.574 384.622 540.844 387.163 537.684 389.715C537.28 390.04 536.92 390.338 536.609 390.611C536.527 390.684 536.442 390.755 536.366 390.829L536.18 390.996C533.231 393.725 534.34 394.337 529.043 399.85C523.003 406.128 518.842 406.246 517.66 405.675C516.66 405.187 518.692 401.854 520.936 398.109C521.045 397.929 521.152 397.746 521.264 397.563C521.564 397.063 521.862 396.558 522.159 396.059C524.8 391.55 524.123 389.434 523.497 382.728C522.987 377.269 515.014 352.272 515.014 352.272L526.588 350.276C526.588 350.276 530.075 370.202 533.917 373.254C535.97 374.891 538.269 374.91 540.243 376.12C540.382 376.204 540.516 376.292 540.655 376.393C541.78 377.113 542.921 377.888 543.825 378.915Z" fill="#FFB27D"/>
<path d="M543.825 378.915C544.723 379.947 544.838 381.098 544.393 382.329C544.395 382.335 544.395 382.34 544.393 382.346C543.383 384.619 540.729 387.15 537.674 389.68C537.275 390.01 536.923 390.316 536.609 390.6C536.527 390.674 536.442 390.745 536.366 390.818L536.18 390.985C533.231 393.714 534.34 394.326 529.043 399.839C523.003 406.117 518.842 406.235 517.66 405.664C516.66 405.176 518.692 401.843 520.936 398.098C525.161 396.447 528.875 393.711 531.702 390.166C535.342 385.526 537.766 379.564 540.243 376.109C540.382 376.193 540.516 376.281 540.655 376.382C541.78 377.113 542.921 377.888 543.825 378.915Z" fill="#233862"/>
<path d="M450.481 371.687C449.766 375.26 444.671 374.662 438.981 373.273C433.291 371.883 434.642 373.546 426.544 372.64C418.446 371.733 415.991 368.723 415.745 367.519C415.524 366.452 419.527 366.075 423.819 365.581C424.365 365.521 424.911 365.453 425.457 365.387C430.304 364.778 433.85 361.653 438.255 359.085C442.424 356.653 448.646 346.744 448.646 346.744L459.754 347.623C459.754 347.623 453.924 356.472 451.669 360.321C450.345 362.584 450.413 365.578 450.577 367.887C450.653 369.154 450.735 370.429 450.481 371.687Z" fill="#FFB27D"/>
<path d="M438.981 373.273C433.291 371.883 434.642 373.546 426.544 372.64C418.446 371.733 415.991 368.723 415.745 367.519C415.524 366.452 419.527 366.075 423.819 365.581L423.857 365.663C427.327 367.889 431.335 369.134 435.456 369.266C440.952 369.4 446.771 367.827 450.566 367.887C450.653 369.143 450.735 370.429 450.481 371.687C449.766 375.26 444.671 374.662 438.981 373.273Z" fill="#233862"/>
<path d="M493.045 300.689L503.421 328.617L516.974 365.087C516.974 365.087 520.655 365.442 524.177 364.429C527.421 363.493 531.142 361.042 531.142 361.042C531.142 361.042 527.377 321.884 520.357 299.406C518.558 293.636 516.535 288.968 514.315 286.342C503.437 273.481 493.045 300.689 493.045 300.689Z" fill="#233862"/>
<path d="M503.601 256.331C510.405 254.147 529.813 256.953 549.294 260.767L553.39 254.038L595.484 250.763C595.484 250.763 609.373 281.558 601.764 301.18C600.647 304.063 598.425 305.913 594.64 305.973H594.026C594.026 305.973 568.972 305.973 560.835 305.973C539.901 305.973 516.529 291.589 513.507 290.983C508.559 289.995 506.58 299.886 501.63 310.275C496.679 320.664 455.115 356.281 455.115 356.281C455.115 356.281 448.728 356.344 446.088 355.356C443.248 354.292 442.211 352.899 442.211 352.899C442.211 352.899 488.262 261.277 503.601 256.331Z" fill="#2B478B"/>
<path d="M553.622 196.085C568.612 204.336 599.023 221.442 599.181 221.33C599.181 221.33 610.356 225.542 616.699 221.33C627.268 214.315 632.934 195.43 613.608 179.178C603.967 171.074 597.12 169.1 596.079 156.16C595.514 149.137 585.914 125.966 569.96 128.108C568.628 128.288 560.423 128.671 555.031 131.501C541.289 138.715 531.151 192.891 553.622 196.085Z" fill="#233862"/>
<path d="M566.187 189.062C566.121 189.105 573.559 191.644 578.536 189.441C583.219 187.372 586.766 179.675 586.695 179.669C584.565 179.571 582.228 177.709 580.429 165.497L579.522 165.825L564.276 171.309C564.276 171.309 565.368 176.197 566.094 180.862C566.695 184.763 567.02 188.508 566.187 189.062Z" fill="#FFB27D"/>
<path d="M564.276 171.309C564.276 171.309 565.368 176.197 566.094 180.862C574.85 179.287 578.288 170.566 579.522 165.833L564.276 171.309Z" fill="#ED975D"/>
<path d="M562.004 176.175C562.004 176.175 582.864 173.378 580.92 160.418C578.976 147.458 580.374 138.369 566.96 139.608C553.545 140.847 551.721 146.181 551.317 150.662C550.913 155.144 556.53 176.555 562.004 176.175Z" fill="#FFB27D"/>
<path d="M552.076 143.547C552.076 143.547 565.431 155.049 574.512 155.977C583.593 156.905 587.034 153.99 587.034 153.99C583.408 150.747 580.489 146.794 578.457 142.376C577.995 141.336 577.264 140.439 576.338 139.777C575.412 139.115 574.327 138.713 573.193 138.612C566.708 138.052 554.414 137.795 552.076 143.547Z" fill="#233862"/>
<path d="M560.423 142.515C560.423 142.515 555.956 146.833 554.55 150.037C553.185 153.127 552.786 160.519 553.865 163.453C553.865 163.453 546.905 149.925 550.848 143.353C555.025 136.381 560.423 142.515 560.423 142.515Z" fill="#233862"/>
<path d="M548.622 219.78C549.253 261.989 548.794 253.17 553.414 257.175C554.525 258.138 557.654 258.714 561.775 258.984C574.719 259.844 597.48 257.712 598.345 255.321C601.332 247.042 599.225 244.471 601.715 231.801C601.974 230.455 602.296 228.995 602.673 227.406C604.751 218.704 606.769 215.743 599.397 201.748C592.713 189.083 585.769 178.804 585.147 179.175C567.511 189.64 566.089 180.843 566.089 180.843C566.089 180.843 548.314 199.191 548.622 219.78Z" fill="white"/>
<path d="M503.429 328.617L516.983 365.087C516.983 365.087 520.663 365.442 524.185 364.429C527.429 363.493 531.151 361.042 531.151 361.042C531.151 361.042 527.385 321.884 520.366 299.406L503.429 328.617Z" fill="#2B478B"/>
<path d="M566.094 180.854C566.094 180.854 547.951 183.93 545.818 191.739C543.686 199.548 531.151 245.462 531.151 245.462C531.151 245.462 540.374 247.119 544.636 242.858C548.898 238.597 559.462 203.337 559.462 203.337L566.094 180.854Z" fill="white"/>
<path d="M561.775 258.984C574.719 259.844 597.48 257.712 598.345 255.321C601.332 247.042 599.225 244.471 601.715 231.801L595.47 214.222C595.47 214.222 596.502 233.799 590.728 238.947C584.953 244.095 567.085 248.885 564.278 253.187C562.924 255.253 562.034 257.322 561.775 258.984Z" fill="#EBF3FF"/>
<path d="M576.606 250.752C576.606 250.752 563.833 247.908 561.775 249.043C559.716 250.179 554.676 254.303 554.045 255.739C553.414 257.175 558.632 254.647 560.325 254.194C561.417 253.899 564.319 254.904 565.75 255.381C571.779 257.39 575.473 256.356 575.473 256.356L576.606 250.752Z" fill="#FFB27D"/>
<path d="M585.16 179.178C585.16 179.178 602.313 180.234 608.251 188.513C616.609 200.165 633.188 249.829 623.686 256.454C612.986 263.914 574.984 258.406 574.984 258.406C574.984 258.406 573.72 252.496 575.478 249.638C577.237 246.78 605.829 242.162 607.151 240.844C608.472 239.525 590.654 215.118 590.654 211.16C590.654 207.202 585.16 179.178 585.16 179.178Z" fill="white"/>
<path d="M561.155 252.603C561.155 252.603 558.479 256.053 557.605 256.465C557.164 256.704 556.662 256.811 556.161 256.773L557.963 253.528L561.155 252.603Z" fill="#FFB27D"/>
<path d="M561.775 249.054L553.993 252.829C553.993 252.829 554.323 253.375 555.282 253.329C556.24 253.282 558.656 252.401 558.656 252.401L561.775 249.054Z" fill="#FFB27D"/>
<path d="M557.603 261.744H496.051L477.534 215.716H538.992L557.603 261.744Z" fill="#F99746"/>
<path d="M495.328 259.95H576.609V261.744H496.051L495.328 259.95Z" fill="#ED7D2B"/>
<path d="M511.587 238.731C511.123 237.112 512.06 235.802 513.676 235.802C515.292 235.802 516.985 237.112 517.45 238.731C517.914 240.35 516.977 241.66 515.358 241.66C513.739 241.66 512.052 240.35 511.587 238.731Z" fill="white"/>
<path d="M114.515 279.824L113.205 280.73C112.872 280.961 112.496 281.125 112.1 281.21C111.704 281.296 111.295 281.303 110.896 281.231C110.497 281.159 110.116 281.009 109.776 280.789C109.435 280.57 109.141 280.286 108.91 279.953L101.284 268.958C100.818 268.285 100.639 267.454 100.785 266.648C100.931 265.843 101.392 265.128 102.065 264.662L103.94 263.36C104.072 263.268 104.235 263.233 104.393 263.262C104.471 263.276 104.545 263.306 104.612 263.349C104.679 263.392 104.736 263.447 104.781 263.513C104.827 263.578 104.858 263.651 104.875 263.729C104.892 263.806 104.893 263.886 104.879 263.965C104.865 264.043 104.835 264.117 104.792 264.184C104.749 264.25 104.694 264.308 104.628 264.353L102.753 265.655C102.343 265.939 102.063 266.373 101.974 266.863C101.885 267.353 101.994 267.858 102.278 268.267L109.901 279.265C110.185 279.674 110.62 279.953 111.111 280.042C111.601 280.131 112.106 280.022 112.517 279.74L113.827 278.831C114.236 278.546 114.516 278.111 114.605 277.621C114.694 277.131 114.585 276.626 114.302 276.216L109.254 268.917C109.163 268.785 109.127 268.623 109.156 268.465C109.185 268.307 109.275 268.168 109.407 268.076C109.538 267.985 109.701 267.95 109.859 267.979C110.017 268.007 110.156 268.097 110.248 268.229L115.296 275.531C115.76 276.204 115.939 277.034 115.792 277.839C115.646 278.643 115.187 279.357 114.515 279.824Z" fill="#AFCDFB"/>
<path d="M122.873 290.666L120.525 292.304C118.34 293.816 115.25 293.144 113.628 290.808L102.16 274.275C102.069 274.143 102.034 273.981 102.062 273.823C102.091 273.665 102.181 273.526 102.313 273.434C102.445 273.343 102.608 273.308 102.765 273.337C102.923 273.365 103.063 273.455 103.154 273.587L114.622 290.117C115.861 291.908 118.201 292.443 119.834 291.31L122.185 289.672C123.823 288.54 124.14 286.162 122.898 284.372L109.844 265.538C108.604 263.747 106.264 263.212 104.628 264.345C104.497 264.436 104.334 264.471 104.176 264.443C104.019 264.414 103.879 264.324 103.788 264.192C103.696 264.06 103.661 263.898 103.69 263.74C103.718 263.582 103.809 263.443 103.94 263.351C106.125 261.839 109.216 262.511 110.837 264.847L123.891 283.681C125.513 286.023 125.055 289.157 122.873 290.666Z" fill="#AFCDFB"/>
<path d="M138.641 377.01L138.914 379.338C139.059 380.533 138.723 381.737 137.98 382.685C137.237 383.633 136.148 384.247 134.952 384.393L115.408 386.765C114.213 386.906 113.011 386.568 112.065 385.825C111.119 385.083 110.506 383.995 110.36 382.802L109.953 379.466C109.925 379.345 109.924 379.219 109.948 379.097C109.973 378.975 110.022 378.859 110.094 378.758C110.166 378.656 110.258 378.571 110.365 378.507C110.472 378.443 110.591 378.403 110.714 378.388C110.838 378.373 110.963 378.384 111.082 378.42C111.201 378.457 111.311 378.518 111.405 378.599C111.499 378.681 111.575 378.781 111.627 378.894C111.68 379.006 111.709 379.129 111.711 379.253L112.115 382.589C112.159 382.949 112.273 383.297 112.451 383.613C112.63 383.929 112.868 384.207 113.154 384.431C113.44 384.655 113.767 384.82 114.117 384.918C114.467 385.015 114.832 385.043 115.192 384.999L134.739 382.63C135.467 382.54 136.129 382.165 136.581 381.588C137.033 381.011 137.237 380.278 137.15 379.551L136.877 377.222C136.788 376.495 136.414 375.833 135.837 375.381C135.26 374.929 134.528 374.724 133.8 374.812L120.825 376.387C120.595 376.408 120.365 376.338 120.186 376.192C120.006 376.047 119.89 375.837 119.862 375.607C119.835 375.378 119.898 375.146 120.037 374.962C120.177 374.778 120.384 374.656 120.612 374.621L133.587 373.049C134.782 372.906 135.986 373.242 136.933 373.985C137.881 374.727 138.495 375.815 138.641 377.01Z" fill="#AFCDFB"/>
<path d="M158.491 373.578L158.999 377.755C159.468 381.631 156.473 385.193 152.317 385.698L122.933 389.262C122.703 389.283 122.473 389.213 122.294 389.067C122.114 388.922 121.998 388.712 121.97 388.483C121.943 388.253 122.005 388.022 122.145 387.838C122.285 387.654 122.491 387.531 122.72 387.496L152.104 383.932C155.285 383.547 157.587 380.872 157.232 377.968L156.727 373.794C156.375 370.89 153.5 368.843 150.319 369.228L116.847 373.289C113.666 373.674 111.367 376.352 111.719 379.253C111.742 379.484 111.673 379.715 111.528 379.896C111.382 380.077 111.172 380.195 110.941 380.223C110.711 380.251 110.478 380.188 110.294 380.047C110.109 379.906 109.987 379.699 109.953 379.469C109.483 375.593 112.481 372.028 116.634 371.526L150.106 367.464C154.259 366.97 158.021 369.7 158.491 373.578Z" fill="#AFCDFB"/>
<path d="M360.762 101.119C361.106 99.6634 360.204 98.2051 358.748 97.8616C357.293 97.5181 355.834 98.4194 355.49 99.8749C355.147 101.33 356.048 102.789 357.504 103.132C358.96 103.476 360.419 102.574 360.762 101.119Z" fill="#F99746"/>
<path d="M724.102 415.076H0.898298C0.402182 415.076 0 415.478 0 415.974V416.099C0 416.595 0.402182 416.997 0.898298 416.997H724.102C724.598 416.997 725 416.595 725 416.099V415.974C725 415.478 724.598 415.076 724.102 415.076Z" fill="#2E3552"/>
</svg>
