<svg xmlns="http://www.w3.org/2000/svg" xmlns:xlink="http://www.w3.org/1999/xlink" viewBox="0 0 500 500"><defs><style>.a{isolation:isolate;}.b{fill:#f2f2f2;}.an,.b,.bg,.o{mix-blend-mode:multiply;}.c{fill:#263185;}.d{fill:#75bcfc;}.e{fill:#ff6c7b;}.f{fill:url(#a);}.g{fill:url(#b);}.h{fill:url(#c);}.i{fill:url(#d);}.ao,.ap,.bt,.bu,.bv,.j,.k{mix-blend-mode:screen;}.j{fill:url(#e);}.k{fill:url(#f);}.l{fill:#1960bb;}.m{fill:#ff2f30;}.n{fill:url(#g);}.o{fill:url(#h);}.p{fill:url(#i);}.q{fill:url(#j);}.r{fill:url(#k);}.s{fill:url(#l);}.t{fill:url(#m);}.u{font-size:17px;font-family:Rockwell-ExtraBold, Rockwell Extra Bold;font-weight:800;}.bb,.u{fill:#fff;}.v{letter-spacing:-0.04em;}.w{fill:#07225f;}.x{fill:url(#n);}.y{fill:url(#o);}.z{fill:url(#p);}.aa{fill:url(#q);}.ab{fill:url(#r);}.ac{fill:url(#s);}.ad{fill:url(#t);}.ae{fill:url(#u);}.af{fill:#575755;}.ag{fill:#e4eeed;}.ah{fill:url(#v);}.ai{fill:#0075f2;}.aj{fill:url(#w);}.ak{fill:#ff7485;}.al{fill:url(#x);}.am{fill:url(#y);}.ao{fill:url(#z);}.ap{fill:url(#aa);}.aq{fill:url(#ab);}.ar{fill:url(#ac);}.as{fill:url(#ad);}.at{fill:url(#ae);}.au{fill:url(#af);}.av{fill:url(#ag);}.aw{fill:#373f42;}.ax{fill:url(#ah);}.ay{fill:url(#ai);}.az{fill:url(#aj);}.ba{fill:url(#ak);}.bc{fill:url(#al);}.bd{fill:url(#am);}.be{fill:url(#an);}.bf{fill:url(#ao);}.bg{opacity:0.5;fill:url(#ap);}.bh{fill:#e9eeee;}.bi{fill:url(#aq);}.bj{fill:url(#ar);}.bk{fill:url(#as);}.bl{fill:url(#at);}.bm{fill:#fefffd;}.bn{fill:url(#au);}.bo{fill:url(#av);}.bp{fill:url(#aw);}.bq{fill:url(#ax);}.br{fill:url(#ay);}.bs{fill:url(#az);}.bt{fill:url(#ba);}.bu{fill:url(#bb);}.bv{fill:url(#bc);}</style><linearGradient id="a" x1="119.74" y1="246.15" x2="117.08" y2="196.48" gradientUnits="userSpaceOnUse"><stop offset="0" stop-color="#ffbb0a"/><stop offset="1" stop-color="#fff551"/></linearGradient><linearGradient id="b" x1="74.65" y1="394.84" x2="132.98" y2="237.84" xlink:href="#a"/><linearGradient id="c" x1="124.58" y1="265.07" x2="187.25" y2="276.07" xlink:href="#a"/><linearGradient id="d" x1="334.68" y1="163.58" x2="258.92" y2="58.73" gradientTransform="matrix(-0.05, -1, -1, 0.05, 242.95, 645.42)" xlink:href="#a"/><linearGradient id="e" x1="93.75" y1="193.47" x2="82.51" y2="36.05" xlink:href="#a"/><linearGradient id="f" x1="122.56" y1="277.65" x2="118.02" y2="214.13" xlink:href="#a"/><linearGradient id="g" x1="295.41" y1="350.06" x2="304.47" y2="425.78" gradientUnits="userSpaceOnUse"><stop offset="0.01" stop-color="#e4e4e4"/><stop offset="0.58" stop-color="#f6f7f6"/><stop offset="0.99" stop-color="#fefffd"/></linearGradient><linearGradient id="h" x1="308.05" y1="354.39" x2="312.87" y2="394.67" xlink:href="#g"/><linearGradient id="i" x1="196.17" y1="407.36" x2="239.73" y2="370.82" xlink:href="#g"/><linearGradient id="j" x1="402.09" y1="351.01" x2="202.75" y2="311.01" gradientUnits="userSpaceOnUse"><stop offset="0" stop-color="#2b5295"/><stop offset="0.41" stop-color="#1960bb"/><stop offset="1" stop-color="#0075f2"/></linearGradient><linearGradient id="k" x1="103.34" y1="292.41" x2="398.18" y2="292.41" xlink:href="#j"/><linearGradient id="l" x1="111.55" y1="320.73" x2="200.64" y2="349.09" xlink:href="#g"/><linearGradient id="m" x1="202.18" y1="336.95" x2="315.46" y2="336.95" xlink:href="#j"/><linearGradient id="n" x1="193.57" y1="269.49" x2="271.19" y2="229.84" gradientUnits="userSpaceOnUse"><stop offset="0" stop-color="#ff1511"/><stop offset="1" stop-color="#ff6c7b"/></linearGradient><linearGradient id="o" x1="189.29" y1="311.98" x2="267.53" y2="272.01" xlink:href="#n"/><linearGradient id="p" x1="247.48" y1="250.34" x2="119.27" y2="242.65" gradientTransform="matrix(-1, 0, 0, 1, 523.28, 0)" xlink:href="#n"/><linearGradient id="q" x1="184.69" y1="172.02" x2="284.1" y2="257.61" gradientTransform="matrix(-1, 0, 0, 1, 523.28, 0)" xlink:href="#n"/><linearGradient id="r" x1="125.47" y1="265.15" x2="214.56" y2="293.51" gradientTransform="matrix(-1, 0, 0, 1, 523.47, 0.14)" xlink:href="#g"/><linearGradient id="s" x1="299.07" y1="304.49" x2="122.13" y2="248.66" xlink:href="#g"/><linearGradient id="t" x1="296.97" y1="306.42" x2="291.15" y2="304.58" xlink:href="#g"/><linearGradient id="u" x1="330.31" y1="290.27" x2="408.49" y2="250.33" xlink:href="#n"/><linearGradient id="v" x1="147.55" y1="638.64" x2="156.74" y2="638.64" gradientTransform="translate(909.98 -93.64) rotate(74.84)" gradientUnits="userSpaceOnUse"><stop offset="0" stop-color="#9bb3d5"/><stop offset="0.02" stop-color="#9db4d6"/><stop offset="0.46" stop-color="#cbd6e5"/><stop offset="0.8" stop-color="#e7eaee"/><stop offset="1" stop-color="#f2f2f2"/></linearGradient><linearGradient id="w" x1="134.67" y1="708.42" x2="141.82" y2="709.72" gradientTransform="translate(909.98 -93.64) rotate(74.84)" gradientUnits="userSpaceOnUse"><stop offset="0" stop-color="#f15a24"/><stop offset="0.99" stop-color="#ffb501"/></linearGradient><linearGradient id="x" x1="283.54" y1="218.29" x2="280.97" y2="182.3" gradientTransform="matrix(1, 0, 0, 1, 0, 0)" xlink:href="#w"/><linearGradient id="y" x1="253.6" y1="236.28" x2="334.14" y2="236.28" gradientTransform="translate(-29.95 27.2) rotate(-5.43)" xlink:href="#a"/><linearGradient id="z" x1="259.35" y1="237.48" x2="278.27" y2="237.48" gradientTransform="matrix(1, -0.05, 0.05, 1, -14.99, 11.56)" xlink:href="#a"/><linearGradient id="aa" x1="288.77" y1="234.61" x2="308.95" y2="234.61" gradientTransform="matrix(1, -0.05, 0.05, 1, -14.99, 11.56)" xlink:href="#a"/><linearGradient id="ab" x1="304.15" y1="686.06" x2="313.34" y2="686.06" gradientTransform="matrix(-0.18, 0.98, 0.98, 0.18, -386.52, -41.41)" xlink:href="#v"/><linearGradient id="ac" x1="291.28" y1="755.84" x2="298.42" y2="757.14" gradientTransform="matrix(-0.18, 0.98, 0.98, 0.18, -386.52, -41.41)" xlink:href="#w"/><linearGradient id="ad" x1="404.8" y1="369.5" x2="409.14" y2="369.5" gradientTransform="matrix(1, 0, 0, 1, 0, 0)" xlink:href="#v"/><linearGradient id="ae" x1="399.12" y1="327.94" x2="427.87" y2="327.94" gradientUnits="userSpaceOnUse"><stop offset="0" stop-color="#9bb3d5"/><stop offset="0.14" stop-color="#b1c3dc"/><stop offset="0.36" stop-color="#cdd8e6"/><stop offset="0.57" stop-color="#e2e6ed"/><stop offset="0.79" stop-color="#eeeff1"/><stop offset="1" stop-color="#f2f2f2"/></linearGradient><linearGradient id="af" x1="350.32" y1="343.53" x2="366.56" y2="343.53" gradientTransform="translate(114.71 776.06) rotate(-104.38)" xlink:href="#a"/><linearGradient id="ag" x1="350.32" y1="367.03" x2="355.43" y2="367.03" gradientTransform="matrix(1, 0, 0, 1, 0, 0)" xlink:href="#v"/><linearGradient id="ah" x1="361.98" y1="317.42" x2="368.13" y2="317.42" gradientTransform="translate(148.49 749.84) rotate(-104.38)" xlink:href="#n"/><linearGradient id="ai" x1="399.13" y1="272.78" x2="409.63" y2="272.78" gradientUnits="userSpaceOnUse"><stop offset="0" stop-color="#0274e1"/><stop offset="0.99" stop-color="#77e2ff"/></linearGradient><linearGradient id="aj" x1="351.52" y1="319.83" x2="409.67" y2="319.83" xlink:href="#ai"/><linearGradient id="ak" x1="396.12" y1="290.06" x2="403.47" y2="290.06" gradientTransform="matrix(1, 0, 0, 1, 0, 0)" xlink:href="#v"/><linearGradient id="al" x1="364.27" y1="344.02" x2="370.9" y2="344.02" gradientTransform="matrix(1, 0, 0, 1, 0, 0)" xlink:href="#v"/><linearGradient id="am" x1="156.17" y1="350.62" x2="108.17" y2="312.06" xlink:href="#j"/><linearGradient id="an" x1="168.49" y1="330.37" x2="251.16" y2="241.37" xlink:href="#j"/><linearGradient id="ao" x1="63.23" y1="378.72" x2="186.96" y2="378.72" xlink:href="#j"/><linearGradient id="ap" x1="63.23" y1="378.72" x2="155.34" y2="378.72" xlink:href="#j"/><linearGradient id="aq" x1="120.4" y1="372.82" x2="114.28" y2="330.19" xlink:href="#n"/><linearGradient id="ar" x1="111.17" y1="374.14" x2="105.05" y2="331.52" xlink:href="#n"/><linearGradient id="as" x1="101.61" y1="375.52" x2="95.48" y2="332.89" xlink:href="#n"/><linearGradient id="at" x1="87.36" y1="379.17" x2="88.86" y2="357.24" xlink:href="#n"/><linearGradient id="au" x1="54.95" y1="384.62" x2="109.58" y2="359.12" xlink:href="#n"/><linearGradient id="av" x1="56.21" y1="387.32" x2="110.84" y2="361.82" xlink:href="#n"/><linearGradient id="aw" x1="57.52" y1="390.11" x2="112.14" y2="364.61" xlink:href="#n"/><linearGradient id="ax" x1="63.48" y1="381.63" x2="89.93" y2="381.63" xlink:href="#n"/><linearGradient id="ay" x1="149.6" y1="356.27" x2="157.38" y2="324.73" xlink:href="#j"/><linearGradient id="az" x1="118.08" y1="345.15" x2="186.43" y2="345.15" xlink:href="#g"/><linearGradient id="ba" x1="137.4" y1="345.92" x2="173.34" y2="345.92" xlink:href="#g"/><linearGradient id="bb" x1="161.39" y1="349.05" x2="184.05" y2="349.05" xlink:href="#g"/><linearGradient id="bc" x1="119.85" y1="340.87" x2="141.63" y2="340.87" xlink:href="#g"/></defs><g class="a"><ellipse class="b" cx="241.3" cy="370.13" rx="227.03" ry="53.58"/><path class="c" d="M432.62,186.09h-17.9a16.22,16.22,0,0,1-16.22-16.22h0a16.22,16.22,0,0,1,16.22-16.21H426a7,7,0,0,0,7-5.85,6.86,6.86,0,0,0-6.79-7.88H399.31a.81.81,0,0,1-.81-.82A16.48,16.48,0,0,0,382,122.65H284.94a4.43,4.43,0,0,1-4.4-3.42,4.34,4.34,0,0,1,4.23-5.22h67.68a8.74,8.74,0,0,0,8.71-7.17,8.58,8.58,0,0,0-8.47-10H158.14a8.73,8.73,0,0,0-8.71,7.17,8.58,8.58,0,0,0,8.47,10h33.23a9.56,9.56,0,0,1,9.53,7.85,9.4,9.4,0,0,1-9.27,10.93H92.61A36.64,36.64,0,0,0,56,169.43h0a36.63,36.63,0,0,0,29.82,36,5.41,5.41,0,0,1,4.36,5.33v3a5.45,5.45,0,0,1-5.45,5.45h0a27,27,0,0,0-27,27h0a27,27,0,0,0,27,27h.1a8.1,8.1,0,0,1,8.1,8.1v0a8.41,8.41,0,0,1-7.66,8.34,9.1,9.1,0,0,0-2,.37,20.88,20.88,0,0,0,6.94,40.59H400.25c11,0,20.43-8.28,21.31-19.22,0-.1,0-.2,0-.29a10,10,0,0,1,10-9.46h3.84a17.35,17.35,0,0,0,17.35-17.35h0c0-7.22-5.82-13.2-12.79-15.7a10.64,10.64,0,0,1-7.19-10v-.5a11.53,11.53,0,0,1,8.45-11,31.08,31.08,0,0,0,22.46-29.86h0A31.07,31.07,0,0,0,432.62,186.09Z"/><path class="c" d="M160.08,87.5a1.52,1.52,0,0,1-1.08-.45,1.54,1.54,0,0,1,0-2.16l6.07-6.07-6.64-6.64A1.52,1.52,0,1,1,160.59,70l7.72,7.72a1.53,1.53,0,0,1,0,2.15l-7.15,7.15A1.52,1.52,0,0,1,160.08,87.5Z"/><path class="c" d="M170.85,87.5a1.52,1.52,0,0,1-1.08-.45,1.54,1.54,0,0,1,0-2.16l6.07-6.07-6.64-6.64A1.52,1.52,0,0,1,171.36,70l7.72,7.72a1.53,1.53,0,0,1,0,2.15l-7.15,7.15A1.52,1.52,0,0,1,170.85,87.5Z"/><path class="c" d="M181.62,87.5a1.52,1.52,0,0,1-1.08-.45,1.54,1.54,0,0,1,0-2.16l6.07-6.07L180,72.18A1.52,1.52,0,0,1,182.13,70l7.72,7.72a1.53,1.53,0,0,1,0,2.15l-7.15,7.15A1.52,1.52,0,0,1,181.62,87.5Z"/><path class="c" d="M192.39,87.5a1.52,1.52,0,0,1-1.08-.45,1.54,1.54,0,0,1,0-2.16l6.07-6.07-6.64-6.64A1.52,1.52,0,1,1,192.9,70l7.71,7.72a1.51,1.51,0,0,1,0,2.15l-7.14,7.15A1.52,1.52,0,0,1,192.39,87.5Z"/><path class="c" d="M203.16,87.5a1.53,1.53,0,0,1-1.08-2.61l6.07-6.07-6.64-6.64A1.52,1.52,0,1,1,203.66,70l7.72,7.72a1.51,1.51,0,0,1,0,2.15l-7.14,7.15A1.52,1.52,0,0,1,203.16,87.5Z"/><path class="c" d="M302.21,91.4a.9.9,0,0,1-.66-.28.92.92,0,0,1,0-1.32l3.74-3.75L301.2,82a.94.94,0,0,1,1.33-1.33l4.76,4.76a1,1,0,0,1,0,1.33l-4.41,4.4A.91.91,0,0,1,302.21,91.4Z"/><path class="c" d="M308.85,91.4a.9.9,0,0,1-.66-.28.92.92,0,0,1,0-1.32l3.74-3.75L307.84,82a.94.94,0,1,1,1.33-1.33l4.76,4.76a1,1,0,0,1,0,1.33l-4.41,4.4A.91.91,0,0,1,308.85,91.4Z"/><path class="c" d="M315.5,91.4a.91.91,0,0,1-.67-.28.92.92,0,0,1,0-1.32l3.74-3.75L314.48,82a.94.94,0,1,1,1.33-1.33l4.76,4.76a1,1,0,0,1,0,1.33l-4.41,4.4A.9.9,0,0,1,315.5,91.4Z"/><path class="c" d="M322.14,91.4a.91.91,0,0,1-.67-.28.92.92,0,0,1,0-1.32l3.74-3.75L321.12,82a.94.94,0,1,1,1.33-1.33l4.76,4.76a1,1,0,0,1,0,1.33l-4.41,4.4A.9.9,0,0,1,322.14,91.4Z"/><path class="c" d="M328.78,91.4a.91.91,0,0,1-.67-.28.92.92,0,0,1,0-1.32l3.74-3.75L327.76,82a.94.94,0,1,1,1.33-1.33l4.76,4.76a1,1,0,0,1,0,1.33l-4.41,4.4A.9.9,0,0,1,328.78,91.4Z"/><path class="c" d="M28.1,216.75a.94.94,0,0,1-.67-.28,1,1,0,0,1,0-1.33l3.75-3.74-4.1-4.1a.92.92,0,0,1,0-1.32.94.94,0,0,1,1.33,0l4.76,4.75a.94.94,0,0,1,0,1.33l-4.41,4.41A.9.9,0,0,1,28.1,216.75Z"/><path class="c" d="M34.74,216.75a.94.94,0,0,1-.67-.28,1,1,0,0,1,0-1.33l3.75-3.74-4.1-4.1a.92.92,0,0,1,0-1.32.94.94,0,0,1,1.33,0l4.76,4.75a.94.94,0,0,1,0,1.33l-4.41,4.41A.9.9,0,0,1,34.74,216.75Z"/><path class="c" d="M41.38,216.75a.94.94,0,0,1-.67-.28,1,1,0,0,1,0-1.33l3.75-3.74-4.1-4.1a.92.92,0,0,1,0-1.32.94.94,0,0,1,1.33,0l4.76,4.75a.94.94,0,0,1,0,1.33L42,216.47A.9.9,0,0,1,41.38,216.75Z"/><path class="c" d="M48,216.75a.94.94,0,0,1-.67-.28,1,1,0,0,1,0-1.33l3.75-3.74L47,207.3A.92.92,0,0,1,47,206a.94.94,0,0,1,1.33,0l4.76,4.75a.94.94,0,0,1,0,1.33l-4.41,4.41A.9.9,0,0,1,48,216.75Z"/><path class="c" d="M54.66,216.75a.94.94,0,0,1-.67-.28,1,1,0,0,1,0-1.33l3.75-3.74-4.1-4.1a.92.92,0,0,1,0-1.32A.94.94,0,0,1,55,206l4.76,4.75a.94.94,0,0,1,0,1.33l-4.41,4.41A.9.9,0,0,1,54.66,216.75Z"/><path class="c" d="M416.14,173.9a1,1,0,0,1-.71-1.69l4-4-4.33-4.32a1,1,0,1,1,1.41-1.41l5,5a1,1,0,0,1,0,1.41l-4.66,4.65A1,1,0,0,1,416.14,173.9Z"/><path class="c" d="M423.15,173.9a1,1,0,0,1-.7-.29,1,1,0,0,1,0-1.4l4-4-4.33-4.32a1,1,0,0,1,0-1.41,1,1,0,0,1,1.4,0l5,5a1,1,0,0,1,0,1.41l-4.65,4.65A1,1,0,0,1,423.15,173.9Z"/><path class="c" d="M430.17,173.9a1,1,0,0,1-.7-.29,1,1,0,0,1,0-1.4l3.95-4-4.33-4.32a1,1,0,0,1,0-1.41,1,1,0,0,1,1.41,0l5,5a1,1,0,0,1,0,1.41l-4.66,4.65A1,1,0,0,1,430.17,173.9Z"/><path class="c" d="M437.19,173.9a1,1,0,0,1-.71-.29,1,1,0,0,1,0-1.4l4-4-4.33-4.32a1,1,0,0,1,1.41-1.41l5,5a1,1,0,0,1,0,1.41l-4.66,4.65A1,1,0,0,1,437.19,173.9Z"/><path class="c" d="M444.2,173.9a1,1,0,0,1-.7-1.69l4-4-4.33-4.32a1,1,0,0,1,0-1.41,1,1,0,0,1,1.4,0l5,5a1,1,0,0,1,0,1.41l-4.65,4.65A1,1,0,0,1,444.2,173.9Z"/><circle class="c" cx="130.35" cy="105.22" r="8.96" transform="translate(-1.92 208.03) rotate(-76.77)"/><circle class="c" cx="30.12" cy="276.21" r="8.96" transform="translate(-246.82 253.79) rotate(-79.15)"/><path class="c" d="M289.31,85.88a2.19,2.19,0,1,1-2.19-2.2A2.19,2.19,0,0,1,289.31,85.88Z"/><path class="c" d="M255.57,67.1a2.48,2.48,0,1,1-2.47-2.48A2.48,2.48,0,0,1,255.57,67.1Z"/><path class="c" d="M48.92,184a2.2,2.2,0,1,1-2.19-2.19A2.19,2.19,0,0,1,48.92,184Z"/><path class="c" d="M41.09,252.47A2.48,2.48,0,1,1,38.61,250,2.48,2.48,0,0,1,41.09,252.47Z"/><path class="c" d="M61,317.94a2.48,2.48,0,1,1-2.48-2.47A2.48,2.48,0,0,1,61,317.94Z"/><path class="c" d="M448.82,254.32a2.48,2.48,0,1,1-2.47-2.47A2.48,2.48,0,0,1,448.82,254.32Z"/><circle class="c" cx="451.32" cy="144.49" r="7.81"/><circle class="c" cx="471.02" cy="286.82" r="7.81" transform="translate(112.45 705.81) rotate(-80.78)"/><path class="d" d="M252.28,235.89V108.82a1,1,0,0,0-1.89,0V235.89a1,1,0,0,0,1.89,0Z"/><path class="d" d="M227.15,164.29H357.88a1,1,0,0,0,0-1.89H227.15a1,1,0,0,0,0,1.89Z"/><path class="d" d="M358.36,162.3l-5.93-4.37c-1-.72-1.93.92-1,1.64l5.93,4.36c1,.73,1.93-.92,1-1.63Z"/><path class="d" d="M357.4,162.3c-2.15,1.17-4.32,2.33-6.39,3.65-1,.65-.07,2.29,1,1.63,2.07-1.31,4.23-2.48,6.39-3.65,1.07-.58.11-2.22-1-1.63Z"/><path class="d" d="M310.85,186.79v5.71a1,1,0,0,0,1.89,0v-5.71a1,1,0,0,0-1.89,0Z"/><path class="d" d="M310.85,196.52v5.7a1,1,0,0,0,1.89,0v-5.7a1,1,0,0,0-1.89,0Z"/><path class="d" d="M310.85,177.36v5.7a1,1,0,0,0,1.89,0v-5.7a1,1,0,0,0-1.89,0Z"/><path class="d" d="M310.85,168.19v5.7a1,1,0,0,0,1.89,0v-5.7a1,1,0,0,0-1.89,0Z"/><path class="d" d="M252.23,199.83c10.75-8.49,23.55-7.24,35.35-2a105.44,105.44,0,0,0,29.94,8.51,94.77,94.77,0,0,0,30.8-.82,38,38,0,0,0,12.1-4.59c2.22-1.33,4.5-2.78,6.62-4.27,1.26-.89,2.47-2.4,3.87-3,1.1-.47.62-2.3-.51-1.83-2.93,1.24-5.61,4-8.29,5.75a41.41,41.41,0,0,1-15.87,6.4,98.8,98.8,0,0,1-38.15-1.21,92.84,92.84,0,0,1-17.28-5.56c-4.61-2-9.2-4.31-14.2-5.22a32.36,32.36,0,0,0-25.72,6.47c-.95.76.39,2.09,1.34,1.34Z"/><path class="d" d="M252.46,184.09l15.74-15.74a1,1,0,0,0-1.34-1.34l-15.74,15.74a1,1,0,0,0,1.34,1.34Z"/><path class="d" d="M252.78,196.41l28.29-28.29a.94.94,0,0,0-1.33-1.34l-28.3,28.29a1,1,0,0,0,1.34,1.34Z"/><path class="d" d="M270.55,192.49l24-24a1,1,0,0,0-1.34-1.34l-24,24a1,1,0,0,0,1.34,1.34Z"/><path class="d" d="M281.51,194.77q12.67-12.68,25.36-25.36a1,1,0,0,0-1.34-1.34l-.8.81a1,1,0,0,0,1.34,1.34l.8-.81-1.34-1.34-25.36,25.36a1,1,0,0,0,1.34,1.34Z"/><path class="d" d="M293.68,199.26l14.61-14.6a1,1,0,0,0-1.34-1.34l-14.61,14.6a1,1,0,0,0,1.34,1.34Z"/><path class="d" d="M251.12,113.36l50.19,50.2a1,1,0,0,0,1.34-1.34L252.46,112a1,1,0,0,0-1.34,1.34Z"/><path class="d" d="M276.43,137.14c11.79,0,23.57.65,35.36.68a1,1,0,0,0,0-1.89c-11.79,0-23.57-.65-35.36-.68a1,1,0,0,0,0,1.89Z"/><path class="d" d="M307.44,134l5.47,3c1.07.58,2-1,1-1.63l-5.48-3c-1.07-.58-2,1.05-.95,1.63Z"/><path class="d" d="M312.72,135.52,308,139.47c-.93.78.41,2.12,1.34,1.34l4.69-3.95c.93-.78-.41-2.12-1.34-1.34Z"/><path class="d" d="M312.46,210.56c2.47-2.73-3.64-3.2-5.22-1.74-3.55,3.26,4,10.24.88,12.34-1,.68-.05,2.32,1,1.64,2.09-1.43,1.54-4,.82-6.08-.43-1.27-1.1-2.45-1.52-3.71s-.46-2.72,1.18-3.2a6.16,6.16,0,0,1,1,0q1,.44.6-.57c-.81.9.52,2.24,1.34,1.34Z"/><path class="d" d="M302.9,216.76c2.37,0,4.71-.44,7.07-.68,1.2-.12,1.21-2,0-1.89-2.36.24-4.7.63-7.07.68a1,1,0,0,0,0,1.89Z"/><path class="d" d="M313.62,211.69c-1.41,4.08-2.53,8.28.93,11.64.87.85,2.21-.49,1.34-1.34-2.93-2.85-1.6-6.45-.45-9.8.4-1.15-1.43-1.65-1.82-.5Z"/><path class="d" d="M315.42,218.23a31.72,31.72,0,0,0,4.79,3.2c1.1.52,2.06-1.11,1-1.64a31.91,31.91,0,0,1-4.79-3.19c-1-.73-1.93.92-1,1.63Z"/><path class="d" d="M317.27,221.54a27.78,27.78,0,0,1,2.41-4.33,1,1,0,0,0-1.63-1,30.45,30.45,0,0,0-2.61,4.79c-.41,1.15,1.42,1.64,1.83.5Z"/><path class="d" d="M318.65,210.33c4.07,3.17,6.91,9.85,4.65,14.82-.51,1.1,1.13,2.07,1.63,1,2.61-5.73-.13-13.37-4.94-17.12-.95-.74-2.3.59-1.34,1.34Z"/><path class="d" d="M227,237.49v-.11l-.13.48,0-.08-.34.34.08,0-.48.12h.11c1.21,0,1.22-1.94,0-1.89a1.14,1.14,0,0,0-1.18,1.17c0,1.22,1.85,1.22,1.9,0Z"/><path class="d" d="M229,238.44h3.88a1,1,0,0,0,0-1.9H229a1,1,0,0,0,0,1.9Z"/><path class="d" d="M236.05,238h4.1a1,1,0,0,0,0-1.89h-4.1a1,1,0,0,0,0,1.89Z"/><path class="d" d="M243.35,238.21H247a1,1,0,0,0,0-1.89h-3.65a1,1,0,0,0,0,1.89Z"/><path class="d" d="M228.1,232.47v-6.16a1,1,0,0,0-1.9,0v6.16a1,1,0,0,0,1.9,0Z"/><path class="d" d="M227.87,219.7v-7.08a1,1,0,0,0-1.9,0v7.08a1,1,0,0,0,1.9,0Z"/><path class="d" d="M228.33,207.83v-5a1,1,0,0,0-1.9,0v5a1,1,0,0,0,1.9,0Z"/><path class="d" d="M229,198.25v-5.48a1,1,0,0,0-1.89,0v5.48a1,1,0,0,0,1.89,0Z"/><path class="d" d="M229.24,185.93v-4.34a1,1,0,0,0-1.9,0v4.34a1,1,0,0,0,1.9,0Z"/><path class="d" d="M229.24,177.72v-3.88a1,1,0,0,0-1.9,0v3.88a1,1,0,0,0,1.9,0Z"/><path class="d" d="M229,171.56v-4.34a1,1,0,0,0-1.89,0v4.34a1,1,0,0,0,1.89,0Z"/><path class="d" d="M225.11,245.92c2.36,2.69,4.06,5.85,6.16,8.72.28-.47.55-.95.82-1.42-3.62.3-7.24.49-10.83,1.13l1.17,1.17c1.23-3.49,3.77-6.35,5.54-9.57.59-1.06-1.05-2-1.64-.95-1.86,3.37-4.44,6.35-5.73,10-.26.74.52,1.28,1.17,1.17,3.41-.62,6.87-.78,10.32-1.07.64-.05,1.28-.79.82-1.42-2.2-3-4-6.3-6.46-9.11-.8-.92-2.14.42-1.34,1.34Z"/><path class="d" d="M231.73,247.74a52.41,52.41,0,0,1,4.59,7.48,1,1,0,0,0,1.73-.23c.72-3.52,1.32-7.08,1.88-10.63.18-1.19-1.64-1.71-1.83-.5-.56,3.55-1.16,7.1-1.88,10.63l1.73-.23a54.26,54.26,0,0,0-4.88-7.86c-.78-.93-2.12.41-1.34,1.34Z"/><path class="d" d="M241,252.55v4a1,1,0,0,0,1.9,0V256a1,1,0,0,0-1.9,0v.62a1,1,0,0,0,1.9,0v-4a1,1,0,0,0-1.9,0Z"/><path class="d" d="M241.3,248a1,1,0,0,0,0-1.89.95.95,0,0,0,0,1.89Z"/><polygon class="e" points="133.76 192.57 133.76 192.57 134.46 191.22 134.46 191.22 134.46 191.22 133.76 192.57"/><rect class="e" x="131.43" y="192.29" height="1.53"/><polygon class="e" points="133.76 192.57 134.46 191.22 134.46 191.22 130.56 185.23 129.87 186.59 129.87 186.59 129.87 186.59 133.76 192.57"/><polygon class="e" points="131.77 192.37 131.77 192.37 131.77 192.37 129.05 188.19 129.05 188.19 131.77 192.37"/><polygon class="e" points="130.15 195.54 129.46 196.9 129.46 196.9 130.15 195.54 130.15 195.54 130.15 195.54"/><polygon class="e" points="131.08 193.73 131.77 192.37 131.77 192.37 129.05 188.19 129.05 188.19 128.35 189.55 128.35 189.55 131.08 193.73"/><polygon class="e" points="130.15 195.54 130.15 195.54 127.43 191.35 130.15 195.54"/><polygon class="e" points="128.54 198.69 127.84 200.05 127.84 200.05 128.54 198.69 128.54 198.69 128.54 198.69"/><polygon class="e" points="129.46 196.9 130.15 195.54 130.15 195.54 127.43 191.35 126.74 192.71 126.74 192.71 129.46 196.9"/><rect class="e" x="127.18" y="194.11" height="4.99"/><polygon class="e" points="126.22 203.22 126.92 201.86 126.92 201.86 126.92 201.86 126.22 203.22"/><polygon class="e" points="127.84 200.05 128.54 198.69 128.54 198.69 125.82 194.51 125.82 194.51 125.12 195.87 125.12 195.87 125.12 195.87 127.84 200.05"/><rect class="e" x="120.56" y="195.98" width="4.56"/><polygon class="e" points="125.69 208.35 126.39 206.99 126.39 206.99 126.39 206.99 125.69 208.35"/><polygon class="e" points="126.22 203.22 126.92 201.86 126.92 201.86 124.2 197.68 123.5 199.03 126.22 203.22"/><polygon class="e" points="122.5 201 126.39 206.99 126.39 206.99 122.5 201 117.94 201.22 117.94 201.22 122.5 201"/><polygon class="e" points="122.76 209.98 123.46 208.62 122.76 209.98 122.76 209.98"/><polygon class="e" points="125.69 208.35 126.39 206.99 126.39 206.99 122.5 201 121.8 202.37 121.8 202.37 121.8 202.37 125.69 208.35"/><polygon class="e" points="123.46 208.62 120.74 204.44 120.74 204.44 123.46 208.62"/><polygon class="e" points="121.84 211.78 121.14 213.14 121.14 213.14 121.84 211.78 121.84 211.78 121.84 211.78"/><polygon class="e" points="122.76 209.98 123.46 208.62 120.74 204.44 120.74 204.44 120.04 205.8 120.04 205.8 122.76 209.98"/><polygon class="f" points="119.71 308.44 124.26 308.22 122.43 233.26 118.09 242.15 119.71 308.44"/><rect class="e" x="120.48" y="207.2" height="4.99"/><polygon class="e" points="119.53 216.3 119.53 216.3 120.22 214.94 120.22 214.94 120.22 214.94 119.53 216.3"/><polygon class="e" points="121.14 213.14 121.84 211.78 121.84 211.78 119.12 207.6 119.12 207.6 118.42 208.96 118.42 208.96 121.14 213.14"/><polygon class="e" points="117.91 219.46 117.91 219.46 118.61 218.11 118.61 218.11 118.61 218.11 117.91 219.46"/><polygon class="e" points="119.53 216.3 120.22 214.94 120.22 214.94 117.5 210.76 116.81 212.12 116.81 212.12 116.81 212.12 119.53 216.3"/><rect class="e" x="116.96" y="223.92" width="1.53"/><polygon class="e" points="117.91 219.46 118.61 218.11 118.61 218.11 115.88 213.92 115.19 215.28 115.19 215.28 115.19 215.28 117.91 219.46"/><polygon class="e" points="118.08 223.23 118.08 223.23 118.08 223.23 114.18 217.25 114.18 217.25 118.08 223.23"/><polygon class="e" points="114.45 226.23 115.14 224.87 114.45 226.23 114.45 226.23"/><polygon class="e" points="117.38 224.6 118.08 223.23 118.08 223.23 114.18 217.25 114.18 217.25 113.48 218.62 113.48 218.62 117.38 224.6"/><polygon class="e" points="115.14 224.87 112.42 220.69 112.41 220.69 112.42 220.69 115.14 224.87"/><polygon class="e" points="113.53 228.03 112.83 229.39 112.83 229.39 113.53 228.03 113.53 228.03 113.53 228.03"/><polygon class="e" points="114.45 226.23 115.14 224.87 112.42 220.69 111.73 222.04 111.73 222.04 111.73 222.04 114.45 226.23"/><polygon class="e" points="113.53 228.03 113.53 228.03 110.8 223.85 110.79 223.85 110.8 223.85 113.53 228.03"/><polygon class="e" points="111.22 232.55 111.91 231.19 111.91 231.19 111.91 231.19 111.22 232.55"/><polygon class="e" points="112.83 229.39 113.53 228.03 113.53 228.03 110.8 223.85 110.11 225.21 111.69 227.64 112.83 229.39"/><polygon class="e" points="109.6 235.71 109.6 235.71 110.29 234.35 110.29 234.35 110.29 234.35 109.6 235.71"/><polygon class="e" points="111.22 232.55 111.91 231.19 111.91 231.19 109.19 227.01 108.49 228.37 108.49 228.37 111.22 232.55"/><rect class="e" x="109.41" y="239.4" height="1.53"/><polygon class="e" points="109.6 235.71 110.29 234.35 110.29 234.35 107.57 230.17 106.87 231.53 106.87 231.53 109.6 235.71"/><polygon class="e" points="109.76 239.48 109.76 239.48 109.76 239.48 105.87 233.5 105.87 233.5 109.76 239.48"/><polygon class="e" points="106.14 242.47 106.14 242.47 106.83 241.12 106.83 241.12 106.83 241.12 106.14 242.47"/><polygon class="e" points="109.06 240.85 109.76 239.48 109.76 239.48 105.87 233.5 105.87 233.5 105.17 234.86 105.17 234.86 109.06 240.85"/><polygon class="e" points="104.52 245.64 104.52 245.64 105.22 244.27 105.22 244.27 105.22 244.27 104.52 245.64"/><polygon class="e" points="106.14 242.47 106.83 241.12 106.83 241.12 104.11 236.93 103.41 238.29 103.42 238.29 103.42 238.29 106.14 242.47"/><polygon class="e" points="102.9 248.79 103.6 247.44 102.9 248.79 102.9 248.79"/><polygon class="e" points="104.52 245.64 105.22 244.27 105.22 244.27 102.49 240.09 101.8 241.46 101.8 241.46 104.52 245.64"/><polygon class="e" points="101.28 251.96 101.98 250.6 101.28 251.96 101.28 251.96"/><polygon class="e" points="102.9 248.79 103.6 247.44 100.88 243.25 100.88 243.25 100.88 243.25 100.18 244.61 100.18 244.61 102.9 248.79"/><polygon class="e" points="101.45 255.73 100.75 257.09 100.75 257.09 101.45 255.73 101.45 255.73 101.45 255.73"/><polygon class="e" points="101.98 250.6 99.26 246.42 99.24 246.42 99.26 246.42 101.98 250.6"/><polygon class="e" points="101.28 251.96 101.98 250.6 99.26 246.42 98.56 247.78 98.56 247.78 101.28 251.96"/><rect class="e" x="99.5" y="249.17" height="7.14"/><polygon class="e" points="97.82 258.72 98.52 257.36 98.52 257.36 98.52 257.36 97.82 258.72"/><polygon class="e" points="100.75 257.09 101.45 255.73 101.45 255.73 97.55 249.75 97.55 249.75 96.86 251.1 96.86 251.1 100.75 257.09"/><rect class="e" x="95.79" y="261.2" width="1.53"/><polygon class="e" points="97.82 258.72 98.52 257.36 98.52 257.36 95.8 253.18 95.1 254.54 95.1 254.54 97.82 258.72"/><polygon class="e" points="96.9 260.52 96.9 260.52 96.9 260.52 94.18 256.34 94.18 256.34 96.9 260.52"/><polygon class="e" points="95.28 263.68 94.59 265.04 94.59 265.04 95.28 263.68 95.28 263.68 95.28 263.68"/><polygon class="e" points="96.2 261.88 96.9 260.52 96.9 260.52 94.18 256.34 94.18 256.34 93.48 257.7 93.48 257.7 93.48 257.7 96.2 261.88"/><rect class="e" x="93.92" y="259.1" height="4.99"/><polygon class="e" points="93.67 266.85 92.97 268.21 92.97 268.21 93.67 266.85 93.67 266.85 93.67 266.85"/><polygon class="e" points="94.59 265.04 95.28 263.68 95.28 263.68 92.56 259.5 92.56 259.5 91.87 260.86 91.87 260.86 94.59 265.04"/><polygon class="e" points="92.44 273.33 92.44 273.33 93.14 271.98 93.14 271.98 93.14 271.98 92.44 273.33"/><polygon class="e" points="93.67 266.85 93.67 266.85 90.94 262.67 93.67 266.85"/><polygon class="e" points="85.69 264.24 85.69 264.24 85.69 264.24 85.69 264.24"/><polygon class="e" points="92.97 268.21 93.67 266.85 93.67 266.85 90.94 262.67 90.25 264.02 90.25 264.02 92.97 268.21"/><rect class="e" x="89.09" y="274.29" width="1.53" transform="translate(-167.63 143.88) rotate(-45)"/><polygon class="e" points="92.44 273.33 93.14 271.98 93.14 271.98 89.24 265.99 88.55 267.35 88.55 267.35 92.44 273.33"/><polygon class="e" points="90.2 273.61 90.2 273.61 90.2 273.61 89.06 271.86 90.2 273.61"/><polygon class="e" points="87.89 278.13 88.59 276.77 87.89 278.13 87.89 278.13"/><polygon class="e" points="89.51 274.97 90.2 273.61 90.2 273.61 89.06 271.86 87.48 269.43 87.48 269.43 87.48 269.43 86.79 270.79 86.79 270.79 89.51 274.97"/><polygon class="e" points="88.59 276.77 85.87 272.59 85.85 272.59 85.87 272.59 88.59 276.77"/><polygon class="e" points="86.97 279.93 86.97 279.93 86.28 281.29 86.97 279.93 86.97 279.93"/><polygon class="e" points="87.89 278.13 88.59 276.77 85.87 272.59 85.17 273.95 85.17 273.95 87.89 278.13"/><rect class="e" x="85.61" y="275.35" height="4.99"/><polygon class="e" points="84.66 284.45 84.66 284.45 84.66 284.45 85.35 283.1 85.35 283.1 85.35 283.1 84.66 284.45"/><polygon class="e" points="86.97 279.93 84.25 275.75 84.25 275.75 83.55 277.11 86.28 281.29 86.97 279.93 86.97 279.93"/><polygon class="e" points="84.13 289.58 84.13 289.58 84.82 288.22 84.82 288.22 84.82 288.22 84.13 289.58"/><polygon class="e" points="83.07 282.02 84.66 284.45 85.35 283.1 85.35 283.1 82.63 278.92 81.93 280.27 81.93 280.27 81.93 280.27 83.07 282.02"/><polygon class="e" points="83.07 282.02 84.66 284.45 84.66 284.45 83.07 282.02"/><polygon class="e" points="81.89 289.86 81.2 291.22 81.2 291.22 81.89 289.86 81.89 289.86 81.89 289.86"/><polygon class="e" points="84.13 289.58 84.82 288.22 84.82 288.22 80.93 282.24 80.23 283.6 80.23 283.6 80.23 283.6 84.13 289.58"/><polygon class="e" points="81.89 289.86 81.89 289.86 79.17 285.68 79.16 285.68 79.17 285.68 81.89 289.86"/><polygon class="e" points="79.58 294.38 79.58 294.38 80.28 293.01 80.28 293.01 80.28 293.01 79.58 294.38"/><polygon class="e" points="81.2 291.22 81.89 289.86 81.89 289.86 79.17 285.68 78.47 287.04 78.47 287.04 81.2 291.22"/><polygon class="e" points="77.96 297.54 78.66 296.18 77.96 297.54 77.96 297.54"/><polygon class="e" points="79.58 294.38 80.28 293.01 80.28 293.01 77.55 288.83 76.86 290.2 76.86 290.2 79.58 294.38"/><polygon class="e" points="76.34 300.7 76.34 300.7 77.04 299.34 77.04 299.34 77.04 299.34 76.34 300.7"/><polygon class="e" points="77.96 297.54 78.66 296.18 75.93 292 75.24 293.36 75.24 293.36 75.24 293.36 77.96 297.54"/><polygon class="e" points="70.69 293.57 70.69 293.57 70.69 293.57 70.69 293.57"/><polygon class="e" points="70.7 293.57 75.24 293.36 75.24 293.36 70.7 293.57"/><rect class="e" x="75.4" y="305.15" width="1.53"/><polygon class="e" points="76.34 300.7 77.04 299.34 77.04 299.34 74.32 295.15 73.62 296.52 76.34 300.7"/><polygon class="e" points="74.25 300.99 72.61 298.49 72.61 298.49 74.25 300.99"/><polygon class="e" points="72.88 307.46 72.88 307.46 73.58 306.11 73.58 306.11 73.58 306.11 72.88 307.46"/><polygon class="e" points="75.81 305.83 76.51 304.47 76.51 304.47 74.25 300.99 72.61 298.49 72.61 298.49 71.92 299.85 71.92 299.85 75.81 305.83"/><polygon class="e" points="71.96 309.26 71.96 309.26 71.96 309.26 71.26 310.63 71.26 310.63 71.26 310.63 71.96 309.26"/><polygon class="e" points="72.88 307.46 73.58 306.11 73.58 306.11 70.86 301.92 70.16 303.28 70.16 303.28 72.88 307.46"/><polygon class="e" points="69.65 313.79 69.65 313.79 70.34 312.43 70.34 312.43 70.34 312.43 69.65 313.79"/><polygon class="e" points="71.96 309.26 69.24 305.08 68.54 306.45 71.26 310.63 71.96 309.26 71.96 309.26"/><polygon class="e" points="68.54 306.45 71.26 310.63 71.26 310.63 68.54 306.45 63.99 306.67 63.99 306.67 63.99 306.67 68.54 306.45"/><polygon class="e" points="68.73 315.58 68.03 316.95 68.03 316.95 68.73 315.58 68.73 315.58 68.73 315.58"/><polygon class="e" points="69.65 313.79 70.34 312.43 70.34 312.43 67.62 308.25 66.93 309.6 66.93 309.6 69.65 313.79"/><polygon class="e" points="68.19 320.72 67.5 322.08 67.5 322.08 68.19 320.72 68.19 320.72 68.19 320.72"/><rect class="e" x="67.37" y="311" height="4.99"/><polygon class="e" points="68.03 316.95 68.73 315.58 68.73 315.58 66 311.4 66 311.4 65.31 312.77 65.31 312.77 68.03 316.95"/><polygon class="e" points="68.19 320.72 68.19 320.72 64.3 314.74 64.29 314.74 64.3 314.74 68.19 320.72"/><polygon class="e" points="64.57 323.71 64.57 323.71 65.26 322.35 65.26 322.35 65.26 322.35 64.57 323.71"/><polygon class="e" points="67.5 322.08 68.19 320.72 68.19 320.72 64.3 314.74 63.6 316.09 63.6 316.09 67.5 322.08"/><polygon class="e" points="62.95 326.87 62.95 326.87 63.65 325.51 63.65 325.51 63.65 325.51 62.95 326.87"/><polygon class="e" points="64.57 323.71 65.26 322.35 65.26 322.35 62.54 318.17 61.85 319.53 61.85 319.53 61.85 319.53 64.57 323.71"/><rect class="e" x="61.68" y="328.59" height="1.53"/><polygon class="e" points="62.95 326.87 63.65 325.51 63.65 325.51 60.93 321.33 60.23 322.69 60.23 322.69 62.95 326.87"/><polygon class="e" points="60.41 331.83 59.72 333.2 59.72 333.2 60.41 331.83 60.41 331.83 60.41 331.83"/><polygon class="e" points="61.34 330.03 62.03 328.68 62.03 328.68 59.31 324.49 59.31 324.49 59.31 324.49 58.61 325.85 58.61 325.85 61.34 330.03"/><polygon class="e" points="59.19 338.32 59.19 338.32 59.88 336.97 59.88 336.97 59.88 336.97 59.19 338.32"/><polygon class="e" points="60.41 331.83 60.41 331.83 57.69 327.65 57.68 327.65 57.69 327.65 60.41 331.83"/><polygon class="e" points="59.72 333.2 60.41 331.83 60.41 331.83 57.69 327.65 56.99 329.02 56.99 329.02 59.72 333.2"/><polygon class="e" points="50.74 332.56 50.74 332.56 50.74 332.56 50.74 332.56"/><polygon class="e" points="59.19 338.32 59.88 336.97 59.88 336.97 55.99 330.98 55.29 332.34 55.29 332.34 59.19 338.32"/><path class="g" d="M142,329.17l-.87-51.12-.68-40.48-.73-43.11-.44-26.16-8.66,16.93,3.89,6-.69,1.36-3.9-6-.82,1.6,2.72,4.18-.69,1.36-2.72-4.18-.93,1.8,2.72,4.18-.69,1.36-2.72-4.18-.92,1.8,2.72,4.18-.7,1.36-2.72-4.18-.92,1.8,2.72,4.19-.69,1.35L123.5,199l-1,2,3.89,6-.7,1.37-3.89-6-1.06,2.08,2.72,4.18-.69,1.36L120,205.79l-.92,1.81,2.72,4.18-.69,1.36L118.42,209l-.92,1.8,2.73,4.18-.7,1.36-2.72-4.19-.93,1.81,2.73,4.18-.7,1.36-2.72-4.18-1,2,3.9,6-.7,1.37-3.9-6-1.06,2.07,2.73,4.18-.7,1.36L111.73,222l-.92,1.81,2.72,4.18-.7,1.36-1.14-1.75-1.58-2.43-.92,1.79,2.72,4.19-.69,1.35-2.73-4.18-.92,1.81,2.72,4.18-.69,1.36-2.72-4.18-1,2,3.89,6-.69,1.36-3.9-6-1.06,2.07,2.72,4.18-.69,1.36-2.72-4.18-.92,1.8,2.72,4.18-.7,1.36-2.72-4.18-.92,1.8,2.72,4.18-.7,1.36-2.72-4.18-.92,1.81L102,250.6l-.7,1.36-2.72-4.19-1,2,3.89,6-.69,1.35-3.9-6-1.06,2.08,2.72,4.18-.7,1.36-2.72-4.18-.92,1.8,2.72,4.18-.69,1.36-2.73-4.18-.92,1.8,2.73,4.18-.7,1.36-2.72-4.18-.93,1.8,2.73,4.19L93,268.2,90.25,264l-1,2,3.9,6-.7,1.36-3.89-6-1.07,2.08,1.59,2.43,1.14,1.75-.7,1.36-2.72-4.19-.92,1.8,2.72,4.18-.7,1.37L85.17,274l-.92,1.8L87,279.93l-.69,1.36-2.73-4.18-.92,1.8,2.72,4.18-.69,1.36L83.08,282l-1.14-1.75-1,2,3.89,6-.69,1.36-3.9-6-1.06,2.07,2.72,4.18-.69,1.36L78.48,287l-.93,1.8L80.28,293l-.7,1.37-2.72-4.18L75.94,292l2.72,4.19-.7,1.35-2.72-4.18-.92,1.8L77,299.33l-.7,1.37-2.72-4.18-1,2L74.25,301l2.26,3.48-.69,1.36-3.9-6-1.06,2.08,2.72,4.18-.7,1.36-2.72-4.18-.92,1.8L72,309.26l-.7,1.37-2.72-4.19-.92,1.8,2.72,4.18-.69,1.36-2.72-4.18L66,311.4l2.72,4.18L68,317l-2.72-4.19-1,2,3.9,6-.7,1.35-3.89-6-1.07,2.08,2.73,4.18-.7,1.36-2.72-4.18-.92,1.8,2.72,4.18L63,326.87h0l-2.72-4.19-.92,1.81L62,328.67,61.34,330l-2.73-4.18-.92,1.8,2.73,4.18-.7,1.36L57,329l-1,2,3.89,6-.69,1.36-3.9-6-8.87,17.33,12.5-2,33.62-5.3,16-2.52L139.27,335l2.77-.44Zm-33.84-20.88L83.32,311.2l.17-.34,34.65-67.71,4.36-8.52.93,40.1.74,31.67Z"/><path class="h" d="M139.23,168.3,46.42,349.67l-4.55.22,92.8-181.37Z"/><polygon class="i" points="65.26 322.35 62.54 318.17 65.26 322.35 65.26 322.35"/><polygon class="j" points="140.4 237.57 123.43 274.73 122.5 234.63 118.14 243.15 83.49 310.86 83.32 311.2 108.11 308.29 92.54 342.4 58.92 347.7 139.67 194.46 140.4 237.57"/><polygon class="k" points="141.95 329.17 139.27 335.03 108.51 339.88 141.08 278.05 141.95 329.17"/><path class="l" d="M103.25,273.56c0,.12-.07.25-.11.37l-.08.26-.07.18c-.08.2-.17.4-.28.62l-.12.23c-.16.3-.34.61-.55.93s-.58.87-.9,1.3l-.26.34c-.34.44-.69.88-1.07,1.33A23.07,23.07,0,0,1,97,281.9,16.36,16.36,0,0,1,95.51,283a10.3,10.3,0,0,1-1.39.77h0l2.88-.72a13,13,0,0,0,2.88-1.89,23.16,23.16,0,0,0,2.82-2.78c.38-.44.73-.88,1.06-1.32l.26-.34.26-.35c.23-.32.44-.64.65-.95s.38-.63.54-.93l.07-.12,0-.12a6.64,6.64,0,0,0,.28-.62l.06-.12a.43.43,0,0,1,0,0,1.29,1.29,0,0,0,.08-.26c0-.09.07-.18.09-.26a.52.52,0,0,0,0-.11h0Z"/><polygon class="l" points="125.18 289.45 111.21 258.3 108.33 259.03 122.3 290.17 125.18 289.45"/><polygon class="l" points="134.12 285.39 131.24 286.12 134.99 294.5 106.43 307.44 109.31 306.72 137.88 293.78 134.12 285.39"/><path class="d" d="M108.33,259l14,31.14,8.94-4.05L135,294.5l-28.56,12.94-3.76-8.38,10-4.52-9.41-21a8.26,8.26,0,0,1-1.21,2.59,26.75,26.75,0,0,1-2.23,3A23.07,23.07,0,0,1,97,281.9a13.1,13.1,0,0,1-2.88,1.88l-3.88-8.65a9.07,9.07,0,0,0,2.74-2.2,29.28,29.28,0,0,0,2.73-3.53,34,34,0,0,0,2.12-3.58,6.43,6.43,0,0,0,.86-2.43Z"/><path class="m" d="M120.42,208.84q.39-.75.84-1.47c.24-.38.5-.74.77-1.09l.23-.3q.42-.54.9-1a13.12,13.12,0,0,1,2.44-2.06,11.45,11.45,0,0,1,3.15-1.37l.26-.07-2.88.73-.27.07a10.82,10.82,0,0,0-3.14,1.37,13.07,13.07,0,0,0-2.45,2.05c-.32.34-.61.69-.9,1l-.23.3c-.08.12-.18.23-.26.35s-.34.49-.5.74q-.45.72-.84,1.47l-.07.12h0c-.18.35-.34.69-.5,1l2.88-.72C120,209.61,120.22,209.22,120.42,208.84Z"/><path class="m" d="M127.86,192.6l1-.15.57-.07.81-.09.58,0c.34,0,.68,0,1,0h.55c.42,0,.81.05,1.21.09s.76.09,1.13.15c.19,0,.37.05.55.09s.59.14.88.21l.57.15c.26.08.51.18.76.27s.43.15.63.24a12.62,12.62,0,0,1,1.22.61l.1.07a10.85,10.85,0,0,1,1.24.85l.55.45.27.25a11.23,11.23,0,0,1,.83.86c.26.31.5.64.73,1,.07.11.13.22.2.32s.3.48.43.73.14.26.2.39.24.5.34.75.12.27.17.41c.14.37.27.75.38,1.15s.18.75.25,1.12.09.66.12,1c0,.11,0,.23,0,.34s0,.24,0,.37,0,.52,0,.78l0,.32a8.85,8.85,0,0,1-.12.9c-.06.34-.14.67-.22,1s-.25.86-.41,1.28c0,.09-.07.17-.1.26-.15.38-.31.75-.49,1.11-.09.18-.17.36-.27.54a20.11,20.11,0,0,1-1.19,1.89,17.57,17.57,0,0,1-1.33,1.66c-.95,1.08-1.91,2.06-2.84,2.94-.76.73-1.57,1.53-2.42,2.39s-1.69,1.79-2.49,2.77c-.31.38-.61.76-.88,1.15l-.1.15a19.05,19.05,0,0,0-1.11,1.75,3.9,3.9,0,0,0-.19.35l-.06.13a9.67,9.67,0,0,0-.47,1.05v0h0a8,8,0,0,0-.29.91l0,.09c-.05.2-.09.39-.13.59h0l2.88-.73c0-.22.1-.45.16-.67s.18-.61.29-.92l0,0c.13-.35.29-.7.46-1.05l.25-.49q.51-.89,1.11-1.74c.31-.44.63-.88,1-1.31.8-1,1.64-1.9,2.49-2.76s1.66-1.66,2.43-2.39c.93-.89,1.88-1.87,2.84-2.95a18.18,18.18,0,0,0,1.29-1.61l0,0a18.39,18.39,0,0,0,1.19-1.9l.18-.34a1.63,1.63,0,0,0,.09-.19c.18-.37.34-.74.49-1.11a1.08,1.08,0,0,0,.08-.19l0-.08c.15-.41.28-.84.4-1.27a.14.14,0,0,1,0-.07q.12-.47.21-.93l.06-.37c0-.18,0-.35.05-.53s0-.22,0-.33,0-.06,0-.1c0-.22,0-.45,0-.68s0-.24,0-.36v-.05c0-.1,0-.2,0-.3,0-.32-.06-.64-.12-1,0,0,0-.08,0-.12-.06-.33-.14-.66-.23-1s-.19-.64-.3-1a1.8,1.8,0,0,0-.08-.21l-.16-.4c-.11-.26-.22-.51-.34-.75l-.21-.4q-.2-.36-.42-.72l-.21-.32a11.7,11.7,0,0,0-.73-1c-.26-.31-.54-.59-.82-.87l-.28-.24c-.12-.11-.24-.23-.37-.33l-.17-.12a11.35,11.35,0,0,0-1.24-.85l-.09-.06h0a11.62,11.62,0,0,0-1.22-.62l-.13,0c-.16-.07-.33-.12-.5-.18s-.5-.19-.76-.27l-.09,0-.48-.11c-.29-.08-.58-.15-.88-.21l-.14,0-.4-.05q-.56-.09-1.14-.15l-.26,0-.94-.05h-1.09l-.49,0-.57,0-.82.09-.57.06-.16,0-.78.14-.47.08c-.48.1-1,.2-1.46.33l-2.89.72c.5-.12,1-.23,1.46-.32Z"/><polygon class="m" points="154.23 221.53 151.34 222.25 153.76 231.11 117.85 240.93 120.73 240.2 156.65 230.38 154.23 221.53"/><path class="e" d="M131.79,192.22h.55a15.62,15.62,0,0,1,5.73,1.2,11.49,11.49,0,0,1,4.21,3.09,12.37,12.37,0,0,1,2.45,4.72,10.61,10.61,0,0,1,.26,4.81,14.15,14.15,0,0,1-1.49,4.19,19.14,19.14,0,0,1-2.52,3.55c-.95,1.08-1.91,2.06-2.84,2.94-.76.73-1.57,1.53-2.42,2.39s-1.69,1.79-2.49,2.77a20.9,20.9,0,0,0-2.09,3.05A10.34,10.34,0,0,0,130,228.1l21.38-5.85,2.42,8.86-35.91,9.82a31.93,31.93,0,0,1-1.1-6.11,15.74,15.74,0,0,1,.51-5.45,18.22,18.22,0,0,1,2.42-5.23,32.43,32.43,0,0,1,4.67-5.45c1.7-1.61,3.21-3,4.56-4.28s2.46-2.33,3.34-3.31a9.75,9.75,0,0,0,1.85-2.75,4.06,4.06,0,0,0,.15-2.67,5,5,0,0,0-2.82-3.28,6.21,6.21,0,0,0-2.75-.59,11.94,11.94,0,0,0-6,1.79,13.07,13.07,0,0,0-2.45,2.05,16.12,16.12,0,0,0-1.89,2.44,20.89,20.89,0,0,0-1.41,2.63l-8.38-5.5a17,17,0,0,1,2.14-3,27.83,27.83,0,0,1,3.6-3.43,33,33,0,0,1,4.88-3.22,28.74,28.74,0,0,1,6.1-2.42A24.78,24.78,0,0,1,131.79,192.22Z"/><path class="l" d="M192.49,214.72c-.33,0-.66.05-1,.05s-.91,0-1.38-.06c-.3,0-.59,0-.9-.08-.63-.07-1.24-.17-1.82-.28l-1-.23c-.29-.07-.59-.14-.86-.22s-.39-.14-.59-.21-.64-.23-.95-.36l-.54-.28a9.66,9.66,0,0,1-1-.54,13.73,13.73,0,0,1-1.25-.91,10.89,10.89,0,0,1-1-.92,3.83,3.83,0,0,1-.28-.29c-.24-.25-.47-.51-.69-.77l-.26-.33a14.23,14.23,0,0,1-.83-1.16l-2.88.73c.26.4.54.79.83,1.16.08.11.17.21.26.32.22.27.45.52.68.77l.28.3a12.51,12.51,0,0,0,1,.91h0a14.17,14.17,0,0,0,1.25.9l.42.26c.19.11.39.19.58.29s.36.19.55.27l.17.08c.25.11.52.19.78.28s.38.15.59.21l.12,0c.23.07.49.12.73.18s.63.17,1,.23l.14,0c.54.1,1.1.18,1.68.25l.73.07h.16c.48,0,.95.06,1.39.06H189l.56-.05.83-.07.21,0a10.44,10.44,0,0,0,1-.2l2.89-.73a12,12,0,0,1-1.25.23Z"/><path class="l" d="M187.25,179a10.85,10.85,0,0,1,1.77-.6l-2.89.73a12.12,12.12,0,0,0-1.76.59,12.54,12.54,0,0,0-5.05,3.94l2.89-.73A12.49,12.49,0,0,1,187.25,179Z"/><path class="l" d="M193.13,191.47c-.32,0-.64.05-1,.05s-.83,0-1.26-.05l-.79-.07-2.38-.27-2.88.72,2.38.27.63.07H188c.43,0,.85.06,1.26.06h.41l.56-.05c.27,0,.54,0,.79-.07h.21c.36-.06.7-.12,1-.21l2.88-.72a9.41,9.41,0,0,1-1.24.22Z"/><path class="l" d="M212,183.69c0-.22,0-.44,0-.65s0-.26,0-.39,0-.23,0-.34,0-.48-.09-.72,0-.24,0-.35l-.12-.52c0-.07,0-.14,0-.21-.08-.33-.18-.64-.29-1,0-.1-.07-.2-.11-.3a12.33,12.33,0,0,0-3.13-4.58c-.26-.25-.52-.48-.8-.71l-.18-.13-.46-.34c-.23-.17-.47-.34-.72-.5l-.51-.33-.36-.22c-.16-.1-.33-.18-.49-.27l-.38-.2c-.44-.22-.88-.44-1.35-.64l-.12-.05-.21-.08c-.57-.23-1.15-.44-1.76-.63l-.27-.1c-.1,0-.22,0-.33-.08-.62-.17-1.25-.32-1.9-.45l-.3-.07-.11,0c-.66-.12-1.34-.23-2-.3l-1-.1h-.26c-.74-.05-1.48-.09-2.21-.09h-.79q-.83,0-1.65.09c-.64.06-1.27.13-1.88.22l-.29.05-.36.06c-.67.12-1.34.25-2,.41l-2.89.72c.64-.16,1.3-.29,2-.4l.36-.06q1.05-.18,2.16-.27c.81-.07,1.63-.11,2.44-.11s1.47,0,2.21.09c.42,0,.84.06,1.26.11.7.08,1.37.18,2,.3l.42.09c.65.13,1.28.28,1.9.46.2.06.4.11.6.18a18,18,0,0,1,1.75.63l.34.12c.46.2.91.42,1.35.64l.38.21.85.49.51.32c.25.16.49.33.72.5s.31.22.45.34q.52.4,1,.84a12.41,12.41,0,0,1,3.13,4.59,10.7,10.7,0,0,1,.4,1.25c0,.07,0,.14,0,.21.07.29.12.58.17.88l.09.71c0,.24,0,.48,0,.73s0,.43,0,.65c0,.39,0,.77-.06,1.17s-.08.55-.12.82-.12.63-.19.94c0,.11-.05.22-.07.33-.11.4-.23.8-.38,1.19s-.24.63-.39.93-.21.42-.31.62a12.18,12.18,0,0,1-.83,1.35l-.38.51-.2.26c-.21.25-.43.5-.67.74a11.74,11.74,0,0,1-3.4,2.43,8.65,8.65,0,0,1-1,.42l-.14-.05-.11,0-2.88.73a2.29,2.29,0,0,1,.28.09c.4.13.79.26,1.17.42l.39.17c.36.16.72.33,1.06.52l.28.16.31.19c.2.12.4.25.59.39l.32.24.52.42.31.28c.17.15.33.3.48.46a4,4,0,0,1,.28.3c.17.17.32.36.48.55l.22.27q.33.44.63.9a12.63,12.63,0,0,1,.68,1.19l.18.38c.13.29.26.58.37.89.07.16.13.33.19.5s.09.29.13.44.12.43.17.64.08.3.11.45,0,.3.08.45c.07.42.12.85.15,1.28,0,.11,0,.22,0,.33,0,.51,0,1,0,1.55s0,.77-.08,1.16-.13.83-.2,1.24c-.05.26-.1.51-.16.76s-.15.59-.24.88-.13.44-.2.66-.21.53-.32.79-.2.47-.31.7a13.13,13.13,0,0,1-.68,1.22,12.09,12.09,0,0,1-.72,1l-.38.48c-.2.23-.41.46-.62.68l-.41.41c-.24.23-.5.45-.76.66s-.25.22-.38.31c-.41.31-.83.6-1.27.87a18.39,18.39,0,0,1-5,2l2.89-.72c.46-.12.92-.25,1.36-.39a17.67,17.67,0,0,0,3.63-1.64,12.91,12.91,0,0,0,1.27-.87l.38-.31c.26-.22.52-.43.77-.66l.4-.42c.22-.22.43-.44.62-.67s.26-.32.38-.48.21-.24.3-.37.29-.42.42-.63.41-.68.6-1c0-.06.05-.13.08-.2.11-.22.21-.46.31-.69s.17-.37.25-.56a2,2,0,0,1,.07-.23c.08-.22.14-.44.21-.67s.12-.37.18-.56,0-.21.06-.31.1-.51.15-.76.08-.36.11-.54l.09-.7c0-.36.06-.72.08-1.07v-.09c0-.53,0-1,0-1.55a.41.41,0,0,1,0-.11,1.6,1.6,0,0,1,0-.23c0-.43-.09-.85-.16-1.27l0-.24c0-.07,0-.14-.05-.21s-.07-.3-.1-.45-.11-.43-.17-.64-.09-.3-.14-.45l-.09-.27-.09-.23c-.12-.3-.25-.6-.38-.89l-.18-.37a11.8,11.8,0,0,0-.67-1.2c-.2-.31-.42-.61-.64-.89-.07-.1-.15-.18-.22-.27s-.31-.38-.47-.56l-.29-.29-.47-.47-.32-.28-.22-.19c-.09-.08-.19-.14-.29-.22L205,198c-.19-.14-.39-.27-.59-.39l-.3-.2-.09-.05-.2-.1a11.64,11.64,0,0,0-1.06-.53l-.2-.1-.19-.07c-.36-.14-.72-.27-1.1-.39l1.71-.43A11.15,11.15,0,0,0,205,195a12.08,12.08,0,0,0,3.39-2.43c.24-.24.46-.49.68-.75.07-.08.13-.17.2-.26s.23-.28.33-.43l0-.07a13.11,13.11,0,0,0,.82-1.35.57.57,0,0,1,.08-.13l.24-.49c.13-.29.26-.59.37-.89l0-.05c.14-.39.26-.78.37-1.19a.19.19,0,0,0,0-.07c0-.08,0-.17,0-.25.08-.31.14-.62.19-.94,0-.07,0-.13,0-.19,0-.21.06-.42.08-.63s.05-.56.06-.83C212,183.91,212,183.8,212,183.69Z"/><path class="d" d="M189.48,170.07a31.33,31.33,0,0,1,3.47.2,24.8,24.8,0,0,1,7,1.78,18.11,18.11,0,0,1,5.25,3.34,12.41,12.41,0,0,1,3.13,4.59,11.84,11.84,0,0,1,.69,5.6,13,13,0,0,1-1.15,4.21,12.25,12.25,0,0,1-2.39,3.48,11.74,11.74,0,0,1-3.4,2.43,10.79,10.79,0,0,1-4.12,1.07,12.53,12.53,0,0,1,7.32,5.36,13.88,13.88,0,0,1,2,9.26,14.32,14.32,0,0,1-2.11,6.25,13.59,13.59,0,0,1-4.54,4.41,19.17,19.17,0,0,1-6.63,2.38,26.21,26.21,0,0,1-4.61.39,32.23,32.23,0,0,1-3.73-.22,27.38,27.38,0,0,1-10.21-3,18.72,18.72,0,0,1-6.85-6.22l6.6-6.5a14.08,14.08,0,0,0,4.32,4.37,15.54,15.54,0,0,0,6.73,2.13,20.38,20.38,0,0,0,2.28.13,10.28,10.28,0,0,0,5.09-1.13,6.41,6.41,0,0,0,3.09-5.3,7.14,7.14,0,0,0-2.21-6.35c-1.74-1.62-4.54-2.64-8.38-3.07l-2.14-.25.79-7.54,2.38.27a18.5,18.5,0,0,0,2.05.13,10.07,10.07,0,0,0,5.47-1.38,6.47,6.47,0,0,0,3.17-5,5.36,5.36,0,0,0-1.62-4.84,9.49,9.49,0,0,0-5.42-2.12,13.6,13.6,0,0,0-1.67-.1,12.18,12.18,0,0,0-4.83,1,12.54,12.54,0,0,0-5.05,3.94l-5.7-7.82A12,12,0,0,1,177,173.1a20.42,20.42,0,0,1,4.59-1.93,27.43,27.43,0,0,1,5.42-1C187.85,170.11,188.67,170.07,189.48,170.07Z"/><polygon class="m" points="381.75 242.72 384.64 242 386.25 230.82 383.37 231.54 381.75 242.72"/><polygon class="m" points="378.01 204.22 362.34 219.15 375.57 221.16 378.45 220.44 365.23 218.43 380.89 203.49 378.01 204.22"/><polygon class="m" points="387.55 221.82 392.2 189.65 385.16 188.58 382.28 189.3 389.31 190.37 384.67 222.54 391.4 223.57 390.09 232.57 392.98 231.84 394.28 222.85 387.55 221.82"/><path class="e" d="M384.67,222.54l6.73,1-1.31,9-6.72-1-1.62,11.18-10.24-1.56L373.12,230l-22.33-3.38,1.29-8.93,30.2-28.37,7,1.07Zm-9.1-1.37L378,204.22l-15.67,14.93,13.23,2"/><path class="l" d="M418.31,252.25l-2.88.72a9.14,9.14,0,0,0-3.28,1.57l2.88-.72A9,9,0,0,1,418.31,252.25Z"/><path class="l" d="M422.32,269.82c-.23,0-.46,0-.7,0s-.55,0-.83,0a8.75,8.75,0,0,1-1-.14l-.12,0-1-.24c-.26-.08-.51-.15-.77-.25a13.07,13.07,0,0,1-1.22-.51q-.37-.17-.72-.36c-.34-.18-.68-.37-1-.58l-.21-.13a13,13,0,0,1-1.21-.93l-.26-.22c-.39-.36-.78-.72-1.15-1.13s-.77-.9-1.12-1.37l-.32-.49c-.22-.32-.44-.64-.64-1s-.22-.42-.33-.62-.34-.62-.48-.94-.2-.47-.29-.71-.32-.76-.45-1.15l-2.89.72.15.43c.09.25.2.49.3.73s.19.47.29.7.32.63.49.95l.32.61c.2.34.43.66.65,1,.11.16.2.33.32.48a16.46,16.46,0,0,0,1.12,1.38,15.15,15.15,0,0,0,1.15,1.12l.26.23.22.2a11.33,11.33,0,0,0,1,.72l.2.13c.21.14.41.27.62.39l.38.19.72.36c.14.06.26.14.39.2l.83.32.65.21.13,0c.33.09.66.18,1,.24l.1,0h0c.34.06.68.1,1,.13H418l.78,0H419l.44,0,.51,0h.11a8,8,0,0,0,.85-.17l2.88-.72a9.6,9.6,0,0,1-1,.17C422.66,269.8,422.49,269.8,422.32,269.82Z"/><path class="l" d="M441,261c0-.26,0-.53,0-.79a.76.76,0,0,0,0-.15,15.26,15.26,0,0,0-.23-1.8.25.25,0,0,1,0-.09c-.09-.45-.2-.91-.32-1.35,0-.12-.08-.23-.11-.35s-.14-.49-.23-.73l-.15-.39-.15-.36a13.77,13.77,0,0,0-.63-1.35,17.52,17.52,0,0,0-4.3-5.24l-.2-.16c-.4-.32-.8-.63-1.22-.92l-.07,0c-.4-.27-.8-.52-1.22-.77l-.16-.08-.34-.18c-.38-.21-.77-.41-1.18-.59l-.4-.19-.26-.12c-.44-.18-.88-.36-1.34-.52l-1-.31-.09,0c-.48-.14-.94-.25-1.39-.34l-.08,0-.32,0c-.25,0-.5-.08-.73-.1l-.15,0-.72,0h-.29c-.12,0-.23,0-.34,0l-.53,0-.15,0a5.67,5.67,0,0,0-.62.12l-1,.24,5.85-10.51-2.89.72-5.92,10.67,2.25-.57h.1c.21,0,.41,0,.64,0a8.43,8.43,0,0,1,.86.05l.74.1.4.07a13.83,13.83,0,0,1,1.38.34c.35.1.7.21,1.07.34.55.19,1.08.41,1.6.63l.4.19c.4.19.8.38,1.18.59l.34.18c.47.27.93.55,1.38.86l.06,0c.5.34,1,.7,1.43,1.08a17.55,17.55,0,0,1,4.3,5.24c.23.44.44.89.63,1.34.05.12.1.24.14.37.15.36.27.74.39,1.12l.1.34a14.52,14.52,0,0,1,.34,1.45c.1.58.18,1.18.23,1.79,0,.31,0,.63,0,.95s0,.58,0,.87-.05.57-.07.85-.05.62-.09.93-.1.5-.15.75-.12.72-.21,1.08c-.14.56-.3,1.12-.5,1.68-.13.38-.29.74-.43,1.1s-.34.82-.53,1.21-.36.72-.56,1.07l-.14.25c-.27.44-.56.87-.86,1.28a15.67,15.67,0,0,1-1.33,1.6,17,17,0,0,1-5.86,4,16.81,16.81,0,0,1-2.4.78l2.88-.72a18.7,18.7,0,0,0,2.4-.78,17.2,17.2,0,0,0,5.87-4,16,16,0,0,0,1.33-1.61c0-.05.08-.09.11-.14.26-.36.51-.74.74-1.13l.14-.25.4-.71c.06-.12.1-.25.16-.37.19-.39.36-.79.53-1.2.07-.17.15-.32.22-.5s.15-.4.21-.6c.18-.52.34-1,.47-1.56l0-.12c.09-.37.15-.73.22-1.09s.1-.44.13-.66a.28.28,0,0,0,0-.09c.05-.31.06-.62.09-.93s.07-.51.08-.76v-.08C441,261.56,441,261.27,441,261Z"/><polygon class="l" points="422.8 222.63 419.91 223.35 445.49 232.34 442.51 241.08 445.39 240.36 448.37 231.62 422.8 222.63"/><path class="d" d="M419.91,223.35l25.58,9-3,8.74L424,234.58l-5.92,10.67a6.39,6.39,0,0,1,3-.61,13.68,13.68,0,0,1,4.45.9,20.31,20.31,0,0,1,6.39,3.57,17.7,17.7,0,0,1,4.3,5.24,16.15,16.15,0,0,1,1.83,6.41,17.85,17.85,0,0,1-1,7.11,16.83,16.83,0,0,1-9.71,10.5,19.35,19.35,0,0,1-7.26,1.37,23.61,23.61,0,0,1-8-1.42,23.2,23.2,0,0,1-9.4-5.94,17.85,17.85,0,0,1-4.63-8.85l7.58-3.75a17.27,17.27,0,0,0,3.64,6.26A14.07,14.07,0,0,0,415,269.9a11.35,11.35,0,0,0,3.73.68,8.72,8.72,0,0,0,3.53-.73,8.33,8.33,0,0,0,4.63-5.31,8.45,8.45,0,0,0-.32-6.85,8.87,8.87,0,0,0-5.25-4.41,10.48,10.48,0,0,0-3.47-.61,11,11,0,0,0-1.39.1,9.12,9.12,0,0,0-4.32,1.77l-8.55-3a14.55,14.55,0,0,1,.84-1.5l1.95-3.33q1.19-2,2.61-4.53c.95-1.68,1.94-3.37,3-5.1Q415.52,231,419.91,223.35Z"/><path class="m" d="M424,331.68c-.25,0-.51,0-.76,0h0q-.45,0-.9-.12l-.26-.06c-.24-.05-.47-.1-.71-.17l-.41-.12a8.39,8.39,0,0,1-.88-.33,8.77,8.77,0,0,1-.92-.46l-.06,0a9.71,9.71,0,0,1-1.07-.74c-.18-.14-.37-.28-.54-.44a11.5,11.5,0,0,1-2.39-3.09,9.12,9.12,0,0,1-.53-1.2c-.05-.14-.11-.28-.16-.43l-.09-.3c-.06-.21-.11-.43-.16-.64a2,2,0,0,1-.05-.24c-.06-.3-.11-.62-.15-.93s0-.47,0-.71v-.55c0-.17,0-.33,0-.5s0-.32,0-.48.05-.33.08-.5.06-.32.09-.48.12-.51.2-.76.17-.46.26-.69.16-.39.26-.58a3,3,0,0,1,.18-.36,7.09,7.09,0,0,1,.58-.95l0-.05a8.94,8.94,0,0,1,.62-.76,10.52,10.52,0,0,1,3-2.32,9.67,9.67,0,0,1,2-.77l-2.88.73a8.94,8.94,0,0,0-2,.76,10.56,10.56,0,0,0-3,2.32c-.22.25-.42.5-.61.76h0l0,0a10,10,0,0,0-.58.95l-.07.12c0,.07-.07.16-.11.24s-.18.39-.26.59-.06.12-.08.19-.12.33-.17.5a4.61,4.61,0,0,0-.15.53c0,.07,0,.15-.05.22s-.07.32-.1.49,0,.17-.05.26,0,.16,0,.23,0,.33,0,.49l0,.26c0,.08,0,.15,0,.23s0,.37,0,.55v.28c0,.14,0,.28,0,.43a8.29,8.29,0,0,0,.13.87s0,.05,0,.07a1.89,1.89,0,0,1,.05.23c.05.22.11.43.17.65l.09.29.09.28c0,.06,0,.1.07.16a9.12,9.12,0,0,0,.53,1.2,11.07,11.07,0,0,0,2.39,3.08l.4.35.14.09a8.92,8.92,0,0,0,1.07.75h0l.05,0c.3.17.61.32.92.46l.07,0c.26.11.54.22.82.31l.24.07.17,0c.23.07.47.13.71.18l.16,0h.1l.9.12h0c.25,0,.5,0,.76,0h.25c.22,0,.44,0,.67,0a4,4,0,0,0,.5-.06c.34-.05.68-.12,1-.2l2.88-.72a10.83,10.83,0,0,1-1.51.26C424.65,331.66,424.35,331.68,424,331.68Z"/><path class="m" d="M418.07,305.39l.3-.75c.12-.27.23-.54.35-.8l.33-.69.37-.74c.12-.21.23-.42.35-.62l.41-.67c.12-.2.25-.38.37-.57s.3-.43.46-.64l.33-.42c.17-.21.34-.41.52-.61l.33-.36c.2-.21.4-.4.6-.58l.3-.28c.31-.26.62-.51.94-.74a10.21,10.21,0,0,1,3.37-1.57l-2.88.72a10,10,0,0,0-3.37,1.58,10.61,10.61,0,0,0-.95.74c-.1.08-.19.18-.29.27s-.41.38-.6.58-.23.24-.34.37-.35.39-.51.6a4.46,4.46,0,0,0-.33.43,4.19,4.19,0,0,0-.26.33c-.07.1-.13.21-.2.3s-.25.38-.37.57-.28.44-.41.67l-.35.63a3.07,3.07,0,0,0-.17.31c-.07.13-.14.29-.21.43s-.22.45-.32.68-.24.54-.35.81-.21.49-.3.74-.09.21-.13.32c-.13.34-.25.69-.37,1.05l2.88-.72C417.73,306.29,417.9,305.84,418.07,305.39Z"/><path class="m" d="M443.93,321.81c0-.15,0-.31,0-.47s0-.55-.07-.83c-.05-.45-.12-.89-.2-1.33l-.06-.25c0-.18-.08-.35-.12-.53-.08-.36-.17-.71-.28-1.06-.05-.19-.11-.37-.17-.55s-.07-.25-.12-.37-.18-.45-.27-.68-.12-.32-.19-.47c-.22-.49-.45-1-.71-1.45a15.7,15.7,0,0,0-.93-1.51c-.08-.12-.19-.24-.28-.36-.25-.36-.51-.71-.8-1.05-.15-.18-.32-.35-.48-.52s-.49-.55-.76-.81-.4-.36-.6-.54-.5-.47-.78-.69v0c-.46-.36-.93-.71-1.42-1l-.48-.3c-.24-.15-.47-.31-.72-.45l-.37-.2-.38-.21c-.49-.25-1-.49-1.49-.71l-.07,0h0c-.59-.25-1.2-.48-1.82-.68l-.43-.13a2.27,2.27,0,0,0-.25-.06c-.43-.13-.86-.23-1.28-.32l-.25-.06H428a14.25,14.25,0,0,0-1.42-.2h0c-.37,0-.75-.05-1.12-.05h-.36l-.24,0c-.35,0-.7.05-1,.09l-.24,0-.33.05-.93.2-2.89.73c.31-.08.62-.15.94-.2l.56-.08,1.05-.09.6,0c.38,0,.76,0,1.15.05a14.19,14.19,0,0,1,1.42.19l.37.08c.42.08.85.19,1.28.31l.67.19c.64.21,1.25.44,1.85.69l.06,0c.52.22,1,.46,1.5.72l.38.2c.37.21.73.43,1.09.65l.48.31c.48.33,1,.67,1.41,1,.28.22.52.46.78.69s.42.36.62.55.49.52.73.79.35.35.51.54.47.61.7.92.26.32.38.49c.33.49.64,1,.93,1.51s.49,1,.71,1.45c.07.16.12.32.19.47q.21.53.39,1.05c.06.18.11.37.17.55.1.35.19.7.28,1.06l.12.54c.1.52.2,1,.26,1.57s.06.87.08,1.31,0,.62,0,.93,0,.6,0,.91-.05.56-.08.84-.09.61-.14.92-.11.58-.18.88c-.11.47-.22.94-.37,1.41s-.33.92-.51,1.37-.31.73-.48,1.09-.27.58-.43.86c-.06.12-.13.24-.2.36a15.33,15.33,0,0,1-.88,1.38,16.5,16.5,0,0,1-1.18,1.47,18.42,18.42,0,0,1-9.28,5.62l2.88-.73a18.11,18.11,0,0,0,3.49-1.25,18.84,18.84,0,0,0,5.8-4.37,18.36,18.36,0,0,0,1.18-1.46v0c.31-.44.6-.9.87-1.37l.2-.35c.06-.12.14-.24.21-.37s.14-.33.21-.5c.17-.35.34-.71.48-1.08.05-.13.12-.24.16-.36.13-.33.24-.67.35-1s.2-.68.29-1c0-.13,0-.26.08-.4.07-.29.13-.58.18-.88s.08-.33.1-.5,0-.28,0-.42.06-.56.08-.84,0-.32.05-.48,0-.28,0-.43C443.94,322.43,443.94,322.12,443.93,321.81Z"/><path class="m" d="M425.23,287.06l.35,0c.36,0,.72,0,1.09,0s1,0,1.52.06,1.22.14,1.84.25c.44.08.87.16,1.31.27l.14,0c.5.12,1,.26,1.49.42.78.26,1.52.55,2.24.87.11,0,.21.1.32.15a19.57,19.57,0,0,1,1.93,1l.34.22c.53.32,1,.67,1.53,1l.42.32a19.79,19.79,0,0,1,1.7,1.48A19,19,0,0,1,443,294.8l.06.08a18.74,18.74,0,0,1,1.29,1.78l.1.15a18.32,18.32,0,0,1,1.06,1.89l.1.2c.31.65.59,1.31.84,2,.06.17.13.33.19.49l-7.59,4.23,2.89-.73,7.58-4.22-.12-.34-.06-.15a21,21,0,0,0-.84-2l-.11-.21q-.48-1-1.05-1.89a.71.71,0,0,1-.1-.14,20.84,20.84,0,0,0-1.29-1.79l-.07-.07a20.67,20.67,0,0,0-1.55-1.7c-.45-.44-.93-.87-1.42-1.27-.09-.07-.19-.13-.28-.21l-.42-.31c-.49-.37-1-.71-1.52-1a3.37,3.37,0,0,0-.35-.22l-.16-.11c-.57-.32-1.16-.62-1.76-.9l-.33-.15-.34-.15c-.61-.26-1.24-.5-1.89-.71l-.56-.17c-.32-.1-.63-.18-.94-.26l-.13,0c-.39-.1-.77-.18-1.15-.25l-.17,0c-.61-.11-1.23-.19-1.84-.24h0q-.75-.06-1.5-.06h-.49l-.6,0-.35,0c-.39,0-.79.08-1.18.13h-.06c-.55.09-1.09.2-1.63.33l-2.88.72c.53-.13,1.08-.24,1.63-.32S424.81,287.09,425.23,287.06Z"/><path class="e" d="M438.85,314.54a18.27,18.27,0,0,1,2.12,6.69A18,18,0,0,1,436.56,335a18.65,18.65,0,0,1-5.79,4.36,19.28,19.28,0,0,1-7.24,1.83c-.39,0-.77,0-1.16,0a21.93,21.93,0,0,1-6.82-1.12,20.67,20.67,0,0,1-7.49-4.18,17.61,17.61,0,0,1-4.62-6.59,22.76,22.76,0,0,1-1.54-8.66,34.91,34.91,0,0,1,1.76-10.37A49.92,49.92,0,0,1,409,298.35a28.39,28.39,0,0,1,6.89-7.7A17.79,17.79,0,0,1,424,287.2a17.09,17.09,0,0,1,2.68-.2,20.27,20.27,0,0,1,6.3,1,21.44,21.44,0,0,1,8.48,5.07,20.74,20.74,0,0,1,5.19,8.28l-7.59,4.23a13.11,13.11,0,0,0-3.22-5.75,13.31,13.31,0,0,0-5.63-3.5,11.17,11.17,0,0,0-3.43-.58,9.58,9.58,0,0,0-5.62,1.86q-4.11,2.88-6.46,9.83a10.74,10.74,0,0,1,5.64-2.7,12.44,12.44,0,0,1,2.21-.19,15.76,15.76,0,0,1,4.89.82,20.64,20.64,0,0,1,6.77,3.64A18.61,18.61,0,0,1,438.85,314.54Zm-8,10.83a9.29,9.29,0,0,0,.38-3.9,11,11,0,0,0-1.12-3.66,9.76,9.76,0,0,0-2.43-3,10.52,10.52,0,0,0-3.52-1.94,10.67,10.67,0,0,0-3.28-.53l-.71,0a9.57,9.57,0,0,0-3.69,1,10.56,10.56,0,0,0-3,2.32,9.17,9.17,0,0,0-1.91,3.4,9.7,9.7,0,0,0-.4,4,10.1,10.1,0,0,0,1.14,3.75,11.07,11.07,0,0,0,2.39,3.08,9.26,9.26,0,0,0,3.47,2,9.76,9.76,0,0,0,3,.49c.3,0,.61,0,.92,0a10,10,0,0,0,3.71-1.1,10.22,10.22,0,0,0,3.08-2.41,9.44,9.44,0,0,0,1.94-3.47"/><polygon class="n" points="326.67 414.61 201.59 414.61 189.15 401.46 273.66 316.95 403.86 316.95 326.67 414.61"/><polygon class="o" points="384.74 341.15 210.81 379.81 273.66 316.95 403.86 316.95 384.74 341.15"/><polygon class="p" points="201.59 414.61 189.15 401.46 207.62 394.79 201.59 414.61"/><polygon class="q" points="397.41 333.68 214.95 376.39 215.79 325.71 398.18 287.3 397.41 333.68"/><polygon class="r" points="215.79 325.71 103.34 297.51 285.72 259.1 398.18 287.3 215.79 325.71"/><path class="s" d="M106.5,299.4l-.79,47.48S213.09,374.49,215,374.75l.81-48.86Z"/><polygon class="t" points="212.48 324.88 212.48 324.88 103.34 297.51 103.31 299.13 212.43 327.49 211.68 372.92 102.54 345.55 102.52 347.17 214.95 376.39 215 373.75 215.75 328.35 215.79 325.71 212.48 324.88"/><text class="u" transform="matrix(1, -0.24, 0, 1, 224, 360.24)">TRIGONOMET<tspan class="v" x="137.61" y="0">R</tspan><tspan x="151.45" y="0">Y</tspan></text><polygon class="w" points="102.54 345.55 105.76 343.99 105.72 346.35 102.54 345.55"/><path class="x" d="M124,233.53q-.19-1.23-.42-2.46l170.19,37,.37,24.2-.37-22.2Z"/><path class="y" d="M294.57,321.28l-171-36.89c.1-.69.19-1.39.28-2.08l170.67,36.56Z"/><polygon class="z" points="237.21 252.89 406.63 292.34 406.63 239.88 236.44 202.86 237.21 252.89"/><polygon class="aa" points="293.76 268.09 406.22 239.88 236.03 202.86 123.58 231.06 293.76 268.09"/><path class="ab" d="M403.06,243.63l.78,47.42s-107.37,27.57-109.26,27.83l-.81-48.8Z"/><path class="ac" d="M126.61,282.81c2.27-17,2.64-33.35.14-48.78l167,36.06.37,22.2.39,26.58Z"/><polygon class="ad" points="294.57 318.89 294.53 318.87 294.14 292.3 294.57 318.89"/><polygon class="ae" points="293.76 268.09 406.22 239.88 406.22 292.34 294.58 321.28 294.58 318.88 403.84 291.05 403.84 243.63 293.77 270.08 293.76 268.09"/><path class="af" d="M339,218.79h0a1,1,0,0,1,.18.29.3.3,0,0,1,0,.1,3.22,3.22,0,0,1,.17.5,4.92,4.92,0,0,1,0,2.45.38.38,0,0,1-.17.21h0l5.21-2s0,0,0,0a1.06,1.06,0,0,0,0-.53.36.36,0,0,0-.06-.15l0,0s0,0,0,0l-5.51-.86h0A.21.21,0,0,1,339,218.79Z"/><polygon class="ag" points="328.8 226.26 328.8 226.26 328.8 226.26 328.8 226.26"/><path class="ah" d="M328,217h0a.8.8,0,0,1,.23.16.23.23,0,0,1,.07.07l.19.24a.35.35,0,0,0,0,.08,4.42,4.42,0,0,1,.23.44.61.61,0,0,0,.05.12c.06.14.11.29.17.46l.06.18c.07.21.13.44.2.7.55,2.26.57,5.07,0,6.26a1.17,1.17,0,0,1-.23.37.24.24,0,0,1-.08.06l-.12.09h0l10.34-3.91h0a.38.38,0,0,0,.17-.21,4.92,4.92,0,0,0,0-2.45,3.22,3.22,0,0,0-.17-.5.3.3,0,0,0,0-.1,1,1,0,0,0-.18-.29h0a.21.21,0,0,0-.14-.08h0L327.89,217h-.05A.34.34,0,0,1,328,217Z"/><path class="ai" d="M328.8,226.26h.05l.12-.09A.47.47,0,0,1,328.8,226.26Z"/><path class="ai" d="M328.8,218.14a.61.61,0,0,1-.05-.12A.61.61,0,0,0,328.8,218.14Z"/><path class="ai" d="M329,218.78l-.06-.18Z"/><path class="ai" d="M329.28,225.74a1.17,1.17,0,0,1-.23.37A1.17,1.17,0,0,0,329.28,225.74Z"/><path class="ai" d="M328,217Z"/><path class="ai" d="M328.52,217.58a.35.35,0,0,1,0-.08A.35.35,0,0,0,328.52,217.58Z"/><path class="ai" d="M328.21,217.19a.46.46,0,0,1,.07.07A.23.23,0,0,0,328.21,217.19Z"/><path class="aj" d="M194.27,231a.69.69,0,0,1,.23.16.23.23,0,0,1,.07.07,2.51,2.51,0,0,1,.19.24.35.35,0,0,0,.05.08,4.42,4.42,0,0,1,.23.44.61.61,0,0,0,.05.12c.06.14.11.29.17.46l.06.18c.07.21.13.44.2.7.55,2.26.58,5.07,0,6.26a1.39,1.39,0,0,1-.22.37s0,0,0,0l-.07,0a.47.47,0,0,1-.17.09l0,0,9.75-1,9.44-1,17.81-1.86,10.54-1.1,2.87-.3,21.72-2.26,11.2-1.17,2.76-.28,10.66-1.11,17.74-1.85,9.5-1,9.72-1,0,0h0a.47.47,0,0,0,.17-.09.24.24,0,0,0,.08-.06,1.17,1.17,0,0,0,.23-.37c.52-1.19.5-4,0-6.26-.07-.26-.13-.49-.2-.7l-.06-.18c-.06-.17-.11-.32-.17-.46a.61.61,0,0,1-.05-.12,4.42,4.42,0,0,0-.23-.44.35.35,0,0,1,0-.08l-.19-.24a.46.46,0,0,0-.07-.07A.8.8,0,0,0,328,217h0a.34.34,0,0,0-.14,0h0l-9.73,1-9.47,1-17.78,1.85L280.24,222l-2.85.29-11.16,1.17-21.73,2.26-2.85.3-10.59,1.1-17.78,1.85-9.46,1-9.73,1a.57.57,0,0,1,.18,0Z"/><path class="ag" d="M194.5,231.12a.23.23,0,0,1,.07.07A.23.23,0,0,0,194.5,231.12Z"/><path class="ag" d="M194.27,231Z"/><path class="ag" d="M195.09,232.07A.61.61,0,0,1,195,232,.61.61,0,0,0,195.09,232.07Z"/><path class="ag" d="M195.26,240.1a.4.4,0,0,1-.17.09A.47.47,0,0,0,195.26,240.1Z"/><path class="ag" d="M195.57,239.67a1.39,1.39,0,0,1-.22.37A1.39,1.39,0,0,0,195.57,239.67Z"/><path class="ag" d="M194.81,231.51a.35.35,0,0,1-.05-.08A.35.35,0,0,0,194.81,231.51Z"/><path class="ag" d="M195.32,232.71l-.06-.18Z"/><path class="ag" d="M190,231.36a.31.31,0,0,1,.18,0h0a.58.58,0,0,1,.18.11s0,0,.05.05l.07.07a1.66,1.66,0,0,1,.18.24l.06.08a4.5,4.5,0,0,1,.22.44.61.61,0,0,1,0,.12c.06.14.12.29.18.46a1.09,1.09,0,0,1,.05.17c.07.22.14.45.2.7.56,2.27.58,5.08.06,6.27a1.39,1.39,0,0,1-.23.37l-.08.06a.51.51,0,0,1-.18.09h0l2.06-.21,2.05-.21,0,0a.4.4,0,0,0,.17-.09l.07,0s0,0,0,0a1.39,1.39,0,0,0,.22-.37c.53-1.19.5-4,0-6.26-.07-.26-.13-.49-.2-.7l-.06-.18c-.06-.17-.11-.32-.17-.46A.61.61,0,0,1,195,232a4.42,4.42,0,0,0-.23-.44.35.35,0,0,1-.05-.08,2.51,2.51,0,0,0-.19-.24.23.23,0,0,0-.07-.07.69.69,0,0,0-.23-.16h0a.57.57,0,0,0-.18,0l-2.05.22h0Z"/><path class="ak" d="M190.17,231.39Z"/><path class="ak" d="M190.4,231.55l.07.07Z"/><path class="ak" d="M190.93,232.38a.61.61,0,0,1,0,.12A.61.61,0,0,0,190.93,232.38Z"/><path class="ak" d="M190.65,231.86l.06.08Z"/><path class="ak" d="M191.47,240.1a1.39,1.39,0,0,1-.23.37A1.39,1.39,0,0,0,191.47,240.1Z"/><path class="ak" d="M191.16,240.53a.51.51,0,0,1-.18.09A.51.51,0,0,0,191.16,240.53Z"/><path class="ak" d="M191.16,233a1.09,1.09,0,0,1,.05.17A1.09,1.09,0,0,0,191.16,233Z"/><path class="ak" d="M191.16,240.53l.08-.06a1.39,1.39,0,0,0,.23-.37c.52-1.19.5-4-.06-6.27-.06-.25-.13-.48-.2-.7a1.09,1.09,0,0,0-.05-.17c-.06-.17-.12-.32-.18-.46a.61.61,0,0,0,0-.12,4.5,4.5,0,0,0-.22-.44l-.06-.08a1.66,1.66,0,0,0-.18-.24l-.07-.07s0,0-.05-.05a.58.58,0,0,0-.18-.11h0a.31.31,0,0,0-.18,0h0l-10.85,1.13-1.92.2a2.32,2.32,0,0,0-1.2.48,2.73,2.73,0,0,0-.82,1.09,3.49,3.49,0,0,0-.22.69,4.17,4.17,0,0,0-.1.6.69.69,0,0,0,0,.13,6.45,6.45,0,0,0,0,.76h0a6.43,6.43,0,0,0,0,.77c0,.05,0,.1,0,.15a5.16,5.16,0,0,0,.06.58.88.88,0,0,1,0,.16c.07.46.15.81.17.9l.06.21c0,.13.07.24.11.35s.05.15.07.23a.49.49,0,0,1,0,.11,1.72,1.72,0,0,0,.09.19c.06.13.12.26.18.37s.09.16.14.23a2.44,2.44,0,0,0,.22.31l.13.15a3.07,3.07,0,0,0,.26.25l.13.1a1.75,1.75,0,0,0,.25.16,1.2,1.2,0,0,0,.23.11l.16.07a2.44,2.44,0,0,0,1,.11l3.81-.39,1.63-.17,3.51-.37,3.81-.4h0A.51.51,0,0,0,191.16,240.53Z"/><path class="al" d="M317.45,229.47a5,5,0,0,0-1.44-.15,3.84,3.84,0,0,0-.91.14l-3.05.87-.81-.6-.75-.54-.71-.48c-.39-.26-.8-.52-1.22-.76l-.86-.5c-.71-.41-1.45-.79-2.21-1.17l-.94-.45c-.22-.1-.43-.2-.66-.29-.57-.27-1.18-.53-1.8-.78l-1-.4c-.87-.33-1.76-.64-2.67-.94l-1.06-.34c-.93-.29-1.87-.55-2.83-.8l-1.1-.28c-1-.24-2-.45-3-.65l-1.11-.21c-1-.18-2-.34-3.05-.49l-1.13-.14-.87-.1c-.73-.08-1.48-.16-2.21-.22l-1.12-.07c-1-.07-2.06-.12-3.08-.14h-1.1c-1,0-2,0-3,0l-.83,0h-.25a55.6,55.6,0,0,0-13.37,2.27l-.39.13-.85.28c-.78.27-1.52.55-2.24.85l-.76.33-.89.42c-.38.18-.75.37-1.11.56l-.67.38c-.62.35-1.19.72-1.74,1.1l-.58.42a17.79,17.79,0,0,0-1.45,1.2c-.17.16-.33.3-.48.46a13.92,13.92,0,0,0-1.17,1.29c-.13.16-.26.32-.38.49a10.84,10.84,0,0,0-.85,1.35,5.21,5.21,0,0,0-.28.52,14.08,14.08,0,0,0-.56,1.4c0,.18-.11.36-.15.54a10.24,10.24,0,0,0-.26,1.43c0,.19,0,.37-.05.56a11.54,11.54,0,0,0,0,1.44c0,.19,0,.39.08.58a10.78,10.78,0,0,0,.31,1.43c.06.19.12.38.19.58a12.81,12.81,0,0,0,.6,1.4l.29.58c.25.45.54.9.85,1.35.13.19.27.39.42.58q.48.65,1.05,1.29l.52.56.36.37c.29.28.6.56.92.85s.4.36.62.53l.26.23-2.67.77a1.27,1.27,0,0,0-.86.6.66.66,0,0,0,0,.58,1.49,1.49,0,0,0,.46.54l6.16,4.8,71.13-19.73-.17-.63-6.16-4.62A3.54,3.54,0,0,0,317.45,229.47ZM263.13,244.3l-.28-.21c-6.4-5.05-4-11.49,5.66-14.38a31.55,31.55,0,0,1,4.68-1,41.33,41.33,0,0,1,11.22,0c5.5.75,10.58,2.56,13.86,5.24a1.79,1.79,0,0,1,.25.22Z"/><path class="am" d="M317.68,228.54a5,5,0,0,0-1.45-.15,3.84,3.84,0,0,0-.91.14l-3.05.88q-.39-.32-.81-.6c-.24-.19-.49-.37-.75-.55l-.7-.48c-.4-.26-.81-.52-1.23-.76l-.86-.5c-.71-.41-1.45-.79-2.21-1.16l-.94-.46c-.21-.1-.43-.2-.66-.29-.57-.27-1.18-.53-1.8-.78-.32-.13-.66-.27-1-.39-.87-.33-1.76-.65-2.67-.95l-1.06-.34c-.93-.28-1.87-.55-2.83-.8l-1.1-.28c-1-.24-2-.45-3-.65l-1.11-.21c-1-.18-2-.34-3.05-.48-.37-.06-.75-.11-1.13-.15l-.87-.1c-.73-.08-1.48-.16-2.21-.22l-1.12-.07c-1-.07-2.06-.12-3.08-.14H277c-1,0-2,0-3,0l-.83,0h-.25a55.6,55.6,0,0,0-13.37,2.27l-.39.13-.85.28c-.78.27-1.52.55-2.24.85l-.76.34-.89.41c-.38.18-.75.37-1.11.56l-.67.38c-.62.36-1.19.72-1.73,1.1-.21.14-.41.28-.59.42-.52.39-1,.8-1.45,1.2l-.48.46a13.92,13.92,0,0,0-1.17,1.29c-.13.16-.26.32-.38.49a10.84,10.84,0,0,0-.85,1.35c-.1.17-.19.34-.28.52a12,12,0,0,0-.55,1.4,5.52,5.52,0,0,0-.16.54,10.24,10.24,0,0,0-.26,1.43,5.27,5.27,0,0,0,0,.56,9.89,9.89,0,0,0,0,1.44c0,.19,0,.39.08.58a10.83,10.83,0,0,0,.32,1.43c0,.19.11.38.18.58a15.11,15.11,0,0,0,.6,1.4c.09.19.19.38.3.58q.38.67.84,1.35c.13.19.27.39.42.58.32.43.67.86,1.06,1.29.16.19.33.37.51.56l.36.37c.29.28.6.57.92.85s.4.36.62.54l.26.22-2.67.77a1.27,1.27,0,0,0-.86.6.66.66,0,0,0,0,.58,1.52,1.52,0,0,0,.46.55l6.16,4.79,71.13-19.73-6.33-5.24A3.44,3.44,0,0,0,317.68,228.54Zm-54.33,14.83-.28-.21c-6.4-5-4-11.49,5.66-14.38a32.87,32.87,0,0,1,4.68-1,40.94,40.94,0,0,1,11.22,0c5.5.74,10.58,2.55,13.86,5.23a1.79,1.79,0,0,1,.25.22Z"/><g class="an"><path class="ao" d="M273.15,219.12l.26,8.65a32.87,32.87,0,0,0-4.68,1c-9.63,2.89-12.06,9.33-5.66,14.38l.28.21,10.46-3,.26,8.3-17.86,4.95-1.81-30.22.89-.41.76-.34c.72-.3,1.46-.58,2.24-.85l.85-.28.39-.13a55.6,55.6,0,0,1,13.37-2.27Z"/><path class="ap" d="M304.11,224.61l-.25,15.81-19,5.26-.12-8.44,14-4a1.79,1.79,0,0,0-.25-.22c-3.28-2.68-8.36-4.49-13.86-5.23l-.11-8.31.87.1c.38,0,.76.09,1.13.15,1,.14,2.05.3,3.05.48l1.11.21c1,.2,2,.41,3,.65l1.1.28c1,.25,1.9.52,2.83.8l1.06.34c.91.3,1.8.62,2.67.95.34.12.68.26,1,.39C302.93,224.08,303.54,224.34,304.11,224.61Z"/></g><path class="af" d="M228.13,383.21h0a.92.92,0,0,0-.16.3l0,.1a2.87,2.87,0,0,0-.12.52,4.76,4.76,0,0,0,.19,2.45c.06.1.12.17.18.18h0l-5.36-1.52,0,0a1.09,1.09,0,0,1,0-.53,1.23,1.23,0,0,1,0-.16l0,0,0,0,5.41-1.34h0A.31.31,0,0,0,228.13,383.21Z"/><polygon class="ag" points="238.9 389.78 238.89 389.78 238.9 389.78 238.9 389.78"/><path class="aq" d="M238.92,380.51h0a.67.67,0,0,0-.21.18l-.06.07a1.67,1.67,0,0,0-.17.26l-.05.08c-.06.14-.12.29-.18.46a.65.65,0,0,0,0,.13c0,.14-.09.3-.14.47s0,.12,0,.18c-.05.22-.1.46-.14.71-.35,2.31-.14,5.11.49,6.25a1.14,1.14,0,0,0,.26.35l.08.05.14.08h0l-10.64-3h0c-.06,0-.12-.08-.18-.18a4.76,4.76,0,0,1-.19-2.45,2.87,2.87,0,0,1,.12-.52l0-.1a.92.92,0,0,1,.16-.3h0a.31.31,0,0,1,.13-.1h0L239,380.48h.05A.28.28,0,0,0,238.92,380.51Z"/><path class="ai" d="M238.9,389.78h-.05l-.14-.08A.46.46,0,0,0,238.9,389.78Z"/><path class="ai" d="M238.2,381.69a.65.65,0,0,1,0-.13A.65.65,0,0,0,238.2,381.69Z"/><path class="ai" d="M238,382.34c0-.06,0-.12,0-.18S238,382.28,238,382.34Z"/><path class="ai" d="M238.37,389.3a1.14,1.14,0,0,0,.26.35A1.14,1.14,0,0,1,238.37,389.3Z"/><path class="ai" d="M238.91,380.51h0Z"/><path class="ai" d="M238.42,381.1l.05-.08Z"/><path class="ai" d="M238.7,380.69l-.06.07Z"/><path class="ar" d="M373.33,382.86a.73.73,0,0,0-.22.18l-.06.08a2,2,0,0,0-.17.26s0,.05,0,.08a3.36,3.36,0,0,0-.19.46.56.56,0,0,0,0,.12c-.05.15-.09.3-.13.47s0,.12-.05.18c-.05.23-.09.46-.13.72-.36,2.3-.14,5.1.48,6.25a1.21,1.21,0,0,0,.26.34v0l.08,0a.48.48,0,0,0,.18.08h0l-9.8-.17-9.5-.16-17.89-.32-10.61-.18-2.88-.05-21.83-.39-11.26-.19-2.77-.05-10.72-.19-17.84-.31L248.7,390l-9.77-.17h0a.46.46,0,0,1-.19-.08l-.08-.05a1.14,1.14,0,0,1-.26-.35c-.63-1.14-.84-3.94-.49-6.25,0-.25.09-.49.14-.71,0-.06,0-.12,0-.18s.09-.33.14-.47a.65.65,0,0,1,0-.13c.06-.17.12-.32.18-.46l.05-.08a1.67,1.67,0,0,1,.17-.26l.06-.07a.67.67,0,0,1,.21-.18h0a.28.28,0,0,1,.13,0h0l9.78.17,9.52.16,17.87.32,10.64.18,2.87.05,11.22.2,21.84.38,2.86.05,10.64.19,17.88.31,9.52.17,9.77.17a.59.59,0,0,0-.17,0Z"/><path class="ag" d="M373.11,383l-.06.08Z"/><path class="ag" d="M373.33,382.86Z"/><path class="ag" d="M372.61,384a.56.56,0,0,1,0-.12A.56.56,0,0,0,372.61,384Z"/><path class="ag" d="M373.13,392.05a.48.48,0,0,0,.18.08A.48.48,0,0,1,373.13,392.05Z"/><path class="ag" d="M372.78,391.66a1.21,1.21,0,0,0,.26.34A1.21,1.21,0,0,1,372.78,391.66Z"/><path class="ag" d="M372.84,383.46s0,0,0-.08S372.85,383.43,372.84,383.46Z"/><path class="ag" d="M372.43,384.69c0-.06,0-.12.05-.18S372.45,384.63,372.43,384.69Z"/><path class="ag" d="M377.63,382.89a.41.41,0,0,0-.18.05h0a.48.48,0,0,0-.17.12l0,.06-.06.07a2,2,0,0,0-.16.26l-.05.08c-.06.14-.13.29-.19.46l0,.12c-.05.15-.1.31-.14.48s0,.11,0,.18c-.05.22-.1.45-.14.71-.35,2.31-.14,5.1.48,6.25a1.75,1.75,0,0,0,.26.34.47.47,0,0,0,.09.06.45.45,0,0,0,.18.07s0,0,0,0l-2.07,0-2.06,0h0a.48.48,0,0,1-.18-.08l-.08,0v0a1.21,1.21,0,0,1-.26-.34c-.62-1.15-.84-4-.48-6.25,0-.26.08-.49.13-.72,0-.06,0-.12.05-.18s.08-.32.13-.47a.56.56,0,0,1,0-.12,3.36,3.36,0,0,1,.19-.46s0,0,0-.08a2,2,0,0,1,.17-.26l.06-.08a.73.73,0,0,1,.22-.18h0a.59.59,0,0,1,.17,0l2.06,0h0Z"/><path class="ak" d="M377.45,382.94Z"/><path class="ak" d="M377.23,383.12l-.06.07Z"/><path class="ak" d="M376.77,384l0,.12Z"/><path class="ak" d="M377,383.45l-.05.08Z"/><path class="ak" d="M376.9,391.73a1.75,1.75,0,0,0,.26.34A1.75,1.75,0,0,1,376.9,391.73Z"/><path class="ak" d="M377.25,392.13a.45.45,0,0,0,.18.07A.45.45,0,0,1,377.25,392.13Z"/><path class="ak" d="M376.6,384.59c0,.06,0,.11,0,.18S376.59,384.65,376.6,384.59Z"/><path class="ak" d="M377.25,392.13a.47.47,0,0,1-.09-.06,1.75,1.75,0,0,1-.26-.34c-.62-1.15-.83-3.94-.48-6.25,0-.26.09-.49.14-.71,0-.07,0-.12,0-.18s.09-.33.14-.48l0-.12c.06-.17.13-.32.19-.46l.05-.08a2,2,0,0,1,.16-.26l.06-.07,0-.06a.48.48,0,0,1,.17-.12h0a.41.41,0,0,1,.18-.05h0l10.91.2,1.92,0a2.32,2.32,0,0,1,1.24.38,2.69,2.69,0,0,1,.91,1,5,5,0,0,1,.28.67q.09.3.15.6a.5.5,0,0,1,0,.13,6.62,6.62,0,0,1,.11.74v0a6.85,6.85,0,0,1,0,.77v.15c0,.2,0,.4,0,.58s0,.11,0,.16c0,.47-.08.82-.09.91a1.42,1.42,0,0,1-.05.22c0,.13,0,.24-.07.36s0,.15-.05.23l0,.12c0,.07-.05.13-.08.19a3.54,3.54,0,0,1-.14.39l-.12.24a3.54,3.54,0,0,1-.19.33l-.12.15a2.09,2.09,0,0,1-.24.28l-.12.11a1.88,1.88,0,0,1-.24.18l-.21.13-.16.08a2.33,2.33,0,0,1-1,.2l-3.84-.06-1.64,0-3.53-.07-3.82-.06s0,0,0,0A.45.45,0,0,1,377.25,392.13Z"/><polygon class="as" points="404.8 361.2 407 378.93 409.14 360.08 404.8 361.2"/><path class="at" d="M401.25,296.36l1.5,60.29a6.41,6.41,0,0,0,2.05,4.55h0l4.09-.18,1.39-5.2a35.16,35.16,0,0,0,1-13l-5.45-48.14Z"/><rect class="au" x="336.03" y="340.89" width="44.8" height="5.28" transform="translate(780.23 81.66) rotate(104.38)"/><polygon class="av" points="352.67 369.5 350.88 369.04 350.32 364.57 355.43 365.88 352.67 369.5"/><polygon class="aw" points="351.18 371.44 350.88 369.04 352.67 369.5 351.18 371.44"/><rect class="aw" x="363.2" y="318.15" width="2.14" height="5.27" transform="translate(765.49 47.63) rotate(104.38)"/><path class="ax" d="M363.62,314.67h4.06a0,0,0,0,1,0,0v5.27a0,0,0,0,1,0,0h-4.06a1,1,0,0,1-1-1v-3.31A1,1,0,0,1,363.62,314.67Z" transform="translate(763.22 42.41) rotate(104.38)"/><path class="ay" d="M404.35,283.65l4.22-16.59a4.09,4.09,0,0,0-3.25-5.08h0a4.08,4.08,0,0,0-4.75,3.42l-2.37,17.27Z"/><path class="az" d="M361.59,357.94h0A2.88,2.88,0,0,0,365,356c7.28-23.35,14.69-48.62,21.35-56a6.05,6.05,0,0,1,5.29-2l10.94,1.35c6.44,1,10-12.59,3.94-15.23,0,0-13.17-10.71-26.15,12.09-6.35,9.81-10.8,22-14.18,34.87a1.46,1.46,0,0,1-1.64,1.08l-5.92-.93a1.46,1.46,0,0,0-1.62,1l-5.45,17.33a1.46,1.46,0,0,0,1.19,1.88l7.33.89-.6,1.93A2.89,2.89,0,0,0,361.59,357.94Z"/><path class="ba" d="M403.47,290a3.68,3.68,0,1,1-3.79-3.56A3.67,3.67,0,0,1,403.47,290Z"/><path class="bb" d="M401.53,290a1.73,1.73,0,1,1-1.79-1.68A1.75,1.75,0,0,1,401.53,290Z"/><path class="bc" d="M370.89,343.91a3.31,3.31,0,1,1-3.41-3.21A3.31,3.31,0,0,1,370.89,343.91Z"/><path class="bb" d="M369.14,344a1.56,1.56,0,1,1-1.61-1.5A1.54,1.54,0,0,1,369.14,344Z"/><path class="bd" d="M117,330.93l-7.71,19.48,77.16,19,8.68-20.52c1.47-3.5-2-7.35-7.63-8.59L128.19,327C123.31,326,118.34,327.72,117,330.93Z"/><path class="be" d="M108.84,350.36,64.38,384.18c-3.45,2.84-3.89,8.28,3.49,10.56l62.62,18.19c5.87,1.71,13.22.47,16.34-2.73l39.66-40.83.47-3.29Z"/><path class="bf" d="M68.32,391.41,131,409.64c5.87,1.71,13.23.48,16.34-2.72l8.05-8.28L187,366.08l-76.59-18.79L109.3,347,65.11,383.48C61.66,386.32,63.06,389.88,68.32,391.41Z"/><path class="bg" d="M68.32,391.41,131,409.64c5.87,1.71,13.23.48,16.34-2.72l8.05-8.28c-11-12.81-37-42.28-45-51.35L109.3,347,65.11,383.48C61.66,386.32,63.06,389.88,68.32,391.41Z"/><path class="bh" d="M159.44,369.89l5.36,1.36c2.2.56,4.87.14,5.95-.94l1.81-1.81c1.06-1.06.15-2.36-2-2.9l-5.32-1.32c-2.15-.54-4.77-.13-5.86.92L157.5,367C156.4,368,157.26,369.34,159.44,369.89Z"/><path class="bh" d="M143.37,365.82l5.23,1.32c2.14.55,4.79.13,5.89-.92l1.86-1.77c1.09-1,.24-2.31-1.89-2.84l-5.18-1.29c-2.1-.52-4.7-.11-5.81.91L141.58,363C140.45,364,141.25,365.28,143.37,365.82Z"/><path class="bh" d="M127.69,361.84l5.1,1.29c2.1.54,4.72.13,5.85-.9l1.9-1.73c1.12-1,.33-2.26-1.75-2.78l-5-1.25c-2.06-.51-4.63-.12-5.77.88l-1.93,1.7C124.89,360.07,125.62,361.32,127.69,361.84Z"/><path class="bi" d="M112.4,358l5,1.26c2,.52,4.64.12,5.8-.89l1.94-1.69c1.14-1,.41-2.21-1.62-2.71l-4.93-1.23c-2-.49-4.56-.11-5.72.87l-2,1.67C109.71,356.23,110.38,357.45,112.4,358Z"/><path class="bh" d="M151.45,377.67l5.43,1.41c2.23.59,5,.15,6.07-1l1.88-1.88c1.1-1.1.19-2.45-2-3l-5.37-1.38c-2.19-.56-4.86-.13-6,1l-1.92,1.84C148.4,375.73,149.25,377.09,151.45,377.67Z"/><path class="bh" d="M135.19,373.42l5.29,1.38c2.17.57,4.87.14,6-1l1.92-1.83c1.13-1.08.29-2.4-1.86-2.95l-5.24-1.34c-2.13-.54-4.78-.13-5.93.93l-2,1.8C132.26,371.53,133,372.85,135.19,373.42Z"/><path class="bh" d="M119.34,369.27l5.15,1.35c2.12.55,4.8.13,6-.94l2-1.79c1.15-1.05.38-2.34-1.72-2.88l-5.11-1.3c-2.08-.54-4.7-.13-5.88.91l-2,1.76C116.52,367.43,117.24,368.73,119.34,369.27Z"/><path class="bj" d="M103.88,365.23l5,1.32c2.06.54,4.72.12,5.91-.92l2-1.76c1.18-1,.47-2.28-1.58-2.81l-5-1.27c-2-.52-4.63-.12-5.83.89l-2,1.73C101.18,363.43,101.84,364.7,103.88,365.23Z"/><path class="bh" d="M143.16,385.73l5.5,1.48c2.25.6,5,.15,6.19-1l2-1.95c1.15-1.14.25-2.54-2-3.13l-5.45-1.43c-2.21-.59-4.93-.15-6.1,1l-2,1.92C140.1,383.71,140.93,385.13,143.16,385.73Z"/><path class="bh" d="M126.71,381.29l5.35,1.45c2.2.59,4.95.15,6.14-1l2-1.9c1.17-1.12.35-2.49-1.83-3.06l-5.31-1.4c-2.15-.57-4.85-.14-6,1l-2,1.87C123.77,379.33,124.54,380.71,126.71,381.29Z"/><path class="bh" d="M110.68,377l5.21,1.4c2.14.58,4.87.14,6.09-1l2-1.87c1.2-1.09.44-2.42-1.68-3l-5.18-1.37c-2.09-.55-4.77-.13-6,.94L109.09,374C107.86,375.06,108.56,376.41,110.68,377Z"/><path class="bk" d="M95.05,372.77l5.08,1.36c2.09.57,4.8.14,6-.94l2.08-1.82c1.22-1.07.53-2.37-1.54-2.92l-5-1.33c-2-.54-4.7-.13-5.94.92l-2.12,1.79C92.34,370.89,93,372.21,95.05,372.77Z"/><path class="bh" d="M134.56,394.1l5.56,1.54c2.28.64,5.12.17,6.33-1l2-2c1.19-1.19.31-2.64-1.95-3.26L141,387.83c-2.24-.61-5-.16-6.23,1l-2.07,2C131.48,392,132.3,393.47,134.56,394.1Z"/><path class="bh" d="M117.91,389.47l5.41,1.51c2.23.61,5,.16,6.27-1l2.08-2c1.21-1.16.4-2.58-1.8-3.18l-5.37-1.46c-2.18-.59-4.93-.15-6.17,1l-2.11,1.94C115,387.43,115.71,388.86,117.91,389.47Z"/><path class="bh" d="M101.69,385l5.27,1.47c2.17.6,5,.15,6.22-1l2.12-1.93c1.24-1.13.5-2.52-1.65-3.1L108.42,379c-2.12-.58-4.85-.15-6.12,1l-2.15,1.89C98.87,383,99.55,384.37,101.69,385Z"/><path class="bl" d="M75.51,388.42l7,2a5.82,5.82,0,0,0,4.84-.77l12.56-11c1-.86.45-1.9-1.16-2.34l-6.83-1.85a5.76,5.76,0,0,0-4.67.73L74.48,386C73.43,386.87,73.89,388,75.51,388.42Z"/><path class="bh" d="M125.62,402.79l5.63,1.62c2.31.66,5.21.18,6.47-1.07l2.1-2.11c1.23-1.23.37-2.75-1.92-3.39l-5.58-1.56c-2.26-.64-5.11-.17-6.37,1l-2.14,2.06C122.53,400.61,123.34,402.14,125.62,402.79Z"/><path class="bh" d="M108.77,398l5.48,1.57c2.25.65,5.12.18,6.4-1l2.16-2.05c1.26-1.21.47-2.69-1.76-3.31l-5.43-1.52c-2.21-.62-5-.16-6.31,1l-2.19,2C105.81,395.83,106.55,397.32,108.77,398Z"/><path class="bh" d="M92.37,393.26l5.33,1.53c2.19.62,5,.16,6.35-1l2.2-2c1.29-1.17.56-2.62-1.61-3.23L99.35,387c-2.14-.6-4.93-.15-6.25,1l-2.23,2C89.54,391.18,90.2,392.64,92.37,393.26Z"/><path class="bm" d="M159.56,369.07l5.36,1.36c2.2.56,4.87.13,6-.95l1.81-1.81c1.06-1.06.15-2.36-2-2.9l-5.31-1.32c-2.16-.54-4.78-.13-5.86.92l-1.85,1.78C156.52,367.21,157.38,368.51,159.56,369.07Z"/><path class="bm" d="M143.49,365l5.22,1.32c2.15.55,4.8.13,5.9-.92l1.86-1.77c1.09-1,.24-2.31-1.89-2.84l-5.18-1.29c-2.11-.52-4.7-.12-5.81.91l-1.9,1.73C140.57,363.17,141.36,364.45,143.49,365Z"/><path class="bm" d="M127.81,361l5.1,1.29c2.09.53,4.72.13,5.85-.9l1.9-1.74c1.12-1,.33-2.25-1.75-2.77l-5.06-1.26c-2-.51-4.62-.11-5.76.89l-1.93,1.7C125,359.23,125.74,360.48,127.81,361Z"/><path class="bn" d="M112.52,357.13l5,1.26c2.05.52,4.65.12,5.8-.89l1.94-1.7c1.14-1,.42-2.2-1.61-2.71l-4.93-1.22c-2-.5-4.56-.11-5.72.87l-2,1.66C109.82,355.39,110.5,356.61,112.52,357.13Z"/><path class="bm" d="M151.57,376.84l5.43,1.42c2.22.58,4.95.14,6.07-1l1.87-1.87c1.11-1.11.2-2.45-2-3L157.55,371c-2.18-.56-4.85-.14-6,.94l-1.91,1.84C148.52,374.9,149.37,376.26,151.57,376.84Z"/><path class="bm" d="M135.31,372.59,140.6,374c2.17.57,4.87.14,6-1l1.93-1.84c1.13-1.08.29-2.4-1.86-2.95l-5.25-1.34c-2.12-.54-4.77-.13-5.93.93l-2,1.8C132.38,370.7,133.16,372,135.31,372.59Z"/><path class="bm" d="M119.45,368.44l5.16,1.35c2.12.55,4.79.13,6-.94l2-1.79c1.15-1.06.38-2.34-1.72-2.88l-5.12-1.31c-2.07-.53-4.7-.12-5.87.91l-2,1.77C116.64,366.6,117.36,367.89,119.45,368.44Z"/><path class="bo" d="M104,364.4l5,1.31c2.07.54,4.72.13,5.92-.91l2-1.76c1.18-1,.47-2.29-1.58-2.81l-5-1.28c-2-.52-4.63-.12-5.83.9l-2,1.72C101.29,362.6,102,363.86,104,364.4Z"/><path class="bm" d="M143.28,384.9l5.49,1.48c2.26.61,5,.16,6.2-1l1.95-1.95c1.14-1.15.25-2.55-2-3.14l-5.44-1.43c-2.21-.58-4.94-.15-6.1,1l-2,1.91C140.22,382.89,141.05,384.3,143.28,384.9Z"/><path class="bm" d="M126.82,380.46l5.36,1.45c2.19.59,4.95.15,6.14-1l2-1.9c1.17-1.12.34-2.49-1.84-3.06l-5.3-1.4c-2.15-.57-4.86-.14-6.05,1l-2,1.87C123.88,378.5,124.65,379.88,126.82,380.46Z"/><path class="bm" d="M110.79,376.14l5.22,1.41c2.14.58,4.87.14,6.08-1l2-1.86c1.19-1.09.44-2.43-1.69-3l-5.17-1.36c-2.1-.55-4.78-.13-6,.94l-2.07,1.83C108,374.23,108.67,375.57,110.79,376.14Z"/><path class="bp" d="M95.16,371.93l5.09,1.37c2.08.56,4.79.14,6-.95l2.08-1.81c1.23-1.07.53-2.38-1.54-2.92l-5-1.33c-2-.54-4.7-.13-6,.92L93.72,369C92.46,370.06,93.1,371.37,95.16,371.93Z"/><path class="bm" d="M134.68,393.27l5.56,1.55c2.28.63,5.12.17,6.33-1l2-2c1.19-1.19.31-2.65-2-3.26l-5.51-1.5c-2.23-.61-5-.16-6.23,1l-2.06,2C131.6,391.17,132.42,392.64,134.68,393.27Z"/><path class="bm" d="M118,388.64l5.42,1.51c2.22.61,5,.16,6.27-1l2.07-2c1.22-1.16.41-2.58-1.79-3.18l-5.37-1.46c-2.18-.59-4.94-.15-6.18,1l-2.11,1.94C115.08,386.6,115.83,388,118,388.64Z"/><path class="bm" d="M101.81,384.13l5.27,1.47c2.17.6,5,.15,6.22-1l2.11-1.93c1.25-1.13.51-2.52-1.64-3.1l-5.23-1.42c-2.12-.58-4.86-.15-6.12,1l-2.16,1.9C99,382.14,99.67,383.54,101.81,384.13Z"/><path class="bq" d="M75.63,387.59l7,2a5.77,5.77,0,0,0,4.84-.78l12.57-11c1-.85.45-1.89-1.16-2.33L92,373.65a5.77,5.77,0,0,0-4.66.73L74.59,385.15C73.55,386,74,387.12,75.63,387.59Z"/><path class="bm" d="M125.74,402l5.62,1.61c2.32.67,5.22.19,6.47-1.07l2.11-2.1c1.23-1.24.36-2.75-1.93-3.4l-5.57-1.56c-2.27-.63-5.11-.17-6.37,1l-2.14,2.06C122.65,399.78,123.45,401.31,125.74,402Z"/><path class="bm" d="M108.88,397.13l5.48,1.57c2.25.65,5.13.18,6.41-1.05l2.15-2c1.27-1.2.47-2.68-1.76-3.31l-5.43-1.52c-2.2-.62-5-.16-6.3,1l-2.2,2C105.93,395,106.66,396.49,108.88,397.13Z"/><path class="bm" d="M92.48,392.42,97.81,394c2.19.63,5,.17,6.35-1l2.2-2c1.29-1.17.57-2.62-1.6-3.23l-5.29-1.48c-2.15-.6-4.94-.16-6.25,1l-2.24,2C89.65,390.35,90.32,391.8,92.48,392.42Z"/><path class="br" d="M115.91,330.85l-6.55,16.23,77.6,19,7-17.61c1.47-3.5-2-7.36-7.62-8.59L127.07,327C122.18,325.88,117.21,327.63,115.91,330.85Z"/><path class="w" d="M126.58,330l57,13.14c3.31.76,5.28,3.22,4.39,5.48L184.25,358c-.88,2.25-4.27,3.4-7.55,2.58l-56.36-14.19c-2.85-.72-4.51-3-3.71-5.08l3.3-8.66C120.73,330.51,123.7,329.35,126.58,330Z"/><path class="bs" d="M121.8,345.37l6.23,1.51,13.6,3.28,7.31,1.77,24.4,5.89,2.72.65a9.4,9.4,0,0,0,1.14.2c2.66.29,5.16-.64,5.86-2.32l1-2.36,2.2-5.24c.8-1.92-1.07-4-4.16-4.73l-6.42-1.44-14.28-3.2-3.92-.87L137.4,334l-9.32-2.09-.76-.17c-2.7-.6-5.48.35-6.2,2.14L119.85,337l-1.6,4C117.54,342.76,119.11,344.72,121.8,345.37Z"/><path class="bt" d="M137.4,334l11.54,17.91,24.4,5.89c-4.61-5.66-10.41-12.69-15.87-19.31Z"/><path class="bu" d="M161.39,339.38l15.81,19.29c2.66.29,5.16-.64,5.86-2.32l1-2.36-8.38-11.41Z"/><path class="bv" d="M119.85,337l8.18,9.86,13.6,3.28-13.55-18.23-.76-.17c-2.7-.6-5.48.35-6.2,2.14Z"/></g></svg>