<?xml version="1.0" encoding="utf-8"?>
<!-- Generator: Adobe Illustrator 25.4.1, SVG Export Plug-In . SVG Version: 6.00 Build 0)  -->
<svg version="1.1" id="Layer_1" xmlns="http://www.w3.org/2000/svg" xmlns:xlink="http://www.w3.org/1999/xlink" x="0px" y="0px"
	 viewBox="0 0 16 16" style="enable-background:new 0 0 16 16;" xml:space="preserve">
<style type="text/css">
	.st0{fill:#F99746;}
</style>
<path class="st0" d="M4,16c0,0-1,0-1-1s1-4,5-4s5,3,5,4s-1,1-1,1H4z M8,10.1c1.4,0,2.5-1.1,2.5-2.5S9.4,5.1,8,5.1S5.5,6.2,5.5,7.6
	S6.6,10.1,8,10.1z"/>
<path class="st0" d="M2,1C0.9,1,0,1.9,0,3v9.5C0,13.3,0.7,14,1.5,14h0.7c0.2-0.7,0.6-1.4,1.1-2H1V3c0-0.6,0.4-1,1-1h12
	c0.6,0,1,0.4,1,1v9h-2.2c0.6,0.7,0.9,1.4,1.1,2h0.7c0.8,0,1.5-0.7,1.5-1.5V3c0-1.1-0.9-2-2-2H2z"/>
<rect x="-52.4" y="-8.4" class="st0" width="5.4" height="5.4"/>
</svg>
